<?xml version="1.0" encoding="UTF-8" standalone="no"?>
<!-- Created with Inkscape (http://www.inkscape.org/) -->

<svg
   xmlns:dc="http://purl.org/dc/elements/1.1/"
   xmlns:cc="http://creativecommons.org/ns#"
   xmlns:rdf="http://www.w3.org/1999/02/22-rdf-syntax-ns#"
   xmlns:svg="http://www.w3.org/2000/svg"
   xmlns="http://www.w3.org/2000/svg"
   xmlns:sodipodi="http://sodipodi.sourceforge.net/DTD/sodipodi-0.dtd"
   xmlns:inkscape="http://www.inkscape.org/namespaces/inkscape"
   width="71.608276mm"
   height="77.527mm"
   viewBox="0 0 71.608276 77.526997"
   version="1.1"
   id="svg8"
   inkscape:version="0.92.4 (5da689c313, 2019-01-14)"
   sodipodi:docname="comment.svg">
  <defs
     id="defs2" />
  <sodipodi:namedview
     id="base"
     pagecolor="#ffffff"
     bordercolor="#666666"
     borderopacity="1.0"
     inkscape:pageopacity="0.0"
     inkscape:pageshadow="2"
     inkscape:zoom="1.1320312"
     inkscape:cx="-36.002635"
     inkscape:cy="174.41641"
     inkscape:document-units="mm"
     inkscape:current-layer="layer1"
     showgrid="false"
     inkscape:window-width="1920"
     inkscape:window-height="1001"
     inkscape:window-x="-9"
     inkscape:window-y="1341"
     inkscape:window-maximized="1"
     fit-margin-top="0"
     fit-margin-left="0"
     fit-margin-right="0"
     fit-margin-bottom="0" />
  <metadata
     id="metadata5">
    <rdf:RDF>
      <cc:Work
         rdf:about="">
        <dc:format>image/svg+xml</dc:format>
        <dc:type
           rdf:resource="http://purl.org/dc/dcmitype/StillImage" />
        <dc:title></dc:title>
      </cc:Work>
    </rdf:RDF>
  </metadata>
  <g
     inkscape:label="Layer 1"
     inkscape:groupmode="layer"
     id="layer1"
     transform="translate(-76.327051,-89.14465)">
    <path
       style="fill:#666666;fill-opacity:0.37647059;stroke-width:0.04829933"
       d="m 101.61073,147.84283 -0.0123,-4.80546 -0.31394,-0.0115 c -2.013867,-0.0742 -3.842289,-0.72426 -5.481977,-1.94921 -1.699237,-1.26944 -2.981612,-3.17044 -3.503124,-5.19306 -0.332994,-1.29148 -0.312524,-0.71127 -0.312524,-8.85741 0,-5.81598 0.0133,-7.45616 0.06319,-7.79589 0.210878,-1.43588 0.71358,-2.77029 1.492833,-3.96271 0.401966,-0.6151 0.640488,-0.90978 1.188495,-1.46838 1.272827,-1.2974 2.75559,-2.15413 4.500381,-2.60026 1.137806,-0.29093 0.376247,-0.27177 11.615996,-0.29238 10.95185,-0.0201 10.96119,-0.0199 12.06554,0.20908 2.84616,0.5902 5.33063,2.52465 6.62198,5.156 0.45761,0.93248 0.7259,1.77237 0.9051,2.83345 0.0787,0.46605 0.0871,1.07661 0.10229,7.5347 0.0184,7.74755 0.0161,7.81724 -0.27954,9.02765 -0.57521,2.35422 -2.00078,4.38937 -4.03204,5.75614 -1.17013,0.78735 -2.7912,1.38146 -4.20204,1.54003 -0.26606,0.0299 -2.4395,0.049 -5.60263,0.0493 l -5.16793,2.6e-4 -4.81771,4.81753 -4.81773,4.81753 z"
       id="path826"
       inkscape:connector-curvature="0" />
  </g>
</svg>
