<?xml version="1.0" encoding="utf-8"?>
<!-- Generator: Adobe Illustrator 24.0.0, SVG Export Plug-In . SVG Version: 6.00 Build 0)  -->
<svg version="1.1" id="Livello_1" xmlns="http://www.w3.org/2000/svg" xmlns:xlink="http://www.w3.org/1999/xlink" x="0px" y="0px"
	 viewBox="0 0 252 220" style="enable-background:new 0 0 252 220;" xml:space="preserve">
<style type="text/css">
	.st0{fill:#FFFFFF;}
</style>
<g>
	<g>
		<path class="st0" d="M241.2,178.9c-74,0-146.4,0-220.4,0c6.9-8.9,13.2-17,19.6-25.2c-0.2-1.8-0.6-4.3-0.6-6.7c0-34.3,0-68.6,0-103
			c0-8,2.4-10.3,10.5-10.3c53.8,0,107.6,0,161.4,0c8.1,0,10.5,2.4,10.5,10.3c0,34.3,0,68.6,0,103c0,2.4-0.4,4.9-0.6,6.7
			C228,161.9,234.2,169.9,241.2,178.9z M46.9,44.9c0,33.4,0,66.6,0,99.6c56.4,0,112.3,0,168.3,0c0-33.4,0-66.4,0-99.6
			C158.9,44.9,103,44.9,46.9,44.9z M212.1,165.3c-2.8-6.2-6.1-8.7-12.6-8.6c-45.8,0.3-91.5,0.2-137.3,0.2c-7.5,0-8.8,0.9-11.8,8.5
			C104.2,165.3,157.8,165.3,212.1,165.3z M130.8,174.7c7,0,14,0.1,21-0.1c1.4,0,2.8-1.4,4.2-2.2c-1.3-1.1-2.6-3.2-4-3.2
			c-14-0.2-28-0.2-42,0c-1.3,0-2.7,2.1-4,3.2c1.4,0.8,2.8,2.1,4.2,2.2C117.1,174.9,123.9,174.7,130.8,174.7z"/>
		<path class="st0" d="M239.6,181.3c-2.6,4.1-5.9,5.1-10,5.1c-33.5-0.1-66.9,0-100.4,0c-32.3,0-64.6,0-96.9,0.1
			c-4.1,0-7.3-1.1-10.1-5.1C94.9,181.3,166.9,181.3,239.6,181.3z"/>
		<path class="st0" d="M125.9,113.3c-5.5-13.3-10.4-25.5-16-39.1c13.6,5.6,25.9,10.6,39.1,16c-4.5,2.3-8,4.2-12.5,6.5
			c4.1,3.9,7.9,7.5,11.6,11.2c1.7,1.7,3.5,3.3,1,5.8c-2.5,2.4-3.8,0.4-5.3-1.1c-3.6-3.6-7.2-7.3-11.4-11.5
			C130.3,105,128.4,108.6,125.9,113.3z"/>
	</g>
</g>
</svg>
