<?xml version="1.0" encoding="UTF-8" standalone="no"?><!DOCTYPE svg PUBLIC "-//W3C//DTD SVG 1.1//EN" "http://www.w3.org/Graphics/SVG/1.1/DTD/svg11.dtd"><svg width="100%" height="100%" viewBox="0 0 1476 1305" version="1.1" xmlns="http://www.w3.org/2000/svg" xmlns:xlink="http://www.w3.org/1999/xlink" xml:space="preserve" xmlns:serif="http://www.serif.com/" style="fill-rule:evenodd;clip-rule:evenodd;stroke-linejoin:round;stroke-miterlimit:2;"><g><g><g><g><path d="M331.4,359.364l-171.492,-0l-85.742,148.51l85.742,148.52l171.492,-0l85.751,-148.52l-85.751,-148.51Z" style="fill:#fff;fill-opacity:0;fill-rule:nonzero;stroke:#000;stroke-width:4.17px;"/><path d="M331.4,359.364l-171.492,-0l-85.742,148.51l85.742,148.52l171.492,-0l85.751,-148.52l-85.751,-148.51Z" style="fill:#fff;fill-opacity:0;fill-rule:nonzero;stroke:#000;stroke-width:0.77px;stroke-linejoin:miter;stroke-miterlimit:10;"/></g></g></g><g><g><g><path d="M331.4,656.394l-171.492,-0l-85.742,148.51l85.742,148.52l171.492,-0l85.751,-148.52l-85.751,-148.51Z" style="fill:#fff;fill-opacity:0;fill-rule:nonzero;stroke:#000;stroke-width:4.17px;"/><path d="M331.4,656.394l-171.492,-0l-85.742,148.51l85.742,148.52l171.492,-0l85.751,-148.52l-85.751,-148.51Z" style="fill:#fff;fill-opacity:0;fill-rule:nonzero;stroke:#000;stroke-width:0.77px;stroke-linejoin:miter;stroke-miterlimit:10;"/></g></g></g><g><g><g><path d="M589.953,507.879l-171.492,-0l-85.741,148.51l85.741,148.52l171.492,-0l85.752,-148.52l-85.752,-148.51Z" style="fill:#fff;fill-opacity:0;fill-rule:nonzero;stroke:#000;stroke-width:4.17px;"/><path d="M589.953,507.879l-171.492,-0l-85.741,148.51l85.741,148.52l171.492,-0l85.752,-148.52l-85.752,-148.51Z" style="fill:#fff;fill-opacity:0;fill-rule:nonzero;stroke:#000;stroke-width:0.77px;stroke-linejoin:miter;stroke-miterlimit:10;"/></g></g></g><g><g><g><path d="M589.953,804.909l-171.492,-0l-85.741,148.51l85.741,148.52l171.492,0l85.752,-148.52l-85.752,-148.51Z" style="fill:#fff;fill-opacity:0;fill-rule:nonzero;stroke:#000;stroke-width:4.17px;"/><path d="M589.953,804.909l-171.492,-0l-85.741,148.51l85.741,148.52l171.492,0l85.752,-148.52l-85.752,-148.51Z" style="fill:#fff;fill-opacity:0;fill-rule:nonzero;stroke:#000;stroke-width:0.77px;stroke-linejoin:miter;stroke-miterlimit:10;"/></g></g></g><g><g><g><path d="M846.875,656.394l-171.492,-0l-85.742,148.51l85.742,148.52l171.492,-0l85.752,-148.52l-85.752,-148.51Z" style="fill:#fff;fill-opacity:0;fill-rule:nonzero;stroke:#000;stroke-width:4.17px;"/><path d="M846.875,656.394l-171.492,-0l-85.742,148.51l85.742,148.52l171.492,-0l85.752,-148.52l-85.752,-148.51Z" style="fill:#fff;fill-opacity:0;fill-rule:nonzero;stroke:#000;stroke-width:0.77px;stroke-linejoin:miter;stroke-miterlimit:10;"/></g></g></g><g><g><g><path d="M1103.8,507.879l-171.492,-0l-85.742,148.51l85.742,148.52l171.492,-0l85.751,-148.52l-85.751,-148.51Z" style="fill:#fff;fill-opacity:0;fill-rule:nonzero;stroke:#000;stroke-width:4.17px;"/><path d="M1103.8,507.879l-171.492,-0l-85.742,148.51l85.742,148.52l171.492,-0l85.751,-148.52l-85.751,-148.51Z" style="fill:#fff;fill-opacity:0;fill-rule:nonzero;stroke:#000;stroke-width:0.77px;stroke-linejoin:miter;stroke-miterlimit:10;"/></g></g></g><g><g><g><path d="M331.4,953.424l-171.492,-0l-85.742,148.51l85.742,148.52l171.492,0l85.751,-148.52l-85.751,-148.51Z" style="fill:#fff;fill-opacity:0;fill-rule:nonzero;stroke:#000;stroke-width:4.17px;"/><path d="M331.4,953.424l-171.492,-0l-85.742,148.51l85.742,148.52l171.492,0l85.751,-148.52l-85.751,-148.51Z" style="fill:#fff;fill-opacity:0;fill-rule:nonzero;stroke:#000;stroke-width:0.77px;stroke-linejoin:miter;stroke-miterlimit:10;"/></g></g></g></g></svg>