<?xml version="1.0" encoding="utf-8"?>
<!-- Generator: Adobe Illustrator 24.0.0, SVG Export Plug-In . SVG Version: 6.00 Build 0)  -->
<svg version="1.1" id="Livello_1" xmlns="http://www.w3.org/2000/svg" xmlns:xlink="http://www.w3.org/1999/xlink" x="0px" y="0px"
	 viewBox="0 0 79.85 82.84" style="enable-background:new 0 0 79.85 82.84;" xml:space="preserve">
<style type="text/css">
	.st0{fill:#656B6E;}
</style>
<g>
	<path class="st0" d="M52.92,15.99c-1.81-0.32-6.12-0.43-7.96-0.35c-1.58,0.07-3.06,0.45-4.47,1.11c-1.6,0.75-2.87,1.9-3.82,3.37
		c-1.35,2.1-1.89,4.44-1.92,6.91c-0.02,1.96,0,3.92-0.01,5.88c0,0.36-0.03,0.72-0.05,1.17c-0.48,0.02-0.88,0.06-1.27,0.06
		c-1.72,0-3.44-0.01-5.17,0c-0.36,0-0.72,0.05-1.05,0.07c-0.26,1.05-0.23,7.98,0.06,8.86c2.17,0,4.39,0.01,6.61-0.01
		c0.68-0.01,0.83,0.09,0.87,0.78c0.01,0.17,0,0.34,0,0.51c0,6.92,0.01,13.85,0.01,20.77c0,0.36,0,0.72,0,1.18
		c3.08,0.03,6.03,0.03,9.07,0c0-0.49,0-0.86,0-1.22c0-6.38,0-12.77,0-19.15c0-0.71-0.01-1.42,0.01-2.13
		c0.01-0.24,0.13-0.48,0.18-0.62c0.91-0.06,1.68-0.13,2.44-0.14c1.39-0.02,2.77,0,4.15-0.01c0.94-0.01,0.99-0.08,1.11-1.03
		c0.17-1.4,0.38-2.8,0.55-4.2c0.14-1.16,0.26-2.32,0.39-3.59c-0.43-0.02-0.79-0.06-1.15-0.06c-2.16-0.01-4.32,0-6.48-0.01
		c-0.36,0-0.72-0.04-1.02-0.05c-0.09-0.16-0.15-0.22-0.15-0.28c-0.01-2.13-0.15-4.26,0-6.38c0.17-2.33,1.12-3.12,2.93-3.42
		c1.44-0.24,2.94-0.21,4.41-0.2c0.58,0.01,1.11-0.02,1.7-0.16V15.99z M76.76,40.94c0.16,20.32-16.5,36.67-36.21,36.96
		C19.71,78.21,2.93,61.2,3.06,40.88c0.06-10.09,3.63-18.79,10.58-25.9C20.65,7.81,29.41,4.01,39.51,3.94
		C49.59,3.88,58.4,7.42,65.62,14.48C73.01,21.7,76.6,30.63,76.76,40.94"/>
</g>
</svg>
