<?xml version="1.0" encoding="utf-8"?>
<!-- Generator: Adobe Illustrator 24.0.0, SVG Export Plug-In . SVG Version: 6.00 Build 0)  -->
<svg version="1.1" id="Livello_1" xmlns="http://www.w3.org/2000/svg" xmlns:xlink="http://www.w3.org/1999/xlink" x="0px" y="0px"
	 viewBox="0 0 68.09 65.32" style="enable-background:new 0 0 68.09 65.32;" xml:space="preserve">
<style type="text/css">
	.st0{fill:#FAF0B5;}
	.st1{fill:none;stroke:#FAF0B5;stroke-width:3.246;stroke-miterlimit:10;}
</style>
<g>
	<path class="st0" d="M34.1,42.83c-0.34-0.4-0.49-0.6-0.68-0.79c-7.16-7.17-14.33-14.34-21.5-21.51c-0.79-0.79-1.44-0.91-2-0.38
		c-0.58,0.56-0.47,1.21,0.36,2.04c7.52,7.52,15.03,15.04,22.55,22.55c0.98,0.98,1.44,0.99,2.42,0.01
		c7.53-7.53,15.06-15.07,22.59-22.6c0.78-0.78,0.89-1.44,0.33-2c-0.56-0.55-1.2-0.43-2,0.36c-7.18,7.18-14.36,14.37-21.54,21.56
		C34.45,42.26,34.33,42.5,34.1,42.83"/>
	<path class="st1" d="M34.1,42.83c-0.34-0.4-0.49-0.6-0.68-0.79c-7.16-7.17-14.33-14.34-21.5-21.51c-0.79-0.79-1.44-0.91-2-0.38
		c-0.58,0.56-0.47,1.21,0.36,2.04c7.52,7.52,15.03,15.04,22.55,22.55c0.98,0.98,1.44,0.99,2.42,0.01
		c7.53-7.53,15.06-15.07,22.59-22.6c0.78-0.78,0.89-1.44,0.33-2c-0.56-0.55-1.2-0.43-2,0.36c-7.18,7.18-14.36,14.37-21.54,21.56
		C34.45,42.26,34.33,42.5,34.1,42.83z"/>
</g>
</svg>
