<?xml version="1.0" encoding="utf-8"?>
<!-- Generator: Adobe Illustrator 24.0.0, SVG Export Plug-In . SVG Version: 6.00 Build 0)  -->
<svg version="1.1" id="Livello_1" xmlns="http://www.w3.org/2000/svg" xmlns:xlink="http://www.w3.org/1999/xlink" x="0px" y="0px"
	 viewBox="0 0 267.91 189.55" style="enable-background:new 0 0 267.91 189.55;" xml:space="preserve">
<style type="text/css">
	.st0{clip-path:url(#SVGID_2_);fill:none;stroke:#FAF0B5;stroke-miterlimit:10;}
</style>
<g>
	<defs>
		<rect id="SVGID_1_" x="7.78" y="3.59" width="252.8" height="182.2"/>
	</defs>
	<clipPath id="SVGID_2_">
		<use xlink:href="#SVGID_1_"  style="overflow:visible;"/>
	</clipPath>
	<path class="st0" d="M203.43,151.5c4.51-2.59,8.94-4.95,13.18-7.59c14.24-8.86,26.32-19.7,34.57-33.81
		c8.88-15.18,11.49-31.09,6.17-47.65c-4.71-14.65-14.57-25.9-27.49-34.96c-15.01-10.53-32.11-16.8-50.5-20.27
		c-26.27-4.96-52.48-3.94-78.58,2.24c-19.95,4.72-38.47,12.41-55,24.05c-13.28,9.34-24.22,20.53-31.2,34.73
		c-5.94,12.09-7.84,24.62-5,37.59c3.25,14.85,11.88,26.66,23.97,36.41c13.68,11.04,29.71,18.03,47.2,22.16
		c36.26,8.57,71.98,5.87,107.17-6.49c0.82-0.29,2.1-0.21,2.82,0.21c8.36,4.88,16.65,9.85,24.95,14.8
		c6.42,3.83,12.83,7.67,19.27,11.47c0.6,0.35,1.33,0.52,2.01,0.77c0.12-0.22,0.24-0.44,0.37-0.66
		C226.01,173.49,214.7,162.47,203.43,151.5z"/>
</g>
</svg>
