<?xml version="1.0" encoding="utf-8"?>
<!-- Generator: Adobe Illustrator 24.0.0, SVG Export Plug-In . SVG Version: 6.00 Build 0)  -->
<svg version="1.1" id="Livello_1" xmlns="http://www.w3.org/2000/svg" xmlns:xlink="http://www.w3.org/1999/xlink" x="0px" y="0px"
	 viewBox="0 0 267.91 204.81" style="enable-background:new 0 0 267.91 204.81;" xml:space="preserve">
<style type="text/css">
	.st0{fill:#F3DA4C;}
</style>
<g>
	<path class="st0" d="M237.82,97.59l0.09,0.24c-0.84-2.13-1.26-4.59-2.6-6.35c-33.41-44.08-78.49-62.56-132.63-56.83
		c-38.45,4.07-53.32,35.39-34.77,69.47c5.01,9.2,11.77,17.44,17.94,26.42c-6.88,1.49-13.67,2.96-21.31,4.61
		c2.96,3.04,4.78,4.92,6.95,7.15c-11.63,2.99-22.64,5.83-35.99,9.26c5.09,3.34,8.08,5.31,11.85,7.78
		c-12.95,3.56-24.84,6.84-36.73,10.11c0.28,1.34,0.56,2.69,0.84,4.03c20.01-2.73,40.03-5.46,62.84-8.58
		c-2.96-4.04-4.71-6.46-5.69-7.79c8.86-8.3,24.14,2.44,29.42-13.36c3.96,1.85,8.68,3.36,12.64,6.01
		c19.15,12.82,40.37,19.9,63.02,22.5c19.28,2.21,38.44,1.17,55.85-8.79C253.35,149.83,256.47,118.38,237.82,97.59"/>
	<path d="M240.02,98.57c18.84,21,15.69,52.76-8.37,66.54c-17.59,10.07-36.93,11.12-56.41,8.88c-22.88-2.62-44.31-9.77-63.65-22.72
		c-4-2.68-8.76-4.21-12.76-6.07c-5.33,15.96-20.77,5.11-29.72,13.49c0.99,1.35,2.76,3.79,5.75,7.87
		c-23.03,3.14-43.25,5.9-63.46,8.66c-0.28-1.36-0.56-2.71-0.85-4.07c12.01-3.3,24.02-6.61,37.1-10.21
		c-3.8-2.49-6.82-4.48-11.96-7.85c13.48-3.47,24.6-6.33,36.35-9.35c-2.19-2.26-4.03-4.15-7.02-7.22c7.72-1.67,14.58-3.15,21.53-4.66
		c-6.23-9.08-13.06-17.4-18.12-26.69C49.68,70.75,64.7,39.11,103.53,35c54.69-5.79,100.21,12.88,133.96,57.39
		c1.35,1.78,1.77,4.26,2.62,6.42c-2.12-2.11-4.46-4.03-6.32-6.35c-32.18-40.21-74.25-58.29-125.29-54.93
		c-36.68,2.41-54.65,31.12-39.33,62.13c4.17,8.43,10.37,15.87,15.75,23.69c2.35,3.41,4.99,6.62,8.13,10.76
		c-7.53,1.44-13.68,2.62-20.44,3.92c2.96,2.6,5.12,4.49,8.29,7.27c-12.33,3.09-23.29,5.83-34.25,8.58c0.02,0.68,0.03,1.37,0.05,2.05
		c3.67,1.71,7.33,3.42,11.98,5.59c-3.74,1.6-6.23,2.66-8.72,3.72c0.17,0.39,0.33,0.78,0.5,1.17c5.78-0.81,11.55-1.62,19.22-2.7
		c-4.47-3.45-7.14-5.51-11.35-8.75c12.84-1.95,23.79-3.61,35.14-5.34c-1.51-3.07-2.61-5.32-3.72-7.57c0.41-0.74,0.82-1.48,1.23-2.23
		c6.45,2.18,13.1,3.9,19.31,6.62c15.4,6.72,30.1,15.42,45.99,20.5c22.33,7.14,45.48,7.51,67.77-1.49
		c21.29-8.6,30.18-30.39,21.79-51.78C243.88,108.64,241.96,103.6,240.02,98.57"/>
</g>
</svg>
