<?xml version="1.0" encoding="utf-8"?>
<!-- Generator: Adobe Illustrator 24.0.0, SVG Export Plug-In . SVG Version: 6.00 Build 0)  -->
<svg version="1.1" id="Livello_1" xmlns="http://www.w3.org/2000/svg" xmlns:xlink="http://www.w3.org/1999/xlink" x="0px" y="0px"
	 viewBox="0 0 267.9 189.6" style="enable-background:new 0 0 267.9 189.6;" xml:space="preserve">
<style type="text/css">
	.st0{clip-path:url(#SVGID_2_);fill:#FFFFFF;}
	.st1{fill:#90969A;}
</style>
<g>
	<defs>
		<rect id="SVGID_1_" x="-50.9" y="-2.7" width="366.8" height="218.3"/>
	</defs>
	<clipPath id="SVGID_2_">
		<use xlink:href="#SVGID_1_"  style="overflow:visible;"/>
	</clipPath>
	<path class="st0" d="M205.5,132.3c4.2-2.8,8.3-5.5,12.2-8.3c13.1-9.5,23.8-20.2,30.4-32.9c7.1-13.6,8.1-26.6,1.1-38.8
		c-6.1-10.7-17-17.9-30.6-22.8c-15.8-5.7-33.3-7.6-51.7-7.1c-26.3,0.7-52,6.2-76.9,15.7C70.9,45.5,53.5,54.9,38.5,67
		c-12.1,9.7-21.7,20.5-27,33c-4.6,10.6-5.2,20.9-1,30.6c4.7,11.2,14.4,19,27.3,24.5c14.6,6.3,31,9,48.7,9.2
		c36.5,0.4,71.3-8.1,104.6-24.1c0.8-0.4,2-0.5,2.8-0.3c8.7,2.4,17.4,4.8,26,7.3c6.7,1.9,13.4,3.8,20.1,5.7c0.6,0.2,1.4,0.2,2,0.3
		c0.1-0.2,0.2-0.4,0.3-0.6C230,145.7,217.7,139,205.5,132.3"/>
</g>
<g>
	<path class="st1" d="M52.5,92.3c-1.1,1.5-2.8,2.6-4.8,3.3c-5.3,1.6-10.3-1.3-11.8-6.2l0,0c-1.5-4.9,1-10.2,6.4-11.8
		c5.3-1.6,10.3,1.3,11.8,6.2l0,0c0.6,2,0.5,4-0.1,5.9l2.5,1.1l-1.3,2.8L52.5,92.3z M49.6,91l-3.8-1.6l1.3-2.8l3.8,1.8
		c0.3-1.1,0.3-2.3-0.1-3.5l0,0c-1-3.4-4.4-5.4-7.8-4.4c-3.5,1.1-5,4.6-4,7.9l0,0c1,3.4,4.4,5.4,7.8,4.4C48.1,92.4,49,91.8,49.6,91z"
		/>
	<path class="st1" d="M57.5,87L55,78.7l3-0.9l2.3,7.5c0.6,2,2,2.9,3.8,2.3c1.7-0.5,2.6-2.1,2-4.2L63.8,76l3-0.9l4,13.1l-3,0.9
		l-0.6-2c-0.5,1.5-1.4,2.9-3.4,3.6C60.8,91.5,58.5,90.1,57.5,87z"/>
	<path class="st1" d="M81.6,84.9l-0.5-1.6c-0.6,1.3-1.7,2.6-3.7,3.2c-2.5,0.8-5.1,0-5.9-2.6l0,0c-0.9-2.9,0.9-5,4-5.9
		c1.6-0.5,2.7-0.6,3.8-0.6L79.2,77c-0.6-1.8-2-2.5-4.1-1.8c-1.5,0.4-2.5,1.1-3.5,2L70.1,75c1.2-1.1,2.5-2,4.7-2.6
		c3.9-1.2,6.4,0.3,7.5,3.8l2.4,7.8L81.6,84.9z M80,79.4c-0.9-0.1-2,0-3.2,0.4c-1.9,0.6-2.8,1.7-2.4,3l0,0c0.4,1.2,1.7,1.6,3.1,1.2
		c2-0.6,3.1-2.2,2.6-3.8L80,79.4z"/>
	<path class="st1" d="M83.2,70l3-0.9l0.6,2c0.5-1.5,1.4-2.9,3.4-3.6c3-0.9,5.3,0.6,6.2,3.6l2.6,8.4l-3,0.9L93.7,73
		c-0.6-2-2-2.9-3.8-2.3c-1.7,0.5-2.6,2.1-2,4.2l2.3,7.4l-3,0.9L83.2,70z"/>
	<path class="st1" d="M101.2,74.9L99,68l-1.7,0.5l-0.8-2.6l1.7-0.5l-1.1-3.6l3-0.9l1.1,3.6l3.5-1.1l0.8,2.6l-3.5,1.1l2,6.4
		c0.4,1.2,1.1,1.5,2.1,1.1c0.7-0.2,1.2-0.5,1.7-1l0.8,2.5c-0.6,0.7-1.4,1.2-2.5,1.5C103.9,78.3,102,77.8,101.2,74.9z"/>
	<path class="st1" d="M107.8,69.8L107.8,69.8c-1.2-3.8,0.9-7.8,4.9-9.1c4-1.2,7.9,0.9,9.1,4.7l0,0.1c1.1,3.7-0.9,7.8-4.9,9
		C112.8,75.7,108.9,73.5,107.8,69.8z M118.8,66.4L118.8,66.4c-0.7-2.4-3-3.8-5.3-3c-2.4,0.7-3.4,3.1-2.7,5.4l0,0
		c0.7,2.3,3,3.7,5.3,3C118.5,71.1,119.5,68.7,118.8,66.4z"/>
	<path class="st1" d="M131.9,65.5l-2.1-6.9l-1.7,0.5l-0.8-2.6l1.7-0.5l-1.1-3.6l3-0.9l1.1,3.6l3.5-1.1l0.8,2.6l-3.5,1.1l2,6.4
		c0.4,1.2,1.1,1.5,2.1,1.1c0.7-0.2,1.2-0.5,1.7-1l0.8,2.5c-0.6,0.7-1.4,1.2-2.5,1.5C134.6,68.9,132.7,68.4,131.9,65.5z"/>
	<path class="st1" d="M138.5,60.4L138.5,60.4c-1.2-3.8,0.6-7.7,4.3-8.8c4.2-1.3,7.3,1.4,8.5,5.1c0.1,0.3,0.1,0.6,0.2,0.9l-9.6,2.9
		c1,2,2.9,2.8,4.8,2.2c1.5-0.4,2.3-1.3,3.1-2.7l2.2,1c-0.8,1.9-2.2,3.4-4.6,4.1C143.5,66.3,139.7,64.4,138.5,60.4z M147.9,56.4
		c-0.8-1.9-2.4-3-4.4-2.4c-1.8,0.6-2.7,2.4-2.3,4.5L147.9,56.4z"/>
	<path class="st1" d="M151.2,49.2l3-0.9l0.6,2c0.5-1.4,1.3-2.9,3.3-3.5c1.9-0.6,3.5-0.1,4.6,1.1c0.6-1.7,1.8-3.1,3.7-3.7
		c2.9-0.9,5.2,0.4,6.1,3.6l2.6,8.4l-3,0.9l-2.3-7.5c-0.6-2.1-2-2.9-3.6-2.4c-1.6,0.5-2.5,2-1.8,4.1l2.3,7.4l-3,0.9l-2.3-7.5
		c-0.6-2-2-2.9-3.6-2.4c-1.7,0.5-2.4,2.1-1.8,4.1l2.3,7.4l-3,0.9L151.2,49.2z"/>
	<path class="st1" d="M173.9,42.3l3-0.9l0.7,2.2c0.6-1.7,1.6-3.2,3.7-3.8c3.1-1,6.9,0.6,8.2,4.9l0,0c1.3,4.4-0.9,7.7-4,8.7
		c-2.2,0.7-3.9,0-5.2-1l1.8,6l-3,0.9L173.9,42.3z M186.4,45.7L186.4,45.7c-0.8-2.6-3-3.7-5.1-3.1c-2,0.6-3.3,2.9-2.5,5.4l0,0
		c0.8,2.5,3.1,3.7,5.1,3C186,50.4,187.2,48.3,186.4,45.7z"/>
	<path class="st1" d="M190.9,44.4L190.9,44.4c-1.2-3.8,0.9-7.8,4.9-9.1c4-1.2,7.9,0.9,9.1,4.7l0,0c1.1,3.7-0.9,7.8-4.9,9
		C195.9,50.3,192,48.1,190.9,44.4z M201.8,41L201.8,41c-0.7-2.4-3-3.8-5.3-3c-2.4,0.7-3.4,3.1-2.7,5.4l0,0.1c0.7,2.3,3,3.7,5.3,3
		C201.6,45.7,202.5,43.3,201.8,41z"/>
</g>
<g>
	<path class="st1" d="M34.9,107.8l3-0.9l0.7,2.2c0.6-1.7,1.6-3.2,3.7-3.8c3.1-1,6.9,0.6,8.2,4.9l0,0.1c1.3,4.4-0.9,7.7-4,8.7
		c-2.2,0.7-3.9,0-5.2-1l1.8,6l-3,0.9L34.9,107.8z M47.5,111.2L47.5,111.2c-0.8-2.6-3-3.7-5.1-3.1s-3.3,2.9-2.5,5.4l0,0
		c0.8,2.5,3.1,3.7,5.1,3C47.1,115.9,48.3,113.8,47.5,111.2z"/>
	<path class="st1" d="M53,111.4l-2.6-8.4l3-0.9l2.3,7.5c0.6,2,2,2.9,3.8,2.3c1.7-0.5,2.6-2.1,2-4.2l-2.3-7.4l3-0.9l4,13.1l-3,0.9
		l-0.6-2c-0.5,1.5-1.4,2.9-3.4,3.6C56.3,115.9,53.9,114.5,53,111.4z"/>
	<path class="st1" d="M66.4,105.5L66.4,105.5c-1.2-3.8,0.9-7.8,4.9-9.1c4-1.2,7.9,0.9,9.1,4.7l0,0.1c1.1,3.7-0.9,7.8-4.9,9
		C71.4,111.3,67.5,109.2,66.4,105.5z M77.3,102.1L77.3,102.1c-0.7-2.4-3-3.8-5.3-3c-2.4,0.7-3.4,3.1-2.7,5.4l0,0
		c0.7,2.3,3,3.7,5.3,3C77.1,106.7,78,104.4,77.3,102.1z"/>
	<path class="st1" d="M78.9,89l3.2-1l0.9,2.9l-3.2,1L78.9,89z M80.6,93.8l3-0.9l4,13.1l-3,0.9L80.6,93.8z"/>
	<path class="st1" d="M95.4,101.8l0.7-2.5c1.7,0.6,3.5,0.7,4.8,0.3c1.3-0.4,1.9-1.2,1.6-2l0-0.1c-0.3-1-1.8-0.9-3.5-0.9
		c-2.1,0-4.5-0.1-5.3-2.6l0,0c-0.8-2.5,0.8-4.6,3.5-5.4c1.6-0.5,3.6-0.5,5.3,0l-0.5,2.5c-1.5-0.4-3-0.4-4.1-0.1
		c-1.2,0.4-1.7,1.1-1.4,1.9l0,0c0.3,0.9,1.8,0.9,3.5,0.9c2.1,0,4.5,0.2,5.2,2.6l0,0c0.8,2.8-0.9,4.8-3.6,5.6
		C99.7,102.6,97.5,102.6,95.4,101.8z"/>
	<path class="st1" d="M107.7,95.9l-2.1-6.9l-1.7,0.5l-0.8-2.6l1.7-0.5l-1.1-3.6l3-0.9l1.1,3.6l3.5-1.1l0.8,2.6l-3.5,1.1l2,6.4
		c0.4,1.2,1.1,1.5,2.1,1.1c0.7-0.2,1.2-0.5,1.7-1l0.8,2.5c-0.6,0.6-1.4,1.2-2.5,1.5C110.5,99.3,108.6,98.8,107.7,95.9z"/>
	<path class="st1" d="M125.5,94.5l-0.5-1.6c-0.6,1.3-1.7,2.6-3.7,3.2c-2.5,0.8-5.1,0-5.9-2.6l0,0c-0.9-2.9,0.9-5,4-5.9
		c1.6-0.5,2.7-0.6,3.8-0.6l-0.1-0.2c-0.6-1.8-2-2.5-4.1-1.8c-1.5,0.4-2.5,1.1-3.5,2l-1.6-2.2c1.2-1.1,2.5-2,4.7-2.6
		c3.9-1.2,6.4,0.3,7.5,3.8l2.4,7.8L125.5,94.5z M123.9,89c-0.9-0.1-2,0-3.2,0.4c-1.9,0.6-2.8,1.7-2.4,3l0,0c0.4,1.2,1.7,1.6,3.1,1.2
		c2-0.6,3.1-2.2,2.6-3.8L123.9,89z"/>
	<path class="st1" d="M127.1,79.6l3-0.9l0.9,3c0.2-2.2,1.3-4,3.7-4.6l1,3.2l-0.2,0.1c-2.6,0.8-4,3.1-2.9,6.6l1.5,5l-3,0.9
		L127.1,79.6z"/>
	<path class="st1" d="M137.2,83.8L137.2,83.8c-1.2-3.8,0.6-7.7,4.3-8.8c4.2-1.3,7.3,1.4,8.5,5.1c0.1,0.3,0.1,0.6,0.2,0.9l-9.6,3
		c1,2,2.9,2.8,4.8,2.2c1.5-0.4,2.3-1.3,3.1-2.7l2.2,1c-0.8,1.9-2.2,3.4-4.6,4.1C142.2,89.7,138.4,87.8,137.2,83.8z M146.6,79.8
		c-0.8-1.9-2.4-3-4.4-2.4c-1.8,0.6-2.7,2.4-2.3,4.5L146.6,79.8z"/>
	<path class="st1" d="M157.7,77.5L157.7,77.5c-1.2-3.8,0.8-7.8,4.7-9c2.5-0.8,4.3-0.3,5.9,0.7l-1.2,2.6c-1.2-0.7-2.4-1.1-3.9-0.6
		c-2.2,0.7-3.2,3-2.5,5.3l0,0c0.7,2.3,2.9,3.7,5.2,3c1.4-0.4,2.3-1.4,2.9-2.7l2.4,1.2c-0.9,1.8-2.1,3.3-4.6,4.1
		C162.7,83.4,158.9,81.2,157.7,77.5z"/>
	<path class="st1" d="M170.6,73.6L170.6,73.6c-1.2-3.8,0.9-7.8,4.9-9.1s7.9,0.9,9.1,4.7l0,0c1.1,3.7-0.9,7.8-4.9,9
		C175.6,79.5,171.7,77.3,170.6,73.6z M181.5,70.2L181.5,70.2c-0.7-2.4-3-3.8-5.3-3c-2.4,0.7-3.4,3.1-2.7,5.4l0,0.1
		c0.7,2.3,3,3.7,5.3,3C181.3,74.9,182.2,72.5,181.5,70.2z"/>
	<path class="st1" d="M184.6,62l3-0.9l0.6,2c0.5-1.5,1.4-2.9,3.4-3.6c3-0.9,5.3,0.6,6.2,3.6l2.6,8.4l-3,0.9l-2.3-7.5
		c-0.6-2-2-2.9-3.8-2.3c-1.7,0.5-2.6,2.1-2,4.2l2.3,7.4l-3,0.9L184.6,62z"/>
	<path class="st1" d="M204.1,50.7l3.2-1l0.9,2.9l-3.2,1L204.1,50.7z M205.7,55.6l3-0.9l4,13.1l-3,0.9L205.7,55.6z"/>
	<path class="st1" d="M210.3,48.7l3-0.9l5.5,18.2l-3,0.9L210.3,48.7z"/>
</g>
<g>
	<path class="st1" d="M56.1,134.7l-2.1-6.9l-1.7,0.5l-0.8-2.6l1.7-0.5l-1.1-3.6l3-0.9l1.1,3.6l3.5-1.1l0.8,2.6l-3.5,1.1l2,6.4
		c0.4,1.2,1.1,1.5,2.1,1.1c0.7-0.2,1.2-0.5,1.7-1l0.8,2.5c-0.6,0.7-1.4,1.2-2.5,1.5C58.8,138.1,57,137.6,56.1,134.7z"/>
	<path class="st1" d="M64.2,131l-2.6-8.4l3-0.9l2.3,7.5c0.6,2,2,2.9,3.8,2.3c1.7-0.5,2.6-2.1,2-4.2l-2.3-7.4l3-0.9l4,13.1l-3,0.9
		l-0.6-2c-0.5,1.5-1.4,2.9-3.4,3.6C67.4,135.5,65.1,134,64.2,131z"/>
	<path class="st1" d="M77.5,125L77.5,125c-1.2-3.8,0.9-7.8,4.9-9.1s7.9,0.9,9.1,4.7l0,0.1c1.1,3.7-0.9,7.7-4.9,9
		C82.5,130.9,78.7,128.8,77.5,125z M88.5,121.7L88.5,121.7c-0.7-2.4-3-3.8-5.3-3c-2.4,0.7-3.4,3.1-2.7,5.4l0,0.1
		c0.7,2.3,3,3.7,5.3,3C88.2,126.3,89.2,123.9,88.5,121.7z"/>
	<path class="st1" d="M98.1,111.5l3-0.9l0.7,2.2c0.6-1.7,1.6-3.2,3.7-3.8c3.1-1,6.9,0.6,8.2,4.9l0,0.1c1.3,4.4-0.9,7.7-4,8.7
		c-2.2,0.7-3.9,0-5.2-1l1.8,6l-3,0.9L98.1,111.5z M110.6,114.9L110.6,114.9c-0.8-2.6-3-3.7-5.1-3.1c-2,0.6-3.3,2.9-2.5,5.4l0,0.1
		c0.8,2.5,3.1,3.7,5.1,3C110.2,119.6,111.4,117.5,110.6,114.9z"/>
	<path class="st1" d="M115.1,113.6L115.1,113.6c-1.2-3.8,0.8-7.8,4.7-9c2.5-0.8,4.3-0.3,5.9,0.7l-1.2,2.6c-1.2-0.7-2.4-1.1-3.9-0.6
		c-2.2,0.7-3.2,3-2.5,5.3l0,0.1c0.7,2.3,2.9,3.7,5.2,3c1.4-0.4,2.3-1.4,2.9-2.7l2.4,1.2c-0.9,1.8-2.1,3.3-4.6,4.1
		C120,119.5,116.2,117.3,115.1,113.6z"/>
	<path class="st1" d="M134.7,107.5L134.7,107.5c-1.2-3.8,0.9-7.8,4.9-9.1c4-1.2,7.9,0.9,9.1,4.7l0,0.1c1.1,3.7-0.9,7.7-4.9,9
		C139.8,113.4,135.9,111.3,134.7,107.5z M145.7,104.2L145.7,104.2c-0.7-2.4-3-3.8-5.3-3c-2.4,0.7-3.4,3.1-2.7,5.4l0,0.1
		c0.7,2.3,3,3.7,5.3,3C145.5,108.8,146.4,106.4,145.7,104.2z"/>
	<path class="st1" d="M153.9,89.1l3.2-1L158,91l-3.2,1L153.9,89.1z M155.5,93.9l3-0.9l4,13.1l-3,0.9L155.5,93.9z"/>
	<path class="st1" d="M160,87.1l3-0.9l5.5,18.2l-3,0.9L160,87.1z"/>
	<path class="st1" d="M177.6,97.6l-2.1-6.9l-1.7,0.5l-0.8-2.6l1.7-0.5l-1.1-3.6l3-0.9l1.1,3.6l3.5-1.1l0.8,2.6l-3.5,1.1l2,6.4
		c0.4,1.2,1.1,1.5,2.1,1.1c0.7-0.2,1.2-0.5,1.7-1l0.8,2.5c-0.6,0.6-1.4,1.2-2.5,1.5C180.3,101,178.4,100.5,177.6,97.6z"/>
	<path class="st1" d="M185.7,93.8l-2.6-8.4l3-0.9l2.3,7.5c0.6,2,2,2.9,3.8,2.3c1.7-0.5,2.6-2.1,2-4.2l-2.3-7.4l3-0.9l4,13.1l-3,0.9
		l-0.6-2c-0.5,1.5-1.4,2.9-3.4,3.6C188.9,98.4,186.6,96.9,185.7,93.8z"/>
	<path class="st1" d="M199,87.9L199,87.9c-1.2-3.8,0.9-7.8,4.9-9.1s7.9,0.9,9.1,4.7l0,0.1c1.1,3.7-0.9,7.7-4.9,9
		C204.1,93.8,200.2,91.6,199,87.9z M210,84.5L210,84.5c-0.7-2.4-3-3.8-5.3-3c-2.4,0.7-3.4,3.1-2.7,5.4l0,0.1c0.7,2.3,3,3.7,5.3,3
		C209.7,89.2,210.7,86.8,210,84.5z"/>
</g>
<g>
	<path class="st1" d="M62.5,157.9l0.7-2.4c1.7,0.6,3.5,0.7,4.8,0.3c1.3-0.4,1.9-1.2,1.6-2l0-0.1c-0.3-1-1.8-0.9-3.5-0.9
		c-2.1,0-4.5-0.1-5.3-2.6l0,0c-0.8-2.5,0.8-4.6,3.5-5.4c1.6-0.5,3.6-0.5,5.3,0l-0.5,2.5c-1.5-0.4-3-0.4-4.1-0.1
		c-1.2,0.4-1.7,1.1-1.4,1.9l0,0c0.3,0.9,1.8,0.9,3.5,0.9c2.1,0,4.5,0.2,5.2,2.6l0,0c0.8,2.8-0.9,4.8-3.6,5.6
		C66.8,158.7,64.5,158.7,62.5,157.9z"/>
	<path class="st1" d="M72.8,149.5L72.8,149.5c-1.2-3.8,0.6-7.7,4.3-8.8c4.2-1.3,7.3,1.4,8.4,5.1c0.1,0.3,0.1,0.6,0.2,0.9l-9.6,2.9
		c1,2,2.9,2.8,4.8,2.2c1.5-0.4,2.3-1.3,3.1-2.7l2.2,1c-0.8,1.9-2.2,3.4-4.6,4.1C77.8,155.4,74,153.5,72.8,149.5z M82.2,145.5
		c-0.8-1.9-2.4-3-4.4-2.4c-1.8,0.6-2.7,2.4-2.3,4.5L82.2,145.5z"/>
	<path class="st1" d="M85.5,138.3l3-0.9l0.9,3c0.2-2.2,1.3-4,3.7-4.6l1,3.2l-0.2,0.1c-2.6,0.8-4,3.1-2.9,6.6l1.5,5l-3,0.9
		L85.5,138.3z"/>
	<path class="st1" d="M93.6,135.9l3.2-1l6.5,8.6l0.6-10.7l3.2-1l-1.3,14.9l-2.7,0.8L93.6,135.9z"/>
	<path class="st1" d="M109.2,138.3L109.2,138.3c-1.2-3.8,0.6-7.7,4.3-8.8c4.2-1.3,7.3,1.4,8.5,5.1c0.1,0.3,0.1,0.6,0.2,0.9l-9.6,2.9
		c1,2,2.9,2.8,4.8,2.2c1.5-0.4,2.3-1.3,3.1-2.7l2.2,1c-0.8,1.9-2.2,3.4-4.6,4.1C114.2,144.3,110.4,142.4,109.2,138.3z M118.6,134.4
		c-0.8-1.9-2.4-3-4.4-2.4c-1.8,0.6-2.7,2.4-2.4,4.5L118.6,134.4z"/>
	<path class="st1" d="M121.9,127.2l3-0.9l0.9,3c0.2-2.2,1.3-4,3.7-4.6l1,3.2l-0.2,0.1c-2.6,0.8-3.9,3.1-2.9,6.6l1.5,5l-3,0.9
		L121.9,127.2z"/>
	<path class="st1" d="M139.1,124.8l-1.7,0.5l-0.8-2.5l1.7-0.5l-0.3-0.9c-0.4-1.5-0.4-2.7,0.1-3.6c0.5-0.9,1.3-1.6,2.6-1.9
		c1-0.3,1.8-0.4,2.5-0.4l0.8,2.5c-0.7,0-1.2,0-1.9,0.2c-1.1,0.4-1.6,1.2-1.1,2.5l0.2,0.7l3.5-1.1l0.8,2.5l-3.4,1l3.2,10.5l-3,0.9
		L139.1,124.8z"/>
	<path class="st1" d="M147.1,126.7L147.1,126.7c-1.2-3.8,0.6-7.7,4.3-8.8c4.2-1.3,7.3,1.4,8.5,5.1c0.1,0.3,0.1,0.6,0.2,0.9l-9.6,2.9
		c1,2,2.9,2.8,4.8,2.2c1.5-0.4,2.3-1.3,3.1-2.7l2.2,1c-0.8,1.9-2.2,3.4-4.6,4.1C152.1,132.7,148.4,130.8,147.1,126.7z M156.5,122.8
		c-0.8-1.9-2.4-3-4.4-2.4c-1.8,0.6-2.7,2.4-2.3,4.5L156.5,122.8z"/>
	<path class="st1" d="M159.9,115.6l3-0.9l0.9,3c0.2-2.2,1.3-4,3.7-4.6l1,3.2l-0.2,0.1c-2.6,0.8-3.9,3.1-2.9,6.6l1.5,5l-3,0.9
		L159.9,115.6z"/>
	<path class="st1" d="M169.2,112.8l3-0.9l0.6,2c0.5-1.4,1.3-2.9,3.3-3.5c1.9-0.6,3.5-0.1,4.6,1.1c0.6-1.7,1.8-3.1,3.7-3.7
		c2.9-0.9,5.2,0.4,6.1,3.6l2.6,8.4l-3,0.9l-2.3-7.5c-0.6-2.1-1.9-2.9-3.6-2.4c-1.6,0.5-2.5,2-1.8,4.1l2.3,7.4l-3,0.9l-2.3-7.5
		c-0.6-2-2-2.9-3.6-2.4c-1.7,0.5-2.4,2.1-1.8,4.1l2.3,7.4l-3,0.9L169.2,112.8z"/>
	<path class="st1" d="M193.1,112.7L193.1,112.7c-1.2-3.8,0.9-7.8,4.9-9.1s7.9,0.9,9.1,4.7l0,0.1c1.1,3.7-0.9,7.8-4.9,9
		C198.1,118.6,194.2,116.4,193.1,112.7z M204.1,109.3L204.1,109.3c-0.7-2.4-3-3.8-5.3-3c-2.4,0.7-3.4,3.1-2.7,5.4l0,0.1
		c0.7,2.3,3,3.7,5.3,3C203.8,114,204.8,111.6,204.1,109.3z"/>
	<path class="st1" d="M209.8,104.3l0.1-0.2c3.1-1.1,4.3-2.6,3.8-4.2l0-0.1c-0.4-1.4-1.8-2-3.6-1.5c-1.6,0.5-2.6,1.6-3.5,3.2
		l-2.5-1.4c0.9-2.1,2.5-3.8,5.1-4.6c3.5-1.1,6.4,0.2,7.4,3.3l0,0c1,3.1-0.8,5.2-3.5,6.6l0.4,2.1l-2,0.6L209.8,104.3z M211.4,110.5
		l3.3-1l1,3.4l-3.3,1L211.4,110.5z"/>
</g>
</svg>
