<?xml version="1.0" encoding="utf-8"?>
<!-- Generator: Adobe Illustrator 24.0.0, SVG Export Plug-In . SVG Version: 6.00 Build 0)  -->
<svg version="1.1" id="Livello_1" xmlns="http://www.w3.org/2000/svg" xmlns:xlink="http://www.w3.org/1999/xlink" x="0px" y="0px"
	 viewBox="0 0 267.9 189.6" style="enable-background:new 0 0 267.9 189.6;" xml:space="preserve">
<style type="text/css">
	.st0{clip-path:url(#SVGID_2_);fill:none;stroke:#FAF0B6;stroke-miterlimit:10;}
	.st1{fill:#B9BDC0;}
</style>
<g>
	<defs>
		<rect id="SVGID_1_" x="-49" y="-10.3" width="370.3" height="216.7"/>
	</defs>
	<clipPath id="SVGID_2_">
		<use xlink:href="#SVGID_1_"  style="overflow:visible;"/>
	</clipPath>
	<path class="st0" d="M206.6,152.9c4.5-2.6,8.9-4.9,13.2-7.6c14.2-8.9,26.3-19.7,34.6-33.8c8.9-15.2,11.5-31.1,6.2-47.6
		c-4.7-14.7-14.6-25.9-27.5-35c-15-10.5-32.1-16.8-50.5-20.3c-26.3-5-52.5-3.9-78.6,2.2c-19.9,4.7-38.5,12.4-55,24
		c-13.3,9.3-24.2,20.5-31.2,34.7c-5.9,12.1-7.8,24.6-5,37.6c3.3,14.8,11.9,26.7,24,36.4c13.7,11,29.7,18,47.2,22.2
		c36.3,8.6,72,5.9,107.2-6.5c0.8-0.3,2.1-0.2,2.8,0.2c8.4,4.9,16.6,9.8,25,14.8c6.4,3.8,12.8,7.7,19.3,11.5c0.6,0.4,1.3,0.5,2,0.8
		c0.1-0.2,0.2-0.4,0.4-0.7C229.2,174.9,217.9,163.9,206.6,152.9z"/>
</g>
<g>
	<path class="st1" d="M37.3,63.1l1.5-2.6c2,1.1,3.9,1.7,6.1,1.2c1.9-0.4,3-1.5,2.7-2.9l0-0.1c-0.2-1.3-1.1-1.8-4.6-1.9
		c-4-0.2-6.3-0.9-7-4.2l0-0.1c-0.6-3.1,1.5-5.7,5.1-6.4c2.6-0.5,4.8-0.1,6.9,1L46.8,50c-1.8-0.9-3.6-1.2-5.2-0.9
		c-1.8,0.4-2.7,1.5-2.5,2.7l0,0.1c0.3,1.4,1.2,1.8,4.8,2c4,0.2,6.2,1.2,6.8,4.1l0,0.1c0.7,3.3-1.6,5.8-5.3,6.6
		C42.6,65.1,39.8,64.6,37.3,63.1z"/>
	<path class="st1" d="M51.9,56.1L51.9,56.1c-0.8-3.9,1.4-7.6,5.2-8.4c4.3-0.8,7.1,2.1,7.9,6c0.1,0.3,0.1,0.6,0.1,0.9l-9.9,1.9
		c0.8,2.1,2.6,3.1,4.5,2.7c1.5-0.3,2.5-1.1,3.3-2.3l2.1,1.3c-1,1.8-2.5,3.1-5,3.6C56.3,62.5,52.7,60.2,51.9,56.1z M61.7,53.1
		c-0.6-2-2.1-3.3-4.1-2.9c-1.9,0.4-2.9,2.1-2.8,4.2L61.7,53.1z"/>
	<path class="st1" d="M64.8,41.3l3.3-0.6l0.6,2.9l-3.3,0.6L64.8,41.3z M65.9,46.3l3.1-0.6l2.6,13.5l-3.1,0.6L65.9,46.3z"/>
	<path class="st1" d="M80.2,52.4l-1.7-8.6l3.1-0.6l1.5,7.7c0.4,2.1,1.7,3.1,3.5,2.7c1.8-0.3,2.8-1.8,2.4-3.9l-1.5-7.6l3.1-0.6
		L93.3,55l-3.1,0.6l-0.4-2.1c-0.6,1.4-1.7,2.8-3.7,3.2C83,57.3,80.9,55.6,80.2,52.4z"/>
	<path class="st1" d="M93.5,40.9l3.1-0.6l0.4,2.1c0.6-1.4,1.7-2.8,3.8-3.2c3-0.6,5.2,1.1,5.8,4.2l1.7,8.6l-3.1,0.6l-1.5-7.7
		c-0.4-2.1-1.7-3.1-3.5-2.7c-1.8,0.3-2.8,1.8-2.4,3.9l1.5,7.6l-3.1,0.6L93.5,40.9z"/>
	<path class="st1" d="M119.2,49.9l-0.3-1.7c-0.7,1.3-1.9,2.4-4,2.8c-2.6,0.5-5.1-0.5-5.6-3.2l0-0.1c-0.6-3,1.5-4.9,4.6-5.5
		c1.6-0.3,2.7-0.3,3.8-0.2l0-0.3c-0.4-1.9-1.7-2.7-3.9-2.2c-1.5,0.3-2.6,0.8-3.7,1.6l-1.3-2.3c1.4-1,2.7-1.7,4.9-2.1
		c4-0.8,6.3,0.9,7,4.5l1.6,8L119.2,49.9z M118.2,44.3c-0.9-0.2-2-0.2-3.2,0.1c-1.9,0.4-2.9,1.4-2.7,2.7l0,0.1c0.2,1.3,1.5,1.8,3,1.5
		c2-0.4,3.3-1.8,3-3.5L118.2,44.3z"/>
	<path class="st1" d="M129,34l3.1-0.6l0.4,2.2c0.7-1.6,1.9-3,4.1-3.4c3.2-0.6,6.8,1.3,7.6,5.8l0,0.1c0.9,4.5-1.7,7.6-4.9,8.2
		c-2.2,0.4-3.8-0.4-5-1.5l1.2,6.2l-3.1,0.6L129,34z M141.1,38.7L141.1,38.7c-0.5-2.7-2.6-4-4.7-3.6c-2.1,0.4-3.6,2.5-3.1,5.1l0,0.1
		c0.5,2.6,2.7,4,4.8,3.5C140.2,43.4,141.6,41.4,141.1,38.7z"/>
	<path class="st1" d="M144.2,25.9l3.3-0.6l0.6,2.9l-3.3,0.6L144.2,25.9z M145.3,30.9l3.1-0.6l2.6,13.5l-3.1,0.6L145.3,30.9z"/>
	<path class="st1" d="M152,36.6L152,36.6c-0.8-3.9,1.6-7.7,5.6-8.5c2.6-0.5,4.3,0.1,5.8,1.3l-1.5,2.4c-1.1-0.8-2.3-1.3-3.8-1
		c-2.2,0.4-3.5,2.7-3,5l0,0.1c0.5,2.4,2.5,4,4.9,3.6c1.5-0.3,2.4-1.2,3.2-2.4l2.2,1.5c-1,1.7-2.4,3.1-5,3.6
		C156.3,43,152.7,40.5,152,36.6z"/>
	<path class="st1" d="M165.1,34.1L165.1,34.1c-0.8-3.9,1.6-7.7,5.6-8.5c2.6-0.5,4.3,0.1,5.8,1.3l-1.5,2.4c-1.1-0.8-2.3-1.3-3.8-1
		c-2.2,0.4-3.5,2.7-3,5l0,0.1c0.5,2.4,2.5,4,4.9,3.6c1.5-0.3,2.4-1.2,3.2-2.4l2.2,1.5c-1,1.7-2.4,3.1-5,3.6
		C169.5,40.5,165.9,37.9,165.1,34.1z"/>
	<path class="st1" d="M178.3,31.5L178.3,31.5c-0.8-3.9,1.7-7.7,5.8-8.5s7.8,1.7,8.5,5.6l0,0.1c0.7,3.8-1.7,7.6-5.9,8.4
		C182.7,37.9,179.1,35.4,178.3,31.5z M189.6,29.3L189.6,29.3c-0.5-2.4-2.6-4.1-5-3.6c-2.5,0.5-3.7,2.7-3.2,5.1l0,0.1
		c0.5,2.3,2.6,4,5,3.5C188.8,33.9,190,31.7,189.6,29.3z"/>
	<path class="st1" d="M192.7,16.3l3.1-0.6l3.6,18.6l-3.1,0.6L192.7,16.3z"/>
	<path class="st1" d="M210.6,32.2l-0.3-1.7c-0.7,1.3-1.9,2.4-4,2.8c-2.6,0.5-5.1-0.5-5.6-3.2l0-0.1c-0.6-3,1.5-4.9,4.6-5.5
		c1.6-0.3,2.7-0.3,3.8-0.2l0-0.3c-0.4-1.9-1.7-2.7-3.9-2.2c-1.5,0.3-2.6,0.8-3.7,1.6l-1.3-2.3c1.4-1,2.7-1.7,4.9-2.1
		c4-0.8,6.3,0.9,7,4.5l1.6,8L210.6,32.2z M209.6,26.5c-0.9-0.2-2-0.2-3.2,0.1c-1.9,0.4-2.9,1.4-2.7,2.7l0,0.1c0.2,1.3,1.5,1.8,3,1.5
		c2-0.4,3.3-1.8,3-3.5L209.6,26.5z"/>
</g>
<g>
	<path class="st1" d="M47.8,85.2l-0.3-1.7c-0.7,1.3-1.9,2.4-4,2.8c-2.6,0.5-5.1-0.5-5.6-3.2l0-0.1c-0.6-3,1.5-4.9,4.6-5.5
		c1.6-0.3,2.7-0.3,3.8-0.2l0-0.3c-0.4-1.9-1.7-2.7-3.9-2.2c-1.5,0.3-2.6,0.8-3.7,1.6l-1.3-2.3c1.4-1,2.7-1.7,4.9-2.1
		c4-0.8,6.3,0.9,7,4.5l1.6,8L47.8,85.2z M46.8,79.5c-0.9-0.2-2-0.2-3.2,0.1c-1.9,0.4-2.9,1.4-2.7,2.7l0,0.1c0.2,1.3,1.5,1.8,3,1.5
		c2-0.4,3.3-1.8,3-3.5L46.8,79.5z"/>
	<path class="st1" d="M52.5,82.1l6.1-10.3l-7.5,1.5l-0.5-2.5L62,68.5l0.4,2.1l-6.1,10.3l7.8-1.5l0.5,2.5l-11.7,2.3L52.5,82.1z"/>
	<path class="st1" d="M63.3,63l3.3-0.6l0.6,2.9L63.9,66L63.3,63z M64.4,68l3.1-0.6l2.6,13.5L67,81.5L64.4,68z"/>
	<path class="st1" d="M71.1,73.7L71.1,73.7c-0.8-3.9,1.4-7.6,5.2-8.4c4.3-0.8,7.1,2.1,7.9,6c0.1,0.3,0.1,0.6,0.1,0.9l-9.9,1.9
		c0.8,2.1,2.6,3.1,4.5,2.7c1.5-0.3,2.5-1.1,3.3-2.3l2.1,1.3c-1,1.8-2.5,3.1-5,3.6C75.5,80.1,71.9,77.9,71.1,73.7z M80.9,70.8
		c-0.6-2-2.1-3.3-4.1-2.9c-1.9,0.4-2.9,2.1-2.8,4.2L80.9,70.8z"/>
	<path class="st1" d="M84.9,64l3.1-0.6l0.4,2.1c0.6-1.4,1.7-2.8,3.8-3.2c3-0.6,5.2,1.1,5.8,4.2l1.7,8.6l-3.1,0.6l-1.5-7.7
		c-0.4-2.1-1.7-3.1-3.5-2.7c-1.8,0.3-2.8,1.8-2.4,3.9l1.5,7.6l-3.1,0.6L84.9,64z"/>
	<path class="st1" d="M100.4,68L100.4,68c-0.9-4.5,1.7-7.6,4.9-8.3c2.2-0.4,3.8,0.4,5.1,1.5l-1.4-7.2l3.1-0.6l3.6,18.6l-3.1,0.6
		l-0.4-2.2c-0.7,1.6-1.9,3-4.1,3.4C104.8,74.4,101.3,72.5,100.4,68z M111.3,65.9L111.3,65.9c-0.5-2.7-2.7-4-4.8-3.6
		c-2.1,0.4-3.6,2.4-3,5.1l0,0.1c0.5,2.6,2.6,4,4.7,3.6C110.3,70.6,111.8,68.5,111.3,65.9z"/>
	<path class="st1" d="M126.7,69.9l-0.3-1.7c-0.7,1.3-1.9,2.4-4,2.8c-2.6,0.5-5.1-0.5-5.6-3.2l0-0.1c-0.6-3,1.5-4.9,4.6-5.5
		c1.6-0.3,2.7-0.3,3.8-0.2l0-0.3c-0.4-1.9-1.7-2.7-3.9-2.2c-1.5,0.3-2.6,0.8-3.7,1.6l-1.3-2.3c1.4-1,2.7-1.7,4.9-2.1
		c4-0.8,6.3,0.9,7,4.5l1.6,8L126.7,69.9z M125.7,64.2c-0.9-0.2-2-0.2-3.2,0.1c-1.9,0.4-2.9,1.4-2.7,2.7l0,0.1c0.2,1.3,1.5,1.8,3,1.5
		c2-0.4,3.3-1.8,3-3.5L125.7,64.2z"/>
	<path class="st1" d="M137.1,60.9L137.1,60.9c-0.8-3.9,1.4-7.6,5.2-8.4c4.3-0.8,7.1,2.1,7.9,6c0.1,0.3,0.1,0.6,0.1,0.9l-9.9,1.9
		c0.8,2.1,2.6,3.1,4.5,2.7c1.5-0.3,2.5-1.1,3.3-2.3l2.1,1.3c-1,1.8-2.5,3.1-5,3.6C141.4,67.3,137.9,65.1,137.1,60.9z M146.9,58
		c-0.6-2-2.1-3.3-4.1-2.9c-1.9,0.4-2.9,2.1-2.8,4.2L146.9,58z"/>
	<path class="st1" d="M157.6,49.9l3.1-0.6l0.4,2.2c0.7-1.6,1.9-3,4.1-3.4c3.2-0.6,6.8,1.3,7.6,5.8l0,0.1c0.9,4.5-1.7,7.6-4.9,8.2
		c-2.2,0.4-3.8-0.4-5-1.5l1.2,6.2l-3.1,0.6L157.6,49.9z M169.7,54.6L169.7,54.6c-0.5-2.7-2.6-4-4.7-3.6c-2.1,0.4-3.6,2.5-3.1,5.1
		l0,0.1c0.5,2.6,2.7,4,4.8,3.5C168.8,59.2,170.2,57.2,169.7,54.6z"/>
	<path class="st1" d="M174.3,53.7L174.3,53.7c-0.8-3.9,1.4-7.6,5.2-8.4c4.3-0.8,7.1,2.1,7.9,6c0.1,0.3,0.1,0.6,0.1,0.9l-9.9,1.9
		c0.8,2.1,2.6,3.1,4.5,2.7c1.5-0.3,2.5-1.1,3.3-2.3l2.1,1.3c-1,1.8-2.5,3.1-5,3.6C178.6,60.1,175.1,57.8,174.3,53.7z M184,50.8
		c-0.6-2-2.1-3.3-4.1-2.9c-1.9,0.4-2.9,2.1-2.8,4.2L184,50.8z"/>
	<path class="st1" d="M188.1,44l3.1-0.6l0.4,2.1c0.6-1.4,1.7-2.8,3.8-3.2c3-0.6,5.2,1.1,5.8,4.2l1.7,8.6l-3.1,0.6l-1.5-7.7
		c-0.4-2.1-1.7-3.1-3.5-2.7c-1.8,0.3-2.8,1.8-2.4,3.9l1.5,7.6l-3.1,0.6L188.1,44z"/>
	<path class="st1" d="M204.1,53l1-2.4c1.7,0.8,3.4,1.1,4.7,0.8c1.3-0.3,2-1,1.8-1.9l0-0.1c-0.2-1-1.7-1.1-3.4-1.3
		c-2.1-0.2-4.5-0.6-5-3.1l0-0.1c-0.5-2.6,1.3-4.5,4-5c1.7-0.3,3.6-0.1,5.2,0.6l-0.8,2.4c-1.5-0.5-2.9-0.8-4.1-0.5
		c-1.2,0.2-1.8,0.9-1.6,1.7l0,0.1c0.2,1,1.7,1.1,3.4,1.3c2.1,0.2,4.5,0.7,4.9,3.1l0,0.1c0.5,2.8-1.4,4.7-4.2,5.2
		C208.3,54.3,206,54,204.1,53z"/>
	<path class="st1" d="M213.7,33.8l3.3-0.6l0.6,2.9l-3.3,0.6L213.7,33.8z M214.8,38.8l3.1-0.6l2.6,13.5l-3.1,0.6L214.8,38.8z"/>
</g>
<g>
	<path class="st1" d="M81.1,93.2L81.1,93.2c-0.8-3.9,1.6-7.7,5.6-8.5c2.6-0.5,4.3,0.1,5.8,1.3L91,88.5c-1.1-0.8-2.3-1.3-3.8-1
		c-2.2,0.4-3.5,2.7-3,5l0,0.1c0.5,2.4,2.5,4,4.9,3.6c1.5-0.3,2.4-1.2,3.2-2.4l2.2,1.5c-1,1.7-2.4,3.1-5,3.6
		C85.4,99.6,81.8,97.1,81.1,93.2z"/>
	<path class="st1" d="M93.1,78.5l3.1-0.6l1.4,7.2c0.6-1.4,1.7-2.8,3.8-3.2c3-0.6,5.2,1.1,5.8,4.2l1.7,8.6l-3.1,0.6l-1.5-7.7
		c-0.4-2.1-1.7-3.1-3.5-2.7c-1.8,0.3-2.8,1.8-2.4,3.9l1.5,7.6l-3.1,0.6L93.1,78.5z"/>
	<path class="st1" d="M109.5,87.7L109.5,87.7c-0.8-3.9,1.4-7.6,5.2-8.3c4.3-0.8,7.1,2.1,7.9,6c0.1,0.3,0.1,0.6,0.1,0.9l-9.9,1.9
		c0.8,2.1,2.6,3.1,4.5,2.7c1.5-0.3,2.5-1.1,3.3-2.3l2.1,1.3c-1,1.8-2.5,3.1-5,3.6C113.9,94.1,110.3,91.8,109.5,87.7z M119.3,84.7
		c-0.6-2-2.1-3.3-4.1-2.9c-1.9,0.4-2.9,2.1-2.8,4.2L119.3,84.7z"/>
	<path class="st1" d="M129.2,71.5l3.1-0.6l3.6,18.6l-3.1,0.6L129.2,71.5z"/>
	<path class="st1" d="M135.6,77.1c1.5-0.6,2.1-1.5,1.7-2.8l-1.3,0.3l-0.7-3.5l3.4-0.7l0.6,3c0.6,2.8-0.6,4.3-3.1,5L135.6,77.1z"/>
	<path class="st1" d="M152.5,86.3l-0.3-1.7c-0.7,1.3-1.9,2.4-4,2.8c-2.6,0.5-5.1-0.5-5.6-3.2l0-0.1c-0.6-3,1.5-4.9,4.6-5.5
		c1.6-0.3,2.7-0.3,3.8-0.2l0-0.3c-0.4-1.9-1.7-2.7-3.9-2.2c-1.5,0.3-2.6,0.8-3.7,1.6l-1.3-2.3c1.4-1,2.7-1.7,4.9-2.1
		c4-0.8,6.3,0.9,7,4.5l1.6,8L152.5,86.3z M151.5,80.6c-0.9-0.2-2-0.2-3.2,0.1c-1.9,0.4-2.9,1.4-2.7,2.7l0,0.1c0.2,1.3,1.5,1.8,3,1.5
		c2-0.4,3.3-1.8,3-3.5L151.5,80.6z"/>
	<path class="st1" d="M154.8,66.5l3.1-0.6l3.6,18.6l-3.1,0.6L154.8,66.5z"/>
	<path class="st1" d="M164.4,80.1l-1.4-7.1l-1.7,0.3l-0.5-2.7l1.7-0.3l-0.7-3.7l3.1-0.6l0.7,3.7l3.6-0.7l0.5,2.7l-3.6,0.7l1.3,6.6
		c0.2,1.2,0.9,1.6,2,1.4c0.7-0.1,1.3-0.4,1.8-0.8l0.5,2.5c-0.7,0.6-1.5,1-2.6,1.2C166.8,83.7,165,83,164.4,80.1z"/>
	<path class="st1" d="M182.2,80.5l-0.3-1.7c-0.7,1.3-1.9,2.4-4,2.8c-2.6,0.5-5.1-0.5-5.6-3.2l0-0.1c-0.6-3,1.5-4.9,4.6-5.5
		c1.6-0.3,2.7-0.3,3.8-0.2l0-0.3c-0.4-1.9-1.7-2.7-3.9-2.2c-1.5,0.3-2.6,0.8-3.7,1.6l-1.3-2.3c1.4-1,2.7-1.7,4.9-2.1
		c4-0.8,6.3,0.9,7,4.5l1.6,8L182.2,80.5z M181.2,74.8c-0.9-0.2-2-0.2-3.2,0.1c-1.9,0.4-2.9,1.4-2.7,2.7l0,0.1c0.2,1.3,1.5,1.8,3,1.5
		c2-0.4,3.3-1.8,3-3.5L181.2,74.8z"/>
</g>
<path class="st1" d="M64.5,124.8l-0.3-1.7c-0.7,1.3-1.9,2.4-4,2.8c-2.6,0.5-5.1-0.5-5.6-3.2l0-0.1c-0.6-3,1.5-4.9,4.6-5.5
	c1.6-0.3,2.7-0.3,3.8-0.2l0-0.3c-0.4-1.9-1.7-2.7-3.9-2.2c-1.5,0.3-2.6,0.8-3.7,1.6l-1.3-2.3c1.4-1,2.7-1.7,4.9-2.1
	c4-0.8,6.3,0.9,7,4.5l1.6,8L64.5,124.8z M63.5,119.1c-0.9-0.2-2-0.2-3.2,0.1c-1.9,0.4-2.9,1.4-2.7,2.7l0,0.1c0.2,1.3,1.5,1.8,3,1.5
	c2-0.4,3.4-1.8,3-3.5L63.5,119.1z M68.8,112.7l-1.7,0.3l-0.5-2.6l1.7-0.3l-0.2-1c-0.3-1.5-0.1-2.7,0.4-3.6s1.5-1.4,2.8-1.7
	c1.1-0.2,1.8-0.2,2.6-0.1l0.5,2.6c-0.7-0.1-1.2-0.1-1.9,0c-1.2,0.2-1.7,1-1.4,2.4l0.1,0.7l3.6-0.7l0.5,2.6l-3.5,0.7l2.1,10.8
	l-3.1,0.6L68.8,112.7z M78.4,110.8l-1.7,0.3l-0.5-2.6l1.7-0.3l-0.2-1c-0.3-1.5-0.1-2.7,0.4-3.6s1.5-1.4,2.8-1.7
	c1.1-0.2,1.9-0.2,2.6-0.1l0.5,2.6c-0.7-0.1-1.2-0.1-1.9,0c-1.2,0.2-1.7,1-1.4,2.4l0.1,0.7l3.6-0.7l0.5,2.6l-3.5,0.7l2.1,10.8
	l-3.1,0.6L78.4,110.8z M85.9,101.4l3.3-0.6l0.6,2.9l-3.3,0.6L85.9,101.4z M86.9,106.4l3.1-0.6l2.6,13.5l-3.1,0.6L86.9,106.4z
	 M93.7,112.1L93.7,112.1c-0.9-4.5,1.7-7.6,4.9-8.3c2.2-0.4,3.8,0.4,5.1,1.5l-1.4-7.2l3.1-0.6l3.6,18.6l-3.1,0.6l-0.4-2.2
	c-0.7,1.6-1.9,3-4.1,3.4C98.1,118.5,94.5,116.6,93.7,112.1z M104.6,110L104.6,110c-0.5-2.7-2.7-4-4.8-3.6c-2.1,0.4-3.6,2.4-3,5.1
	l0,0.1c0.5,2.6,2.6,4,4.7,3.6C103.6,114.7,105.1,112.6,104.6,110z M120,114l-0.3-1.7c-0.7,1.3-1.9,2.4-4,2.8
	c-2.6,0.5-5.1-0.5-5.6-3.2l0-0.1c-0.6-3,1.5-4.9,4.6-5.5c1.6-0.3,2.7-0.3,3.8-0.2l0-0.3c-0.4-1.9-1.7-2.7-3.9-2.2
	c-1.5,0.3-2.6,0.8-3.7,1.6l-1.3-2.3c1.4-1,2.7-1.7,4.9-2.1c4-0.8,6.3,0.9,7,4.5l1.6,8L120,114z M119,108.3c-0.9-0.2-2-0.2-3.2,0.1
	c-1.9,0.4-2.9,1.4-2.7,2.7l0,0.1c0.2,1.3,1.5,1.8,3,1.5c2-0.4,3.4-1.8,3-3.5L119,108.3z M128.4,110.2l0.4,2.1l-3.1,0.6l-3.6-18.6
	l3.1-0.6l1.4,7.4c0.7-1.6,1.9-3,4.1-3.4c3.2-0.6,6.8,1.3,7.6,5.8l0,0.1c0.9,4.5-1.7,7.6-4.9,8.2
	C131.2,112.1,129.6,111.2,128.4,110.2z M135.2,104.1L135.2,104.1c-0.5-2.7-2.6-4-4.7-3.6s-3.6,2.5-3.1,5.1l0,0.1
	c0.5,2.6,2.7,4,4.8,3.6C134.3,108.7,135.7,106.7,135.2,104.1z M138.3,91.2l3.3-0.6l0.6,2.9l-3.3,0.6L138.3,91.2z M139.4,96.2
	l3.1-0.6l2.6,13.5l-3.1,0.6L139.4,96.2z M144.6,89.9l3.1-0.6l3.6,18.6l-3.1,0.6L144.6,89.9z M150.8,88.8l3.3-0.6l0.6,2.9l-3.3,0.6
	L150.8,88.8z M151.9,93.8l3.1-0.6l2.6,13.5l-3.1,0.6L151.9,93.8z M160.5,102.2l-1.4-7.1l-1.7,0.3l-0.5-2.7l1.7-0.3l-0.7-3.7l3.1-0.6
	l0.7,3.7l3.6-0.7l0.5,2.7l-3.6,0.7l1.3,6.6c0.2,1.2,0.9,1.6,2,1.4c0.7-0.1,1.3-0.4,1.8-0.8l0.5,2.5c-0.7,0.6-1.5,1-2.6,1.2
	C162.9,105.9,161.1,105.2,160.5,102.2z M167.9,85.9l2.6-1.8l3.5,3.7l-2.3,0.5L167.9,85.9z M178.3,102.6L178,101
	c-0.7,1.3-1.9,2.4-4,2.8c-2.6,0.5-5.1-0.5-5.6-3.2l0-0.1c-0.6-3,1.5-4.9,4.6-5.5c1.6-0.3,2.7-0.3,3.8-0.2l0-0.3
	c-0.4-1.9-1.7-2.7-3.9-2.2c-1.5,0.3-2.6,0.8-3.7,1.6l-1.3-2.3c1.4-1,2.7-1.7,4.9-2.1c4-0.8,6.3,0.9,7,4.5l1.6,8L178.3,102.6z
	 M177.3,97c-0.9-0.2-2-0.2-3.2,0.1c-1.9,0.4-2.9,1.4-2.7,2.7l0,0.1c0.2,1.3,1.5,1.8,3,1.5c2-0.4,3.4-1.8,3-3.5L177.3,97z
	 M189.2,98.7l1-2.4c1.7,0.8,3.4,1.1,4.7,0.8c1.3-0.3,2-1,1.8-1.9l0-0.1c-0.2-1-1.7-1.1-3.4-1.3c-2.1-0.2-4.5-0.6-5-3.1l0-0.1
	c-0.5-2.6,1.3-4.5,4-5c1.7-0.3,3.6-0.1,5.2,0.6l-0.8,2.4c-1.5-0.5-2.9-0.8-4.1-0.5c-1.2,0.2-1.8,0.9-1.6,1.7l0,0.1
	c0.2,1,1.7,1.1,3.4,1.3c2.1,0.2,4.5,0.7,5,3.1l0,0.1c0.6,2.8-1.4,4.7-4.2,5.2C193.4,100,191.2,99.7,189.2,98.7z M198.9,79.5l3.3-0.6
	l0.6,2.9l-3.3,0.6L198.9,79.5z M200,84.4l3.1-0.6l2.6,13.5l-3.1,0.6L200,84.4z M216.9,95.1l-0.3-1.7c-0.7,1.3-1.9,2.4-4,2.8
	c-2.6,0.5-5.1-0.5-5.6-3.2l0-0.1c-0.6-3,1.5-4.9,4.6-5.5c1.6-0.3,2.7-0.3,3.8-0.2l0-0.3c-0.4-1.9-1.7-2.7-3.9-2.2
	c-1.5,0.3-2.6,0.8-3.7,1.6l-1.3-2.3c1.4-1,2.7-1.7,4.9-2.1c4-0.8,6.3,0.9,7,4.5l1.6,8L216.9,95.1z M215.9,89.5
	c-0.9-0.2-2-0.2-3.2,0.1c-1.9,0.4-2.9,1.4-2.7,2.7l0,0.1c0.2,1.3,1.5,1.8,3,1.5c2-0.4,3.4-1.8,3-3.5L215.9,89.5z"/>
<g>
	<path class="st1" d="M114.1,129.6L114.1,129.6c-0.8-3.9,1.6-7.7,5.6-8.5c2.6-0.5,4.3,0.1,5.8,1.3l-1.5,2.4c-1.1-0.8-2.3-1.3-3.8-1
		c-2.2,0.4-3.5,2.7-3,5l0,0.1c0.5,2.4,2.5,4,4.9,3.6c1.5-0.3,2.4-1.2,3.2-2.4l2.2,1.5c-1,1.7-2.4,3.1-5,3.6
		C118.4,136,114.9,133.4,114.1,129.6z"/>
	<path class="st1" d="M127.3,127L127.3,127c-0.8-3.9,1.7-7.7,5.8-8.5c4.1-0.8,7.8,1.7,8.5,5.6l0,0.1c0.7,3.8-1.7,7.6-5.9,8.4
		C131.7,133.4,128,130.9,127.3,127z M138.6,124.9L138.6,124.9c-0.5-2.4-2.6-4.1-5-3.6c-2.5,0.5-3.7,2.7-3.2,5.1l0,0.1
		c0.5,2.3,2.6,4,5,3.5C137.8,129.5,139,127.2,138.6,124.9z"/>
	<path class="st1" d="M143.6,129l1-2.4c1.7,0.8,3.4,1.1,4.7,0.8c1.3-0.3,2-1,1.8-1.9l0-0.1c-0.2-1-1.7-1.1-3.4-1.3
		c-2.1-0.2-4.5-0.6-5-3.1l0-0.1c-0.5-2.6,1.3-4.5,4-5c1.7-0.3,3.6-0.1,5.2,0.6l-0.8,2.4c-1.5-0.5-2.9-0.8-4.1-0.5
		c-1.2,0.2-1.8,0.9-1.6,1.7l0,0.1c0.2,1,1.7,1.1,3.4,1.3c2.1,0.2,4.5,0.7,5,3.1l0,0.1c0.6,2.8-1.4,4.7-4.2,5.2
		C147.8,130.2,145.6,130,143.6,129z"/>
	<path class="st1" d="M165.1,126.6l-0.3-1.7c-0.7,1.3-1.9,2.4-4,2.8c-2.6,0.5-5.1-0.5-5.6-3.2l0-0.1c-0.6-3,1.5-4.9,4.6-5.5
		c1.6-0.3,2.7-0.3,3.8-0.2l0-0.3c-0.4-1.9-1.7-2.7-3.9-2.2c-1.5,0.3-2.6,0.8-3.7,1.6l-1.3-2.3c1.4-1,2.7-1.7,4.9-2.1
		c4-0.8,6.3,0.9,7,4.5l1.6,8L165.1,126.6z M164.1,121c-0.9-0.2-2-0.2-3.2,0.1c-1.9,0.4-2.9,1.4-2.7,2.7l0,0.1c0.2,1.3,1.5,1.8,3,1.5
		c2-0.4,3.3-1.8,3-3.5L164.1,121z"/>
</g>
<g>
	<path class="st1" d="M70.1,152.2c-0.6-2.8,0.6-4.3,3.1-5l0.6,1.3c-1.5,0.6-2.1,1.5-1.7,2.8l1.3-0.3l0.7,3.5l-3.4,0.7L70.1,152.2z
		 M76,151c-0.6-2.8,0.6-4.3,3.1-5l0.6,1.3c-1.5,0.6-2.1,1.5-1.7,2.8l1.3-0.3l0.7,3.5l-3.4,0.7L76,151z"/>
	<path class="st1" d="M82.5,157.1L82.5,157.1c-0.9-4.5,1.7-7.6,4.9-8.3c2.2-0.4,3.8,0.4,5.1,1.5l-1.4-7.2l3.1-0.6l3.6,18.6l-3.1,0.6
		l-0.4-2.2c-0.7,1.6-1.9,3-4.1,3.4C87,163.5,83.4,161.6,82.5,157.1z M93.4,155L93.4,155c-0.5-2.7-2.7-4-4.8-3.6
		c-2.1,0.4-3.6,2.4-3,5.1l0,0.1c0.5,2.6,2.6,4,4.7,3.6C92.4,159.6,93.9,157.6,93.4,155z"/>
	<path class="st1" d="M108.8,158.9l-0.3-1.7c-0.7,1.3-1.9,2.4-4,2.8c-2.6,0.5-5.1-0.5-5.6-3.2l0-0.1c-0.6-3,1.5-4.9,4.6-5.5
		c1.6-0.3,2.7-0.3,3.8-0.2l0-0.3c-0.4-1.9-1.7-2.7-3.9-2.2c-1.5,0.3-2.6,0.8-3.7,1.6l-1.3-2.3c1.4-1,2.7-1.7,4.9-2.1
		c4-0.8,6.3,0.9,7,4.5l1.6,8L108.8,158.9z M107.8,153.3c-0.8-0.2-2-0.2-3.2,0.1c-1.9,0.4-2.9,1.4-2.7,2.7l0,0.1
		c0.2,1.3,1.5,1.8,3,1.5c2-0.4,3.3-1.8,3-3.5L107.8,153.3z"/>
	<path class="st1" d="M121.7,159.1l0.7-2.5c1.6,0.6,3.2,0.9,5.1,0.5c2.8-0.5,4-2.3,3.5-5l-0.2-1c-0.8,1.7-2,3-4.3,3.4
		c-3.2,0.6-6.6-1.2-7.4-5.1l0-0.1c-0.8-4,1.8-6.9,4.9-7.5c2.3-0.4,3.9,0.3,5.2,1.4l-0.4-2l3.1-0.6l2.1,10.7c0.4,2.3,0.2,4.1-0.7,5.4
		c-1,1.5-2.8,2.4-5.2,2.9C125.8,159.9,123.7,159.8,121.7,159.1z M130,147.2L130,147.2c-0.4-2.3-2.5-3.4-4.7-3
		c-2.1,0.4-3.5,2.2-3.1,4.4l0,0.1c0.4,2.2,2.4,3.4,4.6,3C128.9,151.2,130.4,149.3,130,147.2z"/>
	<path class="st1" d="M134.7,139.9l3.1-0.6l0.6,3c0.5-2.2,1.7-3.9,4.1-4.2l0.6,3.3l-0.2,0c-2.7,0.5-4.3,2.7-3.6,6.2l1,5.1l-3.1,0.6
		L134.7,139.9z"/>
	<path class="st1" d="M154.5,150.1l-0.3-1.7c-0.7,1.3-1.9,2.4-4,2.8c-2.6,0.5-5.1-0.5-5.6-3.2l0-0.1c-0.6-3,1.5-4.9,4.6-5.5
		c1.6-0.3,2.7-0.3,3.8-0.2l-0.1-0.3c-0.4-1.9-1.7-2.7-3.9-2.2c-1.5,0.3-2.6,0.8-3.7,1.6l-1.3-2.3c1.4-1,2.7-1.7,4.9-2.1
		c4-0.8,6.3,0.9,7,4.5l1.6,8L154.5,150.1z M153.5,144.4c-0.9-0.2-2-0.2-3.2,0.1c-1.9,0.4-2.9,1.4-2.7,2.7l0,0.1
		c0.2,1.3,1.5,1.8,3,1.5c2-0.4,3.3-1.8,3-3.5L153.5,144.4z"/>
	<path class="st1" d="M157.6,135.5l3.1-0.6l0.4,2.1c0.6-1.4,1.7-2.8,3.8-3.2c3-0.6,5.2,1.1,5.8,4.2l1.7,8.6l-3.1,0.6l-1.5-7.7
		c-0.4-2.1-1.7-3.1-3.5-2.7c-1.8,0.3-2.8,1.8-2.4,3.9l1.5,7.6l-3.1,0.6L157.6,135.5z"/>
	<path class="st1" d="M173,139.5L173,139.5c-0.9-4.5,1.7-7.6,4.9-8.3c2.2-0.4,3.8,0.4,5.1,1.5l-1.4-7.2l3.1-0.6l3.6,18.6l-3.1,0.6
		l-0.4-2.2c-0.7,1.6-1.9,3-4.1,3.4C177.5,145.9,173.9,144,173,139.5z M183.9,137.4L183.9,137.4c-0.5-2.7-2.7-4-4.8-3.6
		c-2.1,0.4-3.6,2.4-3,5.1l0,0.1c0.5,2.6,2.6,4,4.7,3.6C182.9,142.1,184.4,140,183.9,137.4z"/>
	<path class="st1" d="M187.6,124.5l3.3-0.6l0.6,2.9l-3.3,0.6L187.6,124.5z M188.7,129.4l3.1-0.6l2.6,13.5l-3.1,0.6L188.7,129.4z"/>
	<path class="st1" d="M194.1,129.9c1.5-0.6,2.1-1.5,1.7-2.8l-1.3,0.3l-0.7-3.5l3.4-0.7l0.6,3c0.6,2.8-0.6,4.3-3.1,5L194.1,129.9z
		 M200.1,128.8c1.5-0.6,2.1-1.5,1.7-2.8l-1.3,0.3l-0.7-3.5l3.4-0.7l0.6,3c0.6,2.8-0.6,4.3-3.1,5L200.1,128.8z"/>
	<path class="st1" d="M210.1,129.1l0.1-0.2c3.2-0.8,4.5-2.1,4.2-3.8l0-0.1c-0.3-1.4-1.6-2.2-3.4-1.9c-1.6,0.3-2.8,1.3-3.8,2.8
		l-2.3-1.7c1.2-2,2.8-3.5,5.6-4c3.6-0.7,6.4,0.8,7,4l0,0.1c0.6,3.2-1.4,5.1-4.1,6.2l0.1,2.1l-2.1,0.4L210.1,129.1z M211.1,135.4
		l3.4-0.7l0.7,3.5l-3.4,0.7L211.1,135.4z"/>
</g>
</svg>
