<?xml version="1.0" encoding="utf-8"?>
<!-- Generator: Adobe Illustrator 24.0.0, SVG Export Plug-In . SVG Version: 6.00 Build 0)  -->
<svg version="1.1" id="Livello_1" xmlns="http://www.w3.org/2000/svg" xmlns:xlink="http://www.w3.org/1999/xlink" x="0px" y="0px"
	 viewBox="0 0 267.91 189.55" style="enable-background:new 0 0 267.91 189.55;" xml:space="preserve">
<style type="text/css">
	.st0{fill:#FFFFFF;}
</style>
<g>
	<path class="st0" d="M208.99,133.04c4.16-2.84,8.27-5.5,12.15-8.33c13.07-9.53,23.81-20.24,30.45-32.85
		c7.15-13.58,8.07-26.62,1.12-38.76c-6.14-10.75-17-17.89-30.62-22.77c-15.83-5.67-33.28-7.6-51.7-7.08
		c-26.31,0.73-51.95,6.18-76.94,15.69c-19.1,7.27-36.49,16.63-51.52,28.75c-12.07,9.74-21.66,20.52-27.04,32.98
		c-4.58,10.61-5.15,20.86-1.02,30.6c4.74,11.16,14.43,18.97,27.31,24.54c14.58,6.3,31.04,8.99,48.65,9.16
		c36.5,0.35,71.3-8.11,104.58-24.12c0.77-0.37,2.04-0.54,2.79-0.33c8.71,2.38,17.37,4.84,26.04,7.28c6.7,1.89,13.4,3.79,20.11,5.66
		c0.63,0.18,1.36,0.17,2.05,0.25c0.1-0.2,0.19-0.39,0.29-0.59C233.45,146.43,221.2,139.72,208.99,133.04"/>
</g>
</svg>
