<?xml version="1.0" encoding="utf-8"?>
<!-- Generator: Adobe Illustrator 24.0.0, SVG Export Plug-In . SVG Version: 6.00 Build 0)  -->
<svg version="1.1" id="Livello_1" xmlns="http://www.w3.org/2000/svg" xmlns:xlink="http://www.w3.org/1999/xlink" x="0px" y="0px"
	 viewBox="0 0 280 201.6" style="enable-background:new 0 0 280 201.6;" xml:space="preserve">
<style type="text/css">
	.st0{clip-path:url(#SVGID_2_);fill:#F3DA4C;}
	.st1{clip-path:url(#SVGID_2_);fill:#1D1D1B;}
	.st2{fill:#1D1D1B;}
</style>
<g>
	<defs>
		<rect id="SVGID_1_" x="-44.2" y="-14.8" width="368.4" height="261.3"/>
	</defs>
	<clipPath id="SVGID_2_">
		<use xlink:href="#SVGID_1_"  style="overflow:visible;"/>
	</clipPath>
	<path class="st0" d="M246.2,72.6l0.1,0.2c-0.8-2.1-1.3-4.6-2.6-6.4C210.3,22.5,165.2,4,111.1,9.7c-38.4,4.1-53.3,35.4-34.8,69.5
		c5,9.2,11.8,17.4,17.9,26.4c-6.9,1.5-13.7,3-21.3,4.6c3,3,4.8,4.9,7,7.2c-11.6,3-22.6,5.8-36,9.3c5.1,3.3,8.1,5.3,11.8,7.8
		c-13,3.6-24.8,6.8-36.7,10.1c0.3,1.3,0.6,2.7,0.8,4c20-2.7,40-5.5,62.8-8.6c-3-4-4.7-6.5-5.7-7.8c8.9-8.3,24.1,2.4,29.4-13.4
		c4,1.8,8.7,3.4,12.6,6c19.1,12.8,40.4,19.9,63,22.5c19.3,2.2,38.4,1.2,55.8-8.8C261.7,124.9,264.9,93.4,246.2,72.6"/>
	<path class="st1" d="M248.4,73.6c18.8,21,15.7,52.8-8.4,66.5c-17.6,10.1-36.9,11.1-56.4,8.9c-22.9-2.6-44.3-9.8-63.7-22.7
		c-4-2.7-8.8-4.2-12.8-6.1c-5.3,16-20.8,5.1-29.7,13.5c1,1.4,2.8,3.8,5.7,7.9c-23,3.1-43.2,5.9-63.5,8.7c-0.3-1.4-0.6-2.7-0.8-4.1
		c12-3.3,24-6.6,37.1-10.2c-3.8-2.5-6.8-4.5-12-7.9c13.5-3.5,24.6-6.3,36.3-9.4c-2.2-2.3-4-4.1-7-7.2c7.7-1.7,14.6-3.2,21.5-4.7
		c-6.2-9.1-13.1-17.4-18.1-26.7c-18.7-34.4-3.7-66,35.1-70.2c54.7-5.8,100.2,12.9,134,57.4c1.3,1.8,1.8,4.3,2.6,6.4
		c-2.1-2.1-4.5-4-6.3-6.4C210,27.3,167.9,9.2,116.9,12.6C80.2,15,62.3,43.7,77.6,74.7c4.2,8.4,10.4,15.9,15.8,23.7
		c2.4,3.4,5,6.6,8.1,10.8c-7.5,1.4-13.7,2.6-20.4,3.9c3,2.6,5.1,4.5,8.3,7.3C77,123.4,66,126.2,55,128.9c0,0.7,0,1.4,0.1,2
		c3.7,1.7,7.3,3.4,12,5.6c-3.7,1.6-6.2,2.7-8.7,3.7c0.2,0.4,0.3,0.8,0.5,1.2c5.8-0.8,11.6-1.6,19.2-2.7c-4.5-3.4-7.1-5.5-11.3-8.8
		c12.8-2,23.8-3.6,35.1-5.3c-1.5-3.1-2.6-5.3-3.7-7.6c0.4-0.7,0.8-1.5,1.2-2.2c6.4,2.2,13.1,3.9,19.3,6.6
		c15.4,6.7,30.1,15.4,46,20.5c22.3,7.1,45.5,7.5,67.8-1.5c21.3-8.6,30.2-30.4,21.8-51.8C252.3,83.7,250.4,78.7,248.4,73.6"/>
</g>
<g>
	<path class="st2" d="M85.4,50.4l3.7-1.7c1,2.1,2.3,3.8,4.5,4.8c1.7,0.8,3,0.6,3.5-0.5l0-0.1c0.5-1,0.1-1.8-2.6-4.1
		c-3.3-2.7-5.2-4.8-3.5-8.5l0-0.1c1.6-3.3,5.3-4.3,9-2.5c2.7,1.2,4.6,3.2,5.7,5.5l-3.5,2.1c-1.1-1.9-2.4-3.3-3.9-4
		c-1.6-0.7-2.7-0.4-3.1,0.5l0,0.1c-0.6,1.2,0,2,2.8,4.3c3.3,2.7,4.8,5,3.3,8.2l0,0.1c-1.7,3.7-5.4,4.4-9.4,2.6
		C89,55.7,86.7,53.4,85.4,50.4z"/>
	<path class="st2" d="M109.2,42.4l8.5,4c2.1,1,3.5,2.3,4.1,3.9c0.4,1.2,0.4,2.5-0.2,3.7l0,0.1c-1,2.1-2.6,2.7-4.3,2.8
		c1.7,1.8,2.5,3.7,1.3,6.1l0,0.1c-1.6,3.4-5.1,3.8-9.2,1.8l-8.8-4.1L109.2,42.4z M111.1,61.3c1.8,0.8,3.2,0.7,3.8-0.7l0-0.1
		c0.6-1.2,0-2.4-2.1-3.4l-4.7-2.2l-1.9,4L111.1,61.3z M113.4,53.4c1.8,0.8,3.2,0.8,3.8-0.6l0-0.1c0.6-1.2-0.1-2.3-1.8-3.1l-4-1.9
		l-1.8,3.9L113.4,53.4z"/>
	<path class="st2" d="M133,53.3l3.7,1.7L136,77.2l-4.2-2l0.2-4.9l-7.8-3.6l-3.6,3.3l-4.1-1.9L133,53.3z M132.2,66.1l0.3-7.1
		l-5.2,4.8L132.2,66.1z"/>
	<path class="st2" d="M139.6,67.8L139.6,67.8c2.5-5.3,8.5-7.7,14.1-5.1c3.3,1.5,4.9,3.4,6.1,5.9l-4,1.9c-0.9-1.8-1.8-3.1-3.9-4.1
		c-2.9-1.4-6.5,0.1-8,3.3l0,0.1c-1.6,3.4-0.4,6.9,2.9,8.4c1.5,0.7,3,0.9,4.3,0.7l1.2-2.6l-4.1-1.9l1.6-3.5l8,3.7l-3.7,8
		c-2.6,0.7-5.9,0.8-9.2-0.7C139.1,79.1,137,73.2,139.6,67.8z"/>
	<path class="st2" d="M163.7,67.8l4,1.9l-6.9,14.7l9.2,4.3l-1.7,3.7l-13.2-6.2L163.7,67.8z"/>
	<path class="st2" d="M178.6,74.7l4,1.9L174.1,95l-4-1.9L178.6,74.7z"/>
	<path class="st2" d="M192.1,80.8l3.7,1.7l-0.8,22.2l-4.2-2l0.2-4.9l-7.8-3.6l-3.6,3.3l-4.1-1.9L192.1,80.8z M191.3,93.7l0.3-7.1
		l-5.2,4.8L191.3,93.7z"/>
	<path class="st2" d="M205.1,91.6l-5.6-2.6l1.7-3.7l15.2,7.1l-1.7,3.7l-5.6-2.6l-6.8,14.7l-4-1.9L205.1,91.6z"/>
	<path class="st2" d="M212.1,101.6L212.1,101.6c2.5-5.3,8.6-7.6,14.3-5s7.8,8.8,5.3,14l0,0.1c-2.4,5.2-8.6,7.6-14.2,4.9
		C211.7,112.9,209.6,106.8,212.1,101.6z M227.4,108.7L227.4,108.7c1.5-3.2,0.4-6.9-2.9-8.4c-3.3-1.5-6.7,0-8.2,3.2l0,0.1
		c-1.5,3.2-0.4,6.9,2.9,8.4C222.5,113.4,225.9,111.9,227.4,108.7z"/>
</g>
<g>
	<path class="st2" d="M137.8,101.7l4.3,2l-2,4.2l-4.3-2L137.8,101.7z M144,87.9l0.2-0.5l4.7,2.2l-0.2,0.5l-6.7,11l-2.2-1L144,87.9z"
		/>
	<path class="st2" d="M144.8,104.9l4.3,2l-2,4.2l-4.3-2L144.8,104.9z M150.9,91.2l0.2-0.5l4.7,2.2l-0.2,0.5l-6.7,11l-2.2-1
		L150.9,91.2z"/>
	<path class="st2" d="M151.7,108.2l4.3,2l-2,4.2l-4.3-2L151.7,108.2z M157.9,94.4l0.2-0.5l4.7,2.2l-0.2,0.5l-6.7,11l-2.2-1
		L157.9,94.4z"/>
</g>
</svg>
