<?xml version="1.0" encoding="utf-8"?>
<!-- Generator: Adobe Illustrator 24.0.0, SVG Export Plug-In . SVG Version: 6.00 Build 0)  -->
<svg version="1.1" id="Livello_1" xmlns="http://www.w3.org/2000/svg" xmlns:xlink="http://www.w3.org/1999/xlink" x="0px" y="0px"
	 viewBox="0 0 267.91 204.81" style="enable-background:new 0 0 267.91 204.81;" xml:space="preserve">
<style type="text/css">
	.st0{fill:#B9BDC0;}
</style>
<g>
	<path class="st0" d="M80.63,161.37c-5.35-2.64-10.69-5.01-15.78-7.85c-13.62-7.61-25.33-17.49-33.63-31.12
		c-7.79-12.79-11.03-26.63-8.6-41.62c2.31-14.25,9.21-26.06,18.97-36.23c11.03-11.49,24.28-19.51,38.89-25.23
		c19.81-7.76,40.35-10.79,61.52-9.9c16.56,0.69,32.63,3.8,48.09,9.93c16.89,6.7,31.94,16.23,43.62,30.67
		c9.28,11.48,14.83,24.53,14.95,39.62c0.12,15.99-5.81,29.67-15.8,41.66c-10.73,12.87-24.19,21.89-39.39,28.19
		c-32.41,13.44-65.59,14.87-99.31,5.96c-1.65-0.44-2.78-0.27-4.13,0.86c-8.96,7.5-18,14.91-27.01,22.34
		c-2.21,1.82-4.43,3.63-6.64,5.45c-0.07-0.08-0.15-0.17-0.22-0.25C64.33,182.97,72.52,172.13,80.63,161.37 M78.94,161.78
		C69.82,173.87,60.66,186,51.5,198.14c0.13,0.21,0.26,0.42,0.39,0.62c0.58-0.32,1.23-0.56,1.74-0.97
		c5.44-4.46,10.86-8.95,16.29-13.42c7.02-5.79,14.03-11.6,21.1-17.33c0.61-0.49,1.76-0.7,2.52-0.5c32.9,8.61,65.37,7.57,97.26-4.75
		c15.38-5.94,29.18-14.57,40.46-26.97c9.97-10.96,16.63-23.61,18.16-38.71c1.33-13.19-1.57-25.46-8.07-36.86
		c-7.64-13.39-18.57-23.37-31.43-31.28c-16.01-9.84-33.44-15.55-51.87-18.16c-24.12-3.42-47.86-1.69-71.08,5.98
		c-16.26,5.37-31.09,13.4-43.62,25.44C32.57,51.58,24.74,63.8,21.88,78.86c-3.23,17.02,0.63,32.57,10.08,46.74
		c8.78,13.17,20.7,22.68,34.38,30.01C70.41,157.79,74.62,159.68,78.94,161.78"/>
</g>
</svg>
