<?xml version="1.0" encoding="utf-8"?>
<!-- Generator: Adobe Illustrator 24.0.0, SVG Export Plug-In . SVG Version: 6.00 Build 0)  -->
<svg version="1.1" id="Livello_1" xmlns="http://www.w3.org/2000/svg" xmlns:xlink="http://www.w3.org/1999/xlink" x="0px" y="0px"
	 viewBox="0 0 280 201.6" style="enable-background:new 0 0 280 201.6;" xml:space="preserve">
<style type="text/css">
	.st0{fill:#FAF0B6;}
	.st1{clip-path:url(#SVGID_2_);fill:#B9BDC0;}
</style>
<g>
	<path class="st0" d="M63.6,44.9l3.2,0.2l-0.4,7.6l8.7,0.5l0.4-7.6l3.2,0.2l-1,18.2l-3.2-0.2l0.4-7.7l-8.7-0.5l-0.4,7.7L62.6,63
		L63.6,44.9z"/>
	<path class="st0" d="M90.4,64.5l0.1-1.7c-1,1.1-2.5,1.9-4.5,1.7c-2.6-0.1-4.8-1.7-4.7-4.5l0-0.1c0.2-3,2.6-4.4,5.8-4.2
		c1.7,0.1,2.7,0.4,3.8,0.8l0-0.3c0.1-1.9-1-3-3.2-3.1c-1.5-0.1-2.7,0.2-4,0.7l-0.7-2.6c1.5-0.6,3-1,5.3-0.9c4.1,0.2,5.9,2.4,5.7,6.1
		l-0.4,8.1L90.4,64.5z M90.8,58.8c-0.8-0.4-1.9-0.6-3.1-0.7c-2-0.1-3.2,0.6-3.3,2l0,0.1c-0.1,1.3,1.1,2.1,2.5,2.2
		c2.1,0.1,3.7-1,3.8-2.7L90.8,58.8z"/>
	<path class="st0" d="M98.1,51.1l3.1,0.2L100.6,65l-3.1-0.2L98.1,51.1z M98.3,46l3.4,0.2l-0.2,3L98.1,49L98.3,46z"/>
	<path class="st0" d="M111.9,51.9l3.4,0.2l3.2,10.3l4.2-9.9l3.3,0.2l-6.3,13.5l-2.8-0.1L111.9,51.9z"/>
	<path class="st0" d="M135.7,66.9l0.1-1.7c-1,1.1-2.5,1.9-4.5,1.7c-2.6-0.1-4.8-1.7-4.7-4.5l0-0.1c0.2-3,2.6-4.4,5.8-4.2
		c1.7,0.1,2.7,0.4,3.8,0.8l0-0.3c0.1-1.9-1-3-3.2-3.1c-1.5-0.1-2.7,0.2-4,0.7l-0.7-2.6c1.5-0.6,3-1,5.3-0.9c4.1,0.2,5.9,2.4,5.7,6.1
		l-0.4,8.1L135.7,66.9z M136,61.1c-0.8-0.4-1.9-0.6-3.1-0.7c-2-0.1-3.2,0.6-3.3,2l0,0.1c-0.1,1.3,1.1,2.1,2.5,2.2
		c2.1,0.1,3.7-1,3.8-2.7L136,61.1z"/>
	<path class="st0" d="M143.7,48.3l3.1,0.2l-1,19l-3.1-0.2L143.7,48.3z"/>
	<path class="st0" d="M150,62.6l0.5-8.7l3.1,0.2l-0.4,7.8c-0.1,2.1,0.9,3.4,2.8,3.5c1.8,0.1,3.2-1.1,3.3-3.2l0.4-7.7l3.1,0.2
		l-0.7,13.7l-3.1-0.2l0.1-2.1c-1,1.3-2.3,2.3-4.4,2.2C151.6,68,149.9,65.8,150,62.6z"/>
	<path class="st0" d="M166.9,64.7l0.4-7.2l-1.7-0.1l0.1-2.7l1.7,0.1l0.2-3.8l3.1,0.2l-0.2,3.8l3.7,0.2l-0.1,2.7l-3.7-0.2l-0.4,6.7
		c-0.1,1.2,0.5,1.7,1.6,1.8c0.7,0,1.3-0.1,2-0.4l-0.1,2.6c-0.8,0.4-1.7,0.6-2.9,0.6C168.3,68.8,166.7,67.7,166.9,64.7z"/>
	<path class="st0" d="M185.1,69.4l0.1-1.7c-1,1.1-2.5,1.9-4.5,1.7c-2.6-0.1-4.8-1.7-4.7-4.5l0-0.1c0.2-3,2.6-4.4,5.8-4.2
		c1.7,0.1,2.7,0.4,3.8,0.8l0-0.3c0.1-1.9-1-3-3.2-3.1c-1.5-0.1-2.7,0.2-4,0.7l-0.7-2.6c1.5-0.6,3-1,5.3-0.9c4.1,0.2,5.9,2.4,5.7,6.1
		l-0.4,8.1L185.1,69.4z M185.5,63.7c-0.8-0.4-1.9-0.6-3.1-0.7c-2-0.1-3.2,0.6-3.3,2l0,0.1c-0.1,1.3,1.1,2.1,2.5,2.2
		c2.1,0.1,3.7-1,3.8-2.7L185.5,63.7z"/>
	<path class="st0" d="M192.6,66l0.4-7.2l-1.7-0.1l0.1-2.7l1.7,0.1l0.2-3.8l3.1,0.2l-0.2,3.8l3.7,0.2l-0.1,2.7l-3.7-0.2l-0.4,6.7
		c-0.1,1.2,0.5,1.7,1.6,1.8c0.7,0,1.3-0.1,2-0.4l-0.1,2.6c-0.8,0.4-1.7,0.6-2.9,0.6C194.1,70.2,192.5,69.1,192.6,66z"/>
	<path class="st0" d="M201.7,63.5L201.7,63.5c0.2-4,3.5-7.1,7.7-6.8c4.2,0.2,7.1,3.6,6.9,7.5l0,0.1c-0.2,3.9-3.5,7-7.7,6.8
		C204.4,70.8,201.5,67.4,201.7,63.5z M213.2,64.1L213.2,64.1c0.1-2.5-1.5-4.6-4-4.7c-2.5-0.1-4.2,1.8-4.4,4.1l0,0.1
		c-0.1,2.4,1.5,4.5,3.9,4.6C211.3,68.4,213,66.5,213.2,64.1z"/>
	<path class="st0" d="M227.8,57.9l3.1,0.2l-0.7,13.7l-3.1-0.2L227.8,57.9z M228,52.8l3.4,0.2l-0.2,3l-3.4-0.2L228,52.8z"/>
	<path class="st0" d="M235.5,53.1l3.1,0.2l-1,19l-3.1-0.2L235.5,53.1z"/>
</g>
<g>
	<path class="st0" d="M62.3,78.2L62.3,78.2c0.2-3.9,3.4-7.1,7.5-6.8c2.6,0.1,4.2,1.2,5.4,2.7l-2.1,2c-0.9-1.1-1.9-1.8-3.5-1.9
		c-2.3-0.1-4.1,1.8-4.2,4.2l0,0.1c-0.1,2.4,1.5,4.5,3.9,4.6c1.5,0.1,2.6-0.6,3.6-1.5l1.8,2c-1.4,1.4-3.1,2.4-5.7,2.3
		C65,85.5,62.1,82.1,62.3,78.2z"/>
	<path class="st0" d="M76.8,79L76.8,79c0.2-4,3.5-7.1,7.7-6.8c4.2,0.2,7.1,3.6,6.9,7.5l0,0.1c-0.2,3.9-3.5,7-7.7,6.8
		C79.5,86.3,76.6,82.9,76.8,79z M88.2,79.6L88.2,79.6c0.1-2.5-1.5-4.6-4-4.7c-2.5-0.1-4.2,1.8-4.4,4.1l0,0.1
		c-0.1,2.4,1.5,4.5,3.9,4.6C86.4,83.9,88.1,82,88.2,79.6z"/>
	<path class="st0" d="M93.2,84.9l1.5-2.1c1.4,1.2,3,1.8,4.4,1.9c1.3,0.1,2.2-0.5,2.2-1.4l0-0.1c0.1-1.1-1.4-1.5-3-2.1
		c-2-0.7-4.2-1.6-4.1-4.2l0-0.1c0.1-2.6,2.4-4.1,5.1-3.9c1.7,0.1,3.6,0.8,5,1.8L103,77c-1.3-0.9-2.7-1.4-3.8-1.5
		c-1.2-0.1-2,0.5-2,1.3l0,0.1c-0.1,1,1.4,1.5,3,2.1c2,0.7,4.2,1.8,4,4.2l0,0.1c-0.2,2.9-2.5,4.2-5.3,4C97,87.1,94.8,86.3,93.2,84.9z
		"/>
	<path class="st0" d="M107.8,83.6l0.4-7.2l-1.7-0.1l0.1-2.7l1.7,0.1l0.2-3.8l3.1,0.2l-0.2,3.8l3.7,0.2l-0.1,2.7l-3.7-0.2l-0.4,6.7
		c-0.1,1.2,0.5,1.7,1.6,1.8c0.7,0,1.3-0.1,2-0.4l-0.1,2.6c-0.8,0.4-1.7,0.6-2.9,0.6C109.2,87.7,107.7,86.6,107.8,83.6z"/>
	<path class="st0" d="M116.8,81.1L116.8,81.1c0.2-4,3.5-7.1,7.7-6.8c4.2,0.2,7.1,3.6,6.9,7.5l0,0.1c-0.2,3.9-3.5,7-7.7,6.8
		C119.6,88.4,116.6,85,116.8,81.1z M128.3,81.7L128.3,81.7c0.1-2.5-1.5-4.6-4-4.7c-2.5-0.1-4.2,1.8-4.4,4.1l0,0.1
		c-0.1,2.4,1.5,4.5,3.9,4.6C126.5,86,128.2,84.1,128.3,81.7z"/>
	<path class="st0" d="M142.8,75.5l3.1,0.2l-0.2,3.1c1-2,2.6-3.3,5-3.1l-0.2,3.3l-0.2,0c-2.8-0.1-4.8,1.5-5,5.2l-0.3,5.2l-3.1-0.2
		L142.8,75.5z"/>
	<path class="st0" d="M152,82.9L152,82.9c0.2-4,3.2-7,7.1-6.8c4.4,0.2,6.4,3.8,6.2,7.7c0,0.3-0.1,0.6-0.1,0.9l-10.1-0.5
		c0.2,2.3,1.7,3.6,3.8,3.7c1.5,0.1,2.7-0.4,3.8-1.4l1.8,1.7c-1.4,1.5-3.2,2.4-5.7,2.3C154.7,90.2,151.8,87.1,152,82.9z M162.2,82.4
		c-0.1-2-1.2-3.7-3.3-3.8c-1.9-0.1-3.3,1.3-3.7,3.4L162.2,82.4z"/>
	<path class="st0" d="M176.4,91l0.1-1.7c-1,1.1-2.5,1.8-4.5,1.7c-2.6-0.1-4.8-1.7-4.7-4.5l0-0.1c0.2-3,2.6-4.4,5.8-4.2
		c1.7,0.1,2.7,0.4,3.8,0.8l0-0.3c0.1-1.9-1-3-3.2-3.1c-1.5-0.1-2.7,0.2-4,0.7l-0.7-2.6c1.5-0.6,3-1,5.3-0.9c4.1,0.2,5.9,2.4,5.7,6.1
		l-0.4,8.1L176.4,91z M176.8,85.3c-0.8-0.4-1.9-0.6-3.1-0.7c-2-0.1-3.2,0.6-3.3,2l0,0.1c-0.1,1.3,1.1,2.1,2.5,2.2
		c2.1,0.1,3.7-1,3.8-2.7L176.8,85.3z"/>
	<path class="st0" d="M184.5,72.4l3.1,0.2l-1,19l-3.1-0.2L184.5,72.4z"/>
	<path class="st0" d="M190.3,84.9L190.3,84.9c0.2-4,3.2-7,7.1-6.8c4.4,0.2,6.4,3.8,6.2,7.7c0,0.3-0.1,0.6-0.1,0.9l-10.1-0.5
		c0.2,2.3,1.7,3.6,3.8,3.7c1.5,0.1,2.7-0.4,3.8-1.4l1.8,1.7c-1.4,1.5-3.2,2.4-5.7,2.3C193,92.2,190.1,89.2,190.3,84.9z M200.5,84.4
		c-0.1-2-1.2-3.7-3.3-3.8c-1.9-0.1-3.3,1.3-3.7,3.4L200.5,84.4z"/>
	<path class="st0" d="M213.9,86.1L213.9,86.1c0.2-4.6,3.5-7,6.7-6.8c2.3,0.1,3.6,1.3,4.5,2.7l0.4-7.4l3.1,0.2l-1,19l-3.1-0.2
		l0.1-2.3c-1.1,1.4-2.6,2.4-4.8,2.3C216.6,93.4,213.6,90.7,213.9,86.1z M224.9,86.7L224.9,86.7c0.1-2.7-1.6-4.5-3.7-4.6
		c-2.2-0.1-4,1.5-4.2,4.2l0,0.1c-0.1,2.6,1.6,4.5,3.7,4.6C222.8,91,224.8,89.3,224.9,86.7z"/>
	<path class="st0" d="M232.5,80.2l3.1,0.2l-0.7,13.7l-3.1-0.2L232.5,80.2z M232.6,75.1l3.4,0.2l-0.2,3l-3.4-0.2L232.6,75.1z"/>
</g>
<g>
	<path class="st0" d="M91,103.6l0.5-8.7l3.1,0.2l-0.4,7.8c-0.1,2.1,0.9,3.4,2.8,3.5c1.8,0.1,3.2-1.1,3.3-3.2l0.4-7.7l3.1,0.2
		l-0.7,13.7l-3.1-0.2l0.1-2.1c-1,1.3-2.3,2.3-4.4,2.2C92.5,108.9,90.8,106.8,91,103.6z"/>
	<path class="st0" d="M107.7,95.7l3.1,0.2l-0.1,2.1c1-1.3,2.3-2.3,4.4-2.2c3.1,0.2,4.8,2.3,4.6,5.5l-0.5,8.7l-3.1-0.2l0.4-7.8
		c0.1-2.1-0.9-3.4-2.8-3.5c-1.8-0.1-3.2,1.1-3.3,3.2l-0.4,7.7l-3.1-0.2L107.7,95.7z"/>
	<path class="st0" d="M132.1,99.7l-1.7-0.1l0.1-2.6l1.7,0.1l0.1-1c0.1-1.5,0.5-2.7,1.3-3.3c0.8-0.7,1.8-1,3.1-0.9
		c1.1,0.1,1.8,0.3,2.5,0.5l-0.1,2.6c-0.6-0.2-1.2-0.4-1.8-0.4c-1.2-0.1-1.9,0.6-1.9,2l0,0.8l3.6,0.2l-0.1,2.6l-3.6-0.2l-0.6,11
		l-3.1-0.2L132.1,99.7z"/>
	<path class="st0" d="M140,104.3L140,104.3c0.2-4,3.2-7,7.1-6.8c4.4,0.2,6.4,3.8,6.2,7.7c0,0.3-0.1,0.6-0.1,0.9l-10.1-0.5
		c0.2,2.3,1.7,3.6,3.8,3.7c1.5,0.1,2.7-0.4,3.8-1.4l1.8,1.7c-1.4,1.5-3.2,2.4-5.7,2.3C142.7,111.6,139.8,108.5,140,104.3z
		 M150.2,103.8c-0.1-2-1.2-3.7-3.3-3.8c-1.9-0.1-3.3,1.3-3.7,3.4L150.2,103.8z"/>
	<path class="st0" d="M156.8,98.3l3.1,0.2l-0.2,3.1c1-2,2.6-3.3,5-3.1l-0.2,3.3l-0.2,0c-2.8-0.1-4.8,1.5-5,5.2l-0.3,5.2l-3.1-0.2
		L156.8,98.3z"/>
	<path class="st0" d="M167.5,98.8l3.1,0.2l-0.1,2.1c0.9-1.2,2.2-2.3,4.3-2.1c2,0.1,3.3,1.1,4,2.6c1.2-1.4,2.7-2.3,4.8-2.2
		c3,0.2,4.7,2.1,4.5,5.5l-0.5,8.8l-3.1-0.2l0.4-7.8c0.1-2.2-0.8-3.4-2.6-3.5c-1.7-0.1-3,1-3.1,3.2l-0.4,7.7l-3.1-0.2l0.4-7.8
		c0.1-2.1-0.9-3.4-2.6-3.5c-1.7-0.1-3,1.1-3.1,3.3l-0.4,7.7l-3.1-0.2L167.5,98.8z"/>
	<path class="st0" d="M191,107L191,107c0.2-4,3.5-7.1,7.7-6.8c4.2,0.2,7.1,3.6,6.9,7.5l0,0.1c-0.2,3.9-3.5,7-7.7,6.8
		C193.8,114.3,190.8,110.9,191,107z M202.5,107.6L202.5,107.6c0.1-2.5-1.5-4.6-4-4.7c-2.5-0.1-4.2,1.8-4.4,4.1l0,0.1
		c-0.1,2.4,1.5,4.5,3.9,4.6C200.7,111.9,202.4,110,202.5,107.6z"/>
</g>
<g>
	<path class="st0" d="M80.6,116.3l3.1,0.2l-0.1,2.1c0.9-1.2,2.2-2.3,4.3-2.1c2,0.1,3.3,1.1,4,2.6c1.2-1.4,2.7-2.3,4.8-2.2
		c3,0.2,4.7,2.1,4.5,5.5l-0.5,8.8l-3.1-0.2l0.4-7.8c0.1-2.2-0.8-3.4-2.6-3.5c-1.7-0.1-3,1-3.1,3.2l-0.4,7.7l-3.1-0.2l0.4-7.8
		c0.1-2.1-0.9-3.4-2.6-3.5c-1.7-0.1-3,1.1-3.1,3.3l-0.4,7.7l-3.1-0.2L80.6,116.3z"/>
	<path class="st0" d="M113,131.7l0.1-1.7c-1,1.1-2.5,1.9-4.5,1.7c-2.6-0.1-4.8-1.7-4.7-4.5l0-0.1c0.2-3,2.6-4.4,5.8-4.2
		c1.7,0.1,2.7,0.4,3.8,0.8l0-0.3c0.1-1.9-1-3-3.2-3.1c-1.5-0.1-2.7,0.2-4,0.7l-0.7-2.6c1.5-0.6,3-1,5.3-0.9c4.1,0.2,5.9,2.4,5.7,6.1
		l-0.4,8.1L113,131.7z M113.4,126c-0.8-0.4-1.9-0.6-3.1-0.7c-2-0.1-3.2,0.6-3.3,2l0,0.1c-0.1,1.3,1.1,2.1,2.5,2.2
		c2.1,0.1,3.7-1,3.8-2.7L113.4,126z"/>
	<path class="st0" d="M119.4,125.3L119.4,125.3c0.2-3.9,3.4-7.1,7.5-6.8c2.6,0.1,4.2,1.2,5.4,2.6l-2.1,2c-0.9-1.1-1.9-1.8-3.5-1.9
		c-2.3-0.1-4.1,1.8-4.2,4.2l0,0.1c-0.1,2.4,1.5,4.5,3.9,4.6c1.5,0.1,2.6-0.6,3.6-1.5l1.8,2c-1.4,1.4-3.1,2.4-5.7,2.3
		C122.1,132.5,119.2,129.2,119.4,125.3z"/>
	<path class="st0" d="M133.9,126L133.9,126c0.2-3.9,3.4-7.1,7.5-6.8c2.6,0.1,4.2,1.2,5.4,2.6l-2.1,2c-0.9-1.1-1.9-1.8-3.5-1.9
		c-2.3-0.1-4.1,1.8-4.2,4.2l0,0.1c-0.1,2.4,1.5,4.5,3.9,4.6c1.5,0.1,2.6-0.6,3.6-1.5l1.8,2c-1.4,1.4-3.1,2.4-5.7,2.3
		C136.5,133.3,133.7,129.9,133.9,126z"/>
	<path class="st0" d="M150.1,114.7l3.1,0.2l-0.4,7.4c1-1.3,2.3-2.3,4.4-2.2c3.1,0.2,4.8,2.3,4.6,5.5l-0.5,8.7l-3.1-0.2l0.4-7.8
		c0.1-2.1-0.9-3.4-2.8-3.5c-1.8-0.1-3.2,1.1-3.3,3.2l-0.4,7.7l-3.1-0.2L150.1,114.7z"/>
	<path class="st0" d="M166.1,120.8l3.1,0.2l-0.7,13.7l-3.1-0.2L166.1,120.8z M166.2,115.7l3.4,0.2l-0.2,3l-3.4-0.2L166.2,115.7z"/>
	<path class="st0" d="M173.4,121.2l3.1,0.2l-0.1,2.1c1-1.3,2.3-2.3,4.4-2.2c3.1,0.2,4.8,2.3,4.6,5.5l-0.5,8.7l-3.1-0.2l0.4-7.8
		c0.1-2.1-0.9-3.4-2.8-3.5c-1.8-0.1-3.2,1.1-3.3,3.2l-0.4,7.7l-3.1-0.2L173.4,121.2z"/>
	<path class="st0" d="M197.1,136.2l0.1-1.7c-1,1.1-2.5,1.9-4.5,1.7c-2.6-0.1-4.8-1.7-4.7-4.5l0-0.1c0.2-3,2.6-4.4,5.8-4.2
		c1.7,0.1,2.7,0.4,3.8,0.8l0-0.3c0.1-1.9-1-3-3.2-3.1c-1.5-0.1-2.7,0.2-4,0.7l-0.7-2.6c1.5-0.6,3-1,5.3-0.9c4,0.2,5.9,2.4,5.7,6.1
		l-0.4,8.1L197.1,136.2z M197.5,130.4c-0.8-0.4-1.9-0.6-3.1-0.7c-2-0.1-3.2,0.6-3.3,2l0,0.1c-0.1,1.3,1.1,2.1,2.5,2.2
		c2.1,0.1,3.7-1,3.8-2.7L197.5,130.4z"/>
	<path class="st0" d="M206.5,126.7l0.1-0.1c3.3,0,4.9-0.9,5-2.7l0-0.1c0.1-1.5-1-2.5-2.9-2.6c-1.6-0.1-3,0.6-4.3,1.8l-1.8-2.2
		c1.6-1.6,3.6-2.7,6.4-2.6c3.6,0.2,6,2.3,5.8,5.6l0,0.1c-0.2,3.3-2.6,4.6-5.5,5l-0.4,2.1l-2.1-0.1L206.5,126.7z M205.9,133.1
		l3.5,0.2l-0.2,3.6l-3.5-0.2L205.9,133.1z"/>
</g>
<g>
	<defs>
		<rect id="SVGID_1_" x="-29" y="6.2" width="353.8" height="190.6"/>
	</defs>
	<clipPath id="SVGID_2_">
		<use xlink:href="#SVGID_1_"  style="overflow:visible;"/>
	</clipPath>
	<path class="st1" d="M94.9,159.5c-5.3-2.6-10.7-5-15.8-7.9c-13.6-7.6-25.3-17.5-33.6-31.1c-7.8-12.8-11-26.6-8.6-41.6
		c2.3-14.3,9.2-26.1,19-36.2c11-11.5,24.3-19.5,38.9-25.2c19.8-7.8,40.4-10.8,61.5-9.9c16.6,0.7,32.6,3.8,48.1,9.9
		c16.9,6.7,31.9,16.2,43.6,30.7c9.3,11.5,14.8,24.5,14.9,39.6c0.1,16-5.8,29.7-15.8,41.7c-10.7,12.9-24.2,21.9-39.4,28.2
		c-32.4,13.4-65.6,14.9-99.3,6c-1.7-0.4-2.8-0.3-4.1,0.9c-9,7.5-18,14.9-27,22.3c-2.2,1.8-4.4,3.6-6.6,5.4c-0.1-0.1-0.1-0.2-0.2-0.3
		C78.6,181.1,86.8,170.2,94.9,159.5 M93.2,159.9c-9.1,12.1-18.3,24.2-27.4,36.4c0.1,0.2,0.3,0.4,0.4,0.6c0.6-0.3,1.2-0.6,1.7-1
		c5.4-4.5,10.9-8.9,16.3-13.4c7-5.8,14-11.6,21.1-17.3c0.6-0.5,1.8-0.7,2.5-0.5c32.9,8.6,65.4,7.6,97.3-4.7
		c15.4-5.9,29.2-14.6,40.5-27c10-11,16.6-23.6,18.2-38.7c1.3-13.2-1.6-25.5-8.1-36.9C247.9,43.9,237,34,224.2,26.1
		c-16-9.8-33.4-15.6-51.9-18.2c-24.1-3.4-47.9-1.7-71.1,6C85,19.3,70.1,27.3,57.6,39.3C46.8,49.7,39,61.9,36.1,77
		c-3.2,17,0.6,32.6,10.1,46.7c8.8,13.2,20.7,22.7,34.4,30C84.6,155.9,88.9,157.8,93.2,159.9"/>
</g>
</svg>
