<?xml version="1.0" encoding="utf-8"?>
<!-- Generator: Adobe Illustrator 24.0.0, SVG Export Plug-In . SVG Version: 6.00 Build 0)  -->
<svg version="1.1" id="Livello_1" xmlns="http://www.w3.org/2000/svg" xmlns:xlink="http://www.w3.org/1999/xlink" x="0px" y="0px"
	 viewBox="0 0 68.09 65.32" style="enable-background:new 0 0 68.09 65.32;" xml:space="preserve">
<style type="text/css">
	.st0{clip-path:url(#SVGID_2_);fill:#FAF0B5;}
</style>
<g>
	<defs>
		<rect id="SVGID_1_" x="6.66" y="0.99" width="54.78" height="62.35"/>
	</defs>
	<clipPath id="SVGID_2_">
		<use xlink:href="#SVGID_1_"  style="overflow:visible;"/>
	</clipPath>
	<path class="st0" d="M10.35,59.73c2.77,0,5.43,0,8.1,0c2.33,0,2.83-0.5,2.83-2.85c0.01-6.09,0-12.18,0-18.27
		c0-1.98,0-3.97-0.01-5.95c0-1.14-0.45-2.14-1.65-2.18c-3.07-0.11-6.15-0.04-9.27-0.04V59.73z M39.11,15.81
		c-0.08,0.27-0.17,0.58-0.24,0.89c-0.81,3.64-2.21,7.03-4.38,10.07c-2.15,3.02-4.68,5.65-8.32,6.78c-1.15,0.36-1.35,0.87-1.35,1.92
		c0.04,5.77,0.02,11.54,0.02,17.32c0,3.78,0.04,3.68,3.63,5.01c3.95,1.46,7.97,2.13,12.19,1.96c3.64-0.15,7.3-0.05,10.95-0.02
		c1.23,0.01,2.24-0.26,2.49-1.62c0.21-1.1-0.46-1.81-1.99-2.13c-1.07-0.23-1.66-0.84-1.58-1.92c0.08-1.1,0.81-1.6,1.88-1.62
		c1.11-0.02,2.22,0.02,3.33-0.03c1.14-0.05,1.97-0.54,2.01-1.81c0.05-1.15-0.72-1.87-2.05-1.91c-1.06-0.03-2.13,0.01-3.19-0.01
		c-1.3-0.03-2.01-0.68-2-1.79c0.01-1.07,0.76-1.76,2.03-1.8c1.15-0.04,2.31,0.03,3.46-0.04c1.15-0.06,1.78-0.73,1.73-1.9
		c-0.05-1.09-0.66-1.69-1.77-1.7c-1.15-0.02-2.31,0.03-3.46-0.02c-1.23-0.06-1.99-0.82-1.99-1.87c0.01-1.1,0.71-1.72,2.03-1.74
		c1.15-0.02,2.32,0.06,3.46-0.04c1.02-0.09,1.71-0.68,1.74-1.79c0.03-1.11-0.6-1.7-1.63-1.89c-0.4-0.08-0.83-0.05-1.24-0.05
		c-5.59,0-11.18,0-16.77-0.01c-1.41,0-2.21-0.63-2.25-1.7c-0.05-1.11,0.81-1.81,2.28-1.84c0.83-0.02,1.67,0.06,2.49-0.04
		c0.37-0.04,0.92-0.34,1.02-0.64c1.22-3.57,1.77-7.24,1.47-11.02C42.99,17.13,40.91,15.31,39.11,15.81 M7.84,63.35
		c-0.88-0.58-1.19-1.37-1.18-2.44c0.03-10.57,0.02-21.15,0.02-31.72c0-1.79,0.6-2.38,2.42-2.38c3-0.01,6.01,0.06,9.01-0.02
		c2.82-0.08,5.1,0.72,6.42,3.48c2.73-0.72,4.59-2.52,6.27-4.56c2.71-3.29,4.01-7.2,4.93-11.29c0.48-2.1,0.83-2.33,2.91-2.33
		c5.2-0.01,8.16,2.92,8.13,8.15c-0.01,1.7-0.16,3.41-0.38,5.1c-0.22,1.68-0.6,3.33-0.95,5.18h5.12c1.43,0,2.87,0.05,4.3-0.01
		c2.42-0.1,4.53,0.48,5.79,2.72c1.24,2.19,0.94,4.34-0.56,6.37c1.74,2.43,1.78,4.86,0.03,7.27c2.5,3.64,1.17,7.46-2.5,8.99
		c0,1.1,0.17,2.22-0.03,3.26c-0.45,2.33-2.16,3.53-4.29,4.24h-18.3c-3.33-0.98-6.65-1.96-9.98-2.91c-0.26-0.08-0.67,0.06-0.91,0.24
		c-1.19,0.86-2.35,1.77-3.52,2.67H7.84z"/>
	<path class="st0" d="M41.94,0.99c0.91,0.55,1.26,1.35,1.19,2.41c-0.07,1.05-0.01,2.11-0.02,3.16c-0.01,1.11-0.62,1.75-1.66,1.82
		c-1.06,0.07-1.79-0.55-1.87-1.61c-0.1-1.37-0.15-2.76,0.04-4.11c0.08-0.6,0.79-1.12,1.21-1.68H41.94z"/>
	<path class="st0" d="M54.95,7.65c-0.32,0.62-0.45,1.08-0.74,1.4c-0.8,0.88-1.64,1.73-2.52,2.54c-0.83,0.76-1.78,0.79-2.58-0.02
		c-0.74-0.76-0.75-1.67,0-2.46c0.88-0.93,1.74-1.91,2.76-2.68c0.45-0.34,1.34-0.42,1.87-0.21C54.25,6.42,54.55,7.15,54.95,7.65"/>
	<path class="st0" d="M34.19,10.53c-0.29,0.39-0.57,1.11-1.05,1.31c-0.54,0.22-1.45,0.22-1.88-0.11c-1.08-0.83-2.1-1.81-2.9-2.91
		c-0.34-0.48-0.34-1.61,0-2.07c0.34-0.46,1.62-0.86,1.95-0.6c1.32,1.02,2.44,2.3,3.61,3.51C34.07,9.8,34.07,10.08,34.19,10.53"/>
	<path class="st0" d="M17.55,54.33c-0.08,0.86-0.56,1.55-1.66,1.64c-1.04,0.08-1.9-0.67-1.95-1.68c-0.05-1,0.76-1.82,1.81-1.82
		C16.76,52.47,17.52,53.18,17.55,54.33"/>
</g>
</svg>
