<?xml version="1.0" encoding="utf-8"?>
<!-- Generator: Adobe Illustrator 24.0.0, SVG Export Plug-In . SVG Version: 6.00 Build 0)  -->
<svg version="1.1" id="Livello_1" xmlns="http://www.w3.org/2000/svg" xmlns:xlink="http://www.w3.org/1999/xlink" x="0px" y="0px"
	 viewBox="0 0 167.53 129.5" style="enable-background:new 0 0 167.53 129.5;" xml:space="preserve">
<style type="text/css">
	.st0{clip-path:url(#SVGID_2_);fill:#FFFFFF;}
</style>
<g>
	<defs>
	<filter id="tools">
		<rect id="SVGID_1_" x="27.18" y="4.1" width="113.17" height="121.29"/>
		</filter>
	</defs>
	<clipPath id="SVGID_2_">
		<use xlink:href="#SVGID_1_"  style="overflow:visible;"/>
	</clipPath>
	
	<path class="st0" d="M140.09,18.33c-3.56-4.54-3.57-4.55-8.08-1.96c-2.01,1.15-4.04,2.29-5.96,3.59c-0.64,0.44-1.05,1.31-1.4,2.06
		c-0.62,1.35-0.75,3.11-1.71,4.08c-7.82,7.93-15.79,15.71-23.7,23.55c-0.95,0.94-1.83,1.96-2.59,2.78c1.5,1.84,2.73,3.35,4.07,4.98
		c1.18-1.06,1.98-1.7,2.7-2.44c7.21-7.39,14.39-14.81,21.64-22.16c1.97-2,3.57-4.68,7.08-4.36c0.56,0.05,1.36-0.78,1.8-1.39
		C136.06,24.17,138.08,21.21,140.09,18.33 M50.45,125.4c1.89-1.16,4.06-2.03,5.61-3.54c2.72-2.67,5.11-5.69,7.55-8.64
		c7.3-8.8,15.85-16.66,20.55-27.44c0.81-1.85,1.02-3.02-0.57-4.51c-3.3-3.09-6.36-6.44-9.66-9.53c-0.66-0.61-2.3-1.09-2.89-0.71
		c-4.56,2.93-9.53,5.54-13.31,9.31c-7.55,7.52-14.54,15.62-21.5,23.7c-1.36,1.57-2.28,4.22-2.12,6.27
		C34.6,116.84,43.51,124.61,50.45,125.4 M28.61,21.3c-0.47,1.15-0.82,1.74-0.95,2.38c-3.07,15.96,8.85,30.25,25.09,29.93
		c4.95-0.1,9.01,1.4,12.52,4.91c13.79,13.78,27.67,27.47,41.49,41.23c4.69,4.67,9.12,9.6,13.96,14.11c6.45,6,16.27,3.69,18.98-4.39
		c1.85-5.51-0.45-9.79-4.38-13.69c-17.64-17.5-35.11-35.16-52.79-52.63c-4.08-4.03-5.99-8.5-5.9-14.24
		c0.11-6.9-2.52-12.91-7.45-17.82c-6.43-6.4-17.32-8.89-24.72-5.38c4.63,4.59,9.07,9.13,13.68,13.5c1.84,1.74,2.04,3.5,1.08,5.62
		c-2.26,4.94-5.91,8.54-10.69,11.04c-2.58,1.35-4.64,1.12-6.77-1.21C37.62,30.14,33.19,25.91,28.61,21.3"/>
		
</g>
</svg>
