<?xml version="1.0" encoding="utf-8"?>
<!-- Generator: Adobe Illustrator 24.0.0, SVG Export Plug-In . SVG Version: 6.00 Build 0)  -->
<svg version="1.1" id="Livello_1" xmlns="http://www.w3.org/2000/svg" xmlns:xlink="http://www.w3.org/1999/xlink" x="0px" y="0px"
	 viewBox="0 0 68.09 62.34" style="enable-background:new 0 0 68.09 62.34;" xml:space="preserve">
<style type="text/css">
	.st0{clip-path:url(#SVGID_2_);fill:#FAF0B5;}
	.st1{fill:#FAF0B5;}
	.st2{clip-path:url(#SVGID_4_);fill:#FAF0B5;}
</style>
<g>
	<defs>
		<rect id="SVGID_1_" x="8.68" y="7.08" width="50.73" height="48.18"/>
	</defs>
	<clipPath id="SVGID_2_">
		<use xlink:href="#SVGID_1_"  style="overflow:visible;"/>
	</clipPath>
	<path class="st0" d="M59.41,55.26c-0.22,0-0.43-0.01-0.64-0.01c-16.47,0-32.94,0-49.41,0H8.68v-3.73h0.68c16.45,0,32.91,0,49.36,0
		c0.23,0,0.46-0.02,0.69-0.03V55.26z"/>
</g>
<rect x="52.88" y="10.71" class="st1" width="4.94" height="39.73"/>
<g>
	<defs>
		<rect id="SVGID_3_" x="8.68" y="7.08" width="50.73" height="48.18"/>
	</defs>
	<clipPath id="SVGID_4_">
		<use xlink:href="#SVGID_3_"  style="overflow:visible;"/>
	</clipPath>
	<path class="st2" d="M42.69,12.2c-0.21,0.05-0.41,0.14-0.62,0.14c-0.4,0.01-0.83,0.05-1.21-0.06c-0.61-0.18-1.01-0.62-1.07-1.29
		c-0.05-0.56,0.31-1.17,0.94-1.38c2.65-0.86,5.31-1.69,8.02-2.55c0.15,1.05,0.29,2.04,0.43,3.03c0.16,1.16,0.31,2.32,0.48,3.48
		c0.1,0.71,0.1,1.37-0.58,1.81c-0.7,0.45-1.42,0.46-2.15,0.04c-0.41-0.24-0.65-0.6-0.71-1.07c-0.04-0.28-0.07-0.56-0.12-0.88
		c-0.08,0.06-0.15,0.09-0.19,0.15c-4.25,5.66-9.46,10.36-14.9,14.82c-4.93,4.03-10.07,7.76-15.38,11.26
		c-0.56,0.37-1.15,0.6-1.82,0.43c-0.66-0.16-1.15-0.53-1.27-1.23c-0.12-0.67,0.26-1.11,0.78-1.48c3.77-2.68,7.59-5.29,11.28-8.07
		c5.08-3.81,9.91-7.92,14.28-12.55c1.36-1.44,2.61-2.98,3.91-4.47C42.75,12.29,42.72,12.25,42.69,12.2"/>
</g>
<rect x="43.81" y="19.56" class="st1" width="4.96" height="30.89"/>
<rect x="35.04" y="28.73" class="st1" width="4.95" height="21.72"/>
<rect x="25.99" y="38.32" class="st1" width="4.94" height="12.13"/>
<rect x="16.39" y="43.08" class="st1" width="4.94" height="7.37"/>
</svg>
