<?xml version="1.0" encoding="utf-8"?>
<!-- Generator: Adobe Illustrator 24.0.0, SVG Export Plug-In . SVG Version: 6.00 Build 0)  -->
<svg version="1.1" id="Livello_1" xmlns="http://www.w3.org/2000/svg" xmlns:xlink="http://www.w3.org/1999/xlink" x="0px" y="0px"
	 viewBox="0 0 167.53 129.5" style="enable-background:new 0 0 167.53 129.5;" xml:space="preserve">
<style type="text/css">
	.st0{fill:#FFFFFF;}
</style>
<g>
	<path class="st0" d="M35.25,54.68c0.12-0.5,0.23-0.93,0.31-1.37c2.27-11.26,7.09-21.2,15.37-29.3C65.12,10.13,85.62,8.09,101.64,19
		c9.43,6.42,15.58,15.33,19.3,25.99c1.05,3.02,1.77,6.17,2.67,9.36c0.69-0.27,1.35-0.53,2.12-0.82c-0.28-1.9-0.39-3.71-0.83-5.46
		c-0.67-2.68-1.33-5.4-2.37-7.95c-9.95-24.55-38.55-35.92-62.56-24.66c-15.27,7.16-24.14,19.31-26.6,36.06
		C33.16,52.94,32.96,54.43,35.25,54.68 M119.82,65.37c-10.68-0.25-20.61-2.46-30.07-6.74c-9.47-4.28-17.74-10.2-24.78-18.8
		c-0.39,0.65-0.63,1.24-1.03,1.69c-6.89,7.64-15.12,13.44-24.48,17.65c-1.05,0.47-1.42,0.99-1.38,2.14c0.09,2.83,0.07,5.66,0.02,8.5
		c-0.08,4.16-3.16,7.13-7.28,7.11c-4.04-0.02-7.12-3.13-7.16-7.27c-0.03-3-0.03-6.01,0.01-9.01c0.03-2.72,1.26-4.89,3.67-6.06
		c1.34-0.65,1.58-1.56,1.7-2.77c1.02-10.67,5.14-20.04,12.33-27.93C52.14,12.05,65.65,6.4,81.65,7.03
		c23.07,0.91,42.03,16.66,47.28,39.15c0.49,2.08,0.7,4.24,0.94,6.37c0.11,1.02,0.39,1.74,1.32,2.35c2.07,1.38,3.07,3.42,3.08,5.92
		c0.01,2.95,0.01,5.89,0,8.84c-0.01,2.64-1.19,4.63-3.31,6.18c-0.51,0.37-1.01,1.06-1.08,1.66c-2.03,16.2-9.93,28.65-23.74,37.33
		c-1.01,0.63-1.46,1.25-1.57,2.48c-0.4,4.25-3.74,7.21-7.98,7.31c-4.1,0.09-7.63-2.85-8.24-6.87c-0.58-3.82,1.83-7.65,5.68-8.77
		c2.98-0.87,5.76-0.32,8.03,1.86c0.79,0.76,1.35,0.72,2.19,0.18c11.83-7.6,18.82-18.35,21.06-32.22c0.19-1.19,0.12-2.03-1.32-2.61
		c-2.63-1.06-4.03-3.22-4.14-6.09C119.77,68.59,119.82,67.07,119.82,65.37"/>
	<path class="st0" d="M67.05,76.34c-2.57,0-4.59-1.93-4.62-4.43c-0.04-2.49,2.15-4.64,4.68-4.6c2.48,0.04,4.57,2.14,4.54,4.56
		C71.63,74.36,69.58,76.35,67.05,76.34"/>
	<path class="st0" d="M91.98,76.33c-2.51,0.03-4.58-1.94-4.63-4.41c-0.05-2.42,2.01-4.53,4.49-4.6c2.53-0.07,4.7,2.03,4.69,4.54
		C96.52,74.37,94.54,76.31,91.98,76.33"/>
</g>
</svg>
