<?xml version="1.0" encoding="utf-8"?>
<!-- Generator: Adobe Illustrator 24.0.0, SVG Export Plug-In . SVG Version: 6.00 Build 0)  -->
<svg version="1.1" id="Livello_1" xmlns="http://www.w3.org/2000/svg" xmlns:xlink="http://www.w3.org/1999/xlink" x="0px" y="0px"
	 viewBox="0 0 167.53 129.5" style="enable-background:new 0 0 167.53 129.5;" xml:space="preserve">
<style type="text/css">
	.st0{clip-path:url(#SVGID_2_);fill:#FFFFFF;}
</style>
<g>
	<defs>
		<rect id="SVGID_1_" x="38.44" y="17.89" width="90.65" height="93.72"/>
	</defs>
	<clipPath id="SVGID_2_">
		<use xlink:href="#SVGID_1_"  style="overflow:visible;"/>
	</clipPath>
	<path class="st0" d="M82.54,50.43c-0.95-0.43-1.89-0.92-2.87-1.27c-1.26-0.45-2.54-0.85-3.84-1.16c-1.22-0.29-2.47-0.46-3.71-0.62
		c-0.83-0.1-1.47,0.37-1.51,1.16c-0.03,0.52,0.33,1.14,0.69,1.57c0.22,0.25,0.77,0.24,1.18,0.3c12.99,1.81,22.77,12.24,23.57,25.36
		c0.15,2.39-0.27,4.83-0.45,7.24c-0.07,0.93,0.25,1.6,1.17,1.79c0.87,0.18,1.46-0.28,1.71-1.11c0.15-0.48,0.23-0.98,0.31-1.47
		C100.84,69.14,94.34,56.45,82.54,50.43 M92,38.95c-2.27-0.85-4.5-1.84-6.83-2.52c-2.08-0.61-4.25-0.92-6.39-1.32
		c-1.01-0.19-1.8,0.23-1.91,1.3c-0.1,0.99,0.49,1.55,1.49,1.66c0.33,0.04,0.66,0.09,1,0.14c17.5,2.5,30.55,17.43,30.59,35.11
		c0.01,2.41-0.39,4.83-0.67,7.24c-0.12,1.04,0.15,1.8,1.2,1.99c0.98,0.18,1.57-0.39,1.74-1.37c0.03-0.21,0.09-0.41,0.13-0.61
		C115.49,63.84,107.11,46.81,92,38.95 M95.87,23.2c-3.56-1.23-7.07-2.61-10.68-3.63c-2.81-0.79-5.74-1.16-8.62-1.65
		c-0.98-0.17-1.67,0.36-1.75,1.36c-0.08,0.92,0.45,1.48,1.4,1.6c0.21,0.03,0.42,0.05,0.62,0.08c9.62,1.23,18.53,4.45,26.21,10.39
		c18.3,14.16,25.63,32.78,22.09,55.66c-0.29,1.85-0.1,2.6,0.92,2.82c1.09,0.24,1.68-0.42,2.02-2.28
		C132.94,61.15,119.9,35.26,95.87,23.2 M58.02,64.74c1.34-0.73,2.55-1.25,3.59-1.99c5.99-4.28,5.88-7.93,3.39-12.79
		c-0.04-0.07-0.08-0.15-0.12-0.22c-2.19-3.95-5.07-7.37-8.23-10.57c-0.64-0.65-1.35-0.79-2.17-0.38c-1.76,0.87-3.6,1.62-5.27,2.64
		C40.75,46.64,37,54.98,38.94,64.72c0.59,2.97,1.51,5.96,2.8,8.69c4.98,10.56,12.07,19.67,20.27,27.9c3.78,3.79,8.12,6.83,13.2,8.75
		c10.68,4.04,19.95-0.4,25.68-7.1c0.41-0.48,0.7-1.52,0.46-2.01c-2.41-4.86-5.19-9.48-9.41-13.04c-2.47-2.09-5.19-2.49-8.2-1.22
		c-2.45,1.03-4.39,2.7-6.25,4.88C70.97,82.59,64.52,73.7,58.02,64.74"/>
</g>
</svg>
