<?xml version="1.0" encoding="utf-8"?>
<!-- Generator: Adobe Illustrator 24.0.0, SVG Export Plug-In . SVG Version: 6.00 Build 0)  -->
<svg version="1.1" id="Livello_1" xmlns="http://www.w3.org/2000/svg" xmlns:xlink="http://www.w3.org/1999/xlink" x="0px" y="0px"
	 viewBox="0 0 167.53 129.5" style="enable-background:new 0 0 167.53 129.5;" xml:space="preserve">
<style type="text/css">
	.st0{clip-path:url(#SVGID_2_);fill:#FFFFFF;}
</style>
<g>
	<defs>
		<rect id="SVGID_1_" x="5.9" y="19.31" width="155.72" height="90.89"/>
	</defs>
	<clipPath id="SVGID_2_">
		<use xlink:href="#SVGID_1_"  style="overflow:visible;"/>
	</clipPath>
	<path class="st0" d="M20.43,85.49c2.13,0,4.27,0.03,6.4-0.01c2.05-0.03,3.22-1.04,3.19-2.64c-0.04-1.55-1.15-2.51-3.12-2.53
		c-4.27-0.04-8.54-0.03-12.8,0c-2.04,0.01-3.22,1.05-3.18,2.64c0.04,1.55,1.15,2.49,3.11,2.53C16.16,85.52,18.3,85.49,20.43,85.49
		 M17.92,49.19c2.94,0,5.88,0.02,8.82-0.01c2.1-0.02,3.25-0.94,3.28-2.54c0.03-1.6-1.14-2.62-3.2-2.63
		c-5.88-0.03-11.76-0.02-17.64,0c-2.08,0.01-3.25,0.96-3.28,2.55c-0.03,1.66,1.16,2.61,3.37,2.63
		C12.16,49.21,15.04,49.2,17.92,49.19 M34.41,67.35c4.79,0,9.57,0.01,14.36,0c2.39,0,3.6-0.86,3.64-2.54
		c0.04-1.73-1.22-2.63-3.71-2.65c-0.06,0-0.11,0-0.17,0c-9.45,0-18.91,0-28.36,0c-0.52,0-1.04-0.01-1.55,0.08
		c-1.36,0.24-2.21,1.08-2.23,2.46c-0.02,1.47,0.85,2.34,2.3,2.58c0.51,0.08,1.03,0.07,1.55,0.07
		C24.96,67.35,29.68,67.35,34.41,67.35 M116.19,64.76c0.9-0.85,1.65-1.56,2.4-2.25c8.53-7.85,17.07-15.69,25.59-23.54
		c0.42-0.39,0.85-0.79,1.18-1.25c0.79-1.09,0.69-2.2-0.21-3.15c-0.9-0.94-2.01-1.12-3.14-0.42c-0.58,0.36-1.1,0.84-1.61,1.3
		c-11.73,10.76-23.45,21.52-35.18,32.28c-1.69,1.55-3.39,3.07-5.12,4.63c-0.44-0.37-0.76-0.61-1.05-0.88
		C88.31,61.65,77.55,51.79,66.8,41.93c-2.59-2.38-5.18-4.77-7.79-7.12c-1.53-1.38-2.98-1.42-4.13-0.22
		c-1.07,1.12-0.88,2.51,0.54,3.94c0.28,0.29,0.58,0.56,0.88,0.83c8.03,7.37,16.05,14.74,24.08,22.12c1.14,1.04,2.25,2.1,3.68,3.43
		c-0.54,0.36-0.96,0.57-1.3,0.88c-8.28,7.61-16.56,15.22-24.83,22.84c-1.06,0.98-2.15,1.93-3.1,3.01c-0.93,1.05-0.84,2.25,0.07,3.3
		c0.88,1.01,2,1.07,3.14,0.47c0.45-0.24,0.84-0.6,1.22-0.95c6.97-6.39,13.94-12.79,20.91-19.18c2.5-2.29,5.01-4.57,7.6-6.91
		c0.54,0.45,0.99,0.8,1.4,1.18c2.77,2.53,5.53,5.07,8.29,7.6c2.07,1.9,3.05,1.9,5.18-0.01c0.99-0.88,1.95-1.8,2.93-2.69
		c2.21-2.01,4.41-4.02,6.69-6.09c0.61,0.52,1.1,0.91,1.56,1.33c7.32,6.69,14.63,13.39,21.95,20.09c1.96,1.79,3.84,3.67,5.94,5.29
		c0.66,0.51,2.06,0.65,2.81,0.3c0.67-0.32,1.23-1.53,1.26-2.37c0.02-0.71-0.66-1.57-1.26-2.13c-4.08-3.83-8.21-7.6-12.33-11.39
		C126.93,74.64,121.67,69.8,116.19,64.76 M100.12,19.32c-15.69,0-31.38-0.02-47.07,0.01c-8.55,0.02-14.35,5.49-14.54,13.8
		c-0.13,5.54-0.05,11.08,0,16.61c0.01,0.71,0.14,1.71,0.61,2.05c0.75,0.54,1.87,1,2.73,0.86c1.34-0.21,1.82-1.44,1.82-2.78
		c0-5.25-0.01-10.5,0-15.75c0.01-6.22,3.4-9.61,9.65-9.61c31.15-0.01,62.3-0.01,93.44,0c6.25,0,9.64,3.39,9.65,9.61
		c0.01,8.13,0,16.27,0,24.4c0,12.35,0.01,24.69-0.01,37.04c-0.01,5.99-3.46,9.4-9.48,9.43c-1.15,0.01-2.31,0-3.46,0
		c-30.05,0-60.1,0-90.16,0c-6.25,0-9.63-3.39-9.65-9.61c-0.01-2.71,0-5.42,0-8.13c0-2.71,0.11-5.43-0.09-8.13
		c-0.06-0.86-0.82-2.01-1.57-2.37c-0.68-0.32-2.04-0.04-2.63,0.5c-0.6,0.55-0.85,1.73-0.86,2.64c-0.08,5.31-0.07,10.62-0.03,15.92
		c0.06,8.62,5.72,14.35,14.35,14.36c31.49,0.04,62.99,0.04,94.48,0c8.52-0.01,14.25-5.74,14.27-14.24
		c0.05-20.77,0.06-41.54-0.05-62.31c-0.01-2.24-0.48-4.66-1.45-6.67c-2.58-5.37-7.2-7.66-13.08-7.65
		C131.38,19.33,115.75,19.32,100.12,19.32"/>
</g>
</svg>
