<?xml version="1.0" encoding="utf-8"?>
<!-- Generator: Adobe Illustrator 24.0.0, SVG Export Plug-In . SVG Version: 6.00 Build 0)  -->
<svg version="1.1" id="Livello_1" xmlns="http://www.w3.org/2000/svg" xmlns:xlink="http://www.w3.org/1999/xlink" x="0px" y="0px"
	 viewBox="0 0 167.53 129.5" style="enable-background:new 0 0 167.53 129.5;" xml:space="preserve">
<style type="text/css">
	.st0{clip-path:url(#SVGID_2_);fill:#FFFFFF;}
</style>
<g>
	<defs>
		<rect id="SVGID_1_" x="30.34" y="8.96" width="106.84" height="111.59"/>
	</defs>
	<clipPath id="SVGID_2_">
		<use xlink:href="#SVGID_1_"  style="overflow:visible;"/>
	</clipPath>
	<path class="st0" d="M68.65,71.5c0.12,0.87,0.22,2.5,0.58,4.07c1.09,4.76,4.81,7.33,9.64,6.74c2.04-0.25,3.84-1.12,5.45-2.34
		c4.53-3.44,7.44-8.06,8.85-13.47c1.19-4.58,1.89-9.31,2.68-13.99c0.65-3.83-1.93-6.7-5.83-6.6c-4.94,0.13-9.19,2.01-12.78,5.34
		C71.58,56.51,69.04,63.15,68.65,71.5 M94.41,80.73c-0.73,1.02-1.31,1.82-1.87,2.62c-3.57,5.06-8.2,8.55-14.37,9.75
		c-4.61,0.9-9.16,0.9-13.43-1.42c-4.94-2.68-7.72-6.99-9.03-12.33c-1.22-4.99-0.94-9.98,0.21-14.95c2.69-11.63,9.31-20.19,20-25.5
		c6.35-3.15,13.15-4.17,20.17-3.57c2.98,0.26,5.95,0.8,8.88,1.41c3.73,0.77,5.7,3.9,5.03,7.63c-0.95,5.32-1.94,10.64-2.84,15.97
		c-0.72,4.28-1.47,8.56-1.94,12.86c-0.24,2.14-0.1,4.39,0.25,6.52c0.49,2.97,2.34,4.3,5.33,4.08c4.64-0.33,8.28-2.65,11.25-6.07
		c2.74-3.14,4.26-6.9,5.06-10.94c1.68-8.52,1.75-17-1.29-25.25c-4.26-11.56-12.59-18.84-24.37-22.07
		c-10.17-2.79-20.31-2.09-30.14,1.6c-13.94,5.23-23.06,15.34-28.44,29.02c-1.96,4.97-3.19,10.15-3.56,15.48
		c-0.7,10.12,0.71,19.81,6.39,28.49c5.82,8.89,14.16,14.23,24.45,16.36c11.17,2.32,22.09,1.03,32.66-3.22
		c2.11-0.85,3.33-0.29,4.04,1.85c0.34,1.04,0.7,2.07,0.99,3.13c0.4,1.45-0.17,2.62-1.56,3.19c-12.31,5.08-25.1,6.63-38.06,3.69
		c-19.45-4.41-31.61-16.66-36.55-36.02c-4.04-21.96,0.96-41.38,16.62-57.57c8.34-8.63,18.76-13.61,30.58-15.58
		c10.01-1.66,19.94-1.3,29.47,2.45c15.93,6.26,25.24,18.06,28.03,34.86c1.5,9.04,0.97,18.04-2.05,26.77
		c-2.44,7.06-6.6,12.83-13.31,16.45c-5.25,2.83-10.89,3.92-16.79,2.86c-5.19-0.93-8.4-4.41-9.3-9.63
		C94.77,82.78,94.61,81.9,94.41,80.73"/>
</g>
</svg>
