<?xml version="1.0" encoding="utf-8"?>
<!-- Generator: Adobe Illustrator 24.0.0, SVG Export Plug-In . SVG Version: 6.00 Build 0)  -->
<svg version="1.1" id="Livello_1" xmlns="http://www.w3.org/2000/svg" xmlns:xlink="http://www.w3.org/1999/xlink" x="0px" y="0px"
	 viewBox="0 0 68.09 65.32" style="enable-background:new 0 0 68.09 65.32;" xml:space="preserve">
<style type="text/css">
	.st0{clip-path:url(#SVGID_2_);fill:#FAF0B5;}
</style>
<g>
	<defs>
		<rect id="SVGID_1_" x="9.8" y="6.74" width="51.87" height="51.85"/>
	</defs>
	<clipPath id="SVGID_2_">
		<use xlink:href="#SVGID_1_"  style="overflow:visible;"/>
	</clipPath>
	<path class="st0" d="M58.23,33.03C58.38,20.54,48.47,10.36,36,10.2c-12.33-0.16-22.58,9.79-22.74,22.08
		c-0.17,12.44,9.76,22.7,22.09,22.85C47.83,55.28,58.07,45.38,58.23,33.03 M35.75,6.74c14.34,0,25.94,11.61,25.93,25.94
		c-0.01,14.34-11.62,25.92-25.96,25.9C21.36,58.57,9.78,46.97,9.8,32.63C9.82,18.31,21.42,6.74,35.75,6.74"/>
	<path class="st0" d="M47.43,37.07H24.05c0.54,4.97,5.2,10.07,11.65,10.09C42.19,47.19,46.88,42.07,47.43,37.07 M35.73,50.62
		c-7.85-0.01-14.44-5.96-15.22-13.77c-0.05-0.5-0.07-1.01-0.07-1.52c0-0.94,0.64-1.63,1.57-1.73c0.12-0.01,0.23-0.01,0.35-0.01
		c8.92,0,17.84,0,26.76,0c0.65,0,1.24,0.15,1.59,0.72c0.2,0.33,0.34,0.75,0.33,1.13c-0.15,5.68-2.67,10.03-7.47,13.03
		C41.18,49.95,38.53,50.61,35.73,50.62"/>
	<path class="st0" d="M25.66,23.8c1.74,0.02,3.26,0.63,4.54,1.83c0.77,0.73,0.83,1.78,0.15,2.5c-0.67,0.72-1.74,0.72-2.51,0.01
		c-1.32-1.21-3.11-1.21-4.44,0c-0.77,0.71-1.84,0.7-2.51-0.02c-0.67-0.71-0.6-1.79,0.16-2.51C22.34,24.41,23.87,23.81,25.66,23.8"/>
	<path class="st0" d="M45.86,23.8c1.76,0.02,3.28,0.61,4.56,1.81c0.77,0.72,0.84,1.78,0.19,2.51c-0.67,0.74-1.75,0.75-2.54,0.02
		c-1.31-1.19-3.11-1.2-4.41,0c-0.78,0.71-1.84,0.72-2.51,0.01c-0.69-0.73-0.64-1.79,0.15-2.53C42.58,24.41,44.1,23.81,45.86,23.8"/>
</g>
</svg>
