<?xml version="1.0" encoding="utf-8"?>
<!-- Generator: Adobe Illustrator 24.0.0, SVG Export Plug-In . SVG Version: 6.00 Build 0)  -->
<svg version="1.1" id="Livello_1" xmlns="http://www.w3.org/2000/svg" xmlns:xlink="http://www.w3.org/1999/xlink" x="0px" y="0px"
	 viewBox="0 0 68.09 65.32" style="enable-background:new 0 0 68.09 65.32;" xml:space="preserve">
<style type="text/css">
	.st0{clip-path:url(#SVGID_2_);fill:#FAF0B5;}
	.st1{clip-path:url(#SVGID_2_);fill:none;stroke:#FAF0B5;stroke-width:1.2;stroke-miterlimit:10;}
</style>
<g>
	<defs>
		<rect id="SVGID_1_" x="10.98" y="5.16" width="46.12" height="54.99"/>
	</defs>
	<clipPath id="SVGID_2_">
		<use xlink:href="#SVGID_1_"  style="overflow:visible;"/>
	</clipPath>
	<path class="st0" d="M22.85,32.84c-1.74,1.34-1.9,1.84-1.16,3.4c0.61,1.28,1.69,1.69,3.25,1.15
		C24.24,35.87,23.55,34.36,22.85,32.84 M46.84,26.73c0,1.49-0.05,2.98,0.03,4.47c0.03,0.46,0.28,1.15,0.62,1.32
		c1.91,0.94,4.09-0.51,4.15-2.72c0.05-2.03,0.06-4.07-0.02-6.11c-0.03-0.65-0.29-1.37-0.66-1.9c-0.87-1.25-2.24-1.06-3.37-0.71
		c-0.41,0.12-0.65,1.34-0.72,2.08C46.75,24.34,46.84,25.54,46.84,26.73 M21.21,26.83c0-1.49,0.05-2.98-0.03-4.47
		c-0.02-0.46-0.29-1.15-0.63-1.31c-2-0.98-4.07,0.39-4.13,2.69c-0.05,2.08-0.05,4.17,0.01,6.25c0.04,1.48,0.92,2.47,2.21,2.64
		c2.22,0.3,2.57-0.03,2.58-2.38C21.22,29.12,21.22,27.98,21.21,26.83 M48.38,19.02C48,11.3,39.7,6.54,33.29,7.03
		C25.68,7.6,19.5,13.1,19.75,19.15c0.59,0.08,1.18,0.15,1.81,0.23c0.16-0.46,0.31-0.87,0.45-1.29c1.99-5.87,5.92-8.82,11.9-8.91
		c5.87-0.09,10.05,2.85,12.01,8.69C46.43,19.36,47.09,19.56,48.38,19.02 M54.87,57.73c-0.07-1.21-0.17-2.3-0.19-3.38
		c-0.05-2.05-1.02-3.39-2.82-4.02c-2.33-0.82-4.63-1.86-7.03-2.26c-3.54-0.6-5.43-2.89-6.82-6.02c-0.37-0.83-0.18-1.33,0.41-1.94
		c1.12-1.13,2.32-2.25,3.16-3.6c2.91-4.71,4.09-9.91,3.46-15.51c-0.65-5.78-4.86-9.92-10.21-10.15c-6.06-0.27-10.57,3.21-11.65,9.2
		c-1.07,5.96,0.25,11.44,3.34,16.51c0.92,1.5,3.53,1.66,4.57,0.23c0.76-1.05,3.36-1.21,4.09-0.15c0.28,0.41,0.45,1.24,0.24,1.61
		c-0.29,0.5-0.97,0.99-1.51,1.04c-1.57,0.14-3.17,0.05-4.68,0.05c0.36,0.85,1.06,1.71,0.88,2.22c-1.13,3.12-2.84,5.6-6.3,6.4
		c-2.88,0.67-5.68,1.78-8.46,2.87c-0.69,0.27-1.48,1.12-1.65,1.85c-0.37,1.6-0.38,3.3-0.55,5.05H54.87z M45.19,32.73
		c-1.17,3.15-2.73,6.07-5.19,8.37c-0.19,0.17-0.23,0.75-0.1,1.02c0.94,2.02,2.2,3.54,4.5,4.12c3.01,0.76,5.95,1.87,8.88,2.97
		c1.87,0.7,2.77,2.3,2.89,4.38c0.08,1.44,0.19,2.88,0.31,4.31c0.11,1.23-0.38,1.67-1.55,1.66c-4.21-0.05-8.42-0.02-12.63-0.02
		c-9.6,0-19.21,0.01-28.81,0.01c-1.92,0-1.93-0.01-1.92-1.97c0.01-1.04,0.1-2.08,0.12-3.13c0.07-3.1,1.64-5,4.35-5.9
		c2.61-0.86,5.23-1.7,7.88-2.39c2.23-0.58,3.4-2.22,4.3-4.19c0.32-0.71-1.45-2.54-2.55-2.67c-0.42-0.05-0.85,0.02-1.27,0.03
		c-2.59,0.06-4-1.04-4.55-3.69c-0.18-0.85-0.46-1.21-1.34-1.34c-2.32-0.34-3.68-2-3.75-4.48c-0.05-1.99-0.04-3.98,0-5.97
		c0.03-1.83,0.77-3.22,2.31-4.17c0.42-0.26,0.9-0.8,0.98-1.27c0.84-5.23,3.81-8.67,8.22-10.83c7.45-3.64,16.51-1.62,21.16,4.62
		c1.34,1.8,2.21,3.79,2.56,6.06c0.08,0.49,0.47,1.08,0.88,1.33c1.64,1,2.42,2.46,2.43,4.41c0.01,1.89,0.04,3.78-0.01,5.67
		c-0.12,3.97-3.11,5.37-6.41,4.45C46.27,33.93,45.79,33.23,45.19,32.73"/>
	<path class="st1" d="M22.85,32.84c-1.74,1.34-1.9,1.84-1.16,3.4c0.61,1.28,1.69,1.69,3.25,1.15
		C24.24,35.87,23.55,34.36,22.85,32.84z M46.84,26.73c0,1.49-0.05,2.98,0.03,4.47c0.03,0.46,0.28,1.15,0.62,1.32
		c1.91,0.94,4.09-0.51,4.15-2.72c0.05-2.03,0.06-4.07-0.02-6.11c-0.03-0.65-0.29-1.37-0.66-1.9c-0.87-1.25-2.24-1.06-3.37-0.71
		c-0.41,0.12-0.65,1.34-0.72,2.08C46.75,24.34,46.84,25.54,46.84,26.73z M21.21,26.83c0-1.49,0.05-2.98-0.03-4.47
		c-0.02-0.46-0.29-1.15-0.63-1.31c-2-0.98-4.07,0.39-4.13,2.69c-0.05,2.08-0.05,4.17,0.01,6.25c0.04,1.48,0.92,2.47,2.21,2.64
		c2.22,0.3,2.57-0.03,2.58-2.38C21.22,29.12,21.22,27.98,21.21,26.83z M48.38,19.02C48,11.3,39.7,6.54,33.29,7.03
		C25.68,7.6,19.5,13.1,19.75,19.15c0.59,0.08,1.18,0.15,1.81,0.23c0.16-0.46,0.31-0.87,0.45-1.29c1.99-5.87,5.92-8.82,11.9-8.91
		c5.87-0.09,10.05,2.85,12.01,8.69C46.43,19.36,47.09,19.56,48.38,19.02z M54.87,57.73c-0.07-1.21-0.17-2.3-0.19-3.38
		c-0.05-2.05-1.02-3.39-2.82-4.02c-2.33-0.82-4.63-1.86-7.03-2.26c-3.54-0.6-5.43-2.89-6.82-6.02c-0.37-0.83-0.18-1.33,0.41-1.94
		c1.12-1.13,2.32-2.25,3.16-3.6c2.91-4.71,4.09-9.91,3.46-15.51c-0.65-5.78-4.86-9.92-10.21-10.15c-6.06-0.27-10.57,3.21-11.65,9.2
		c-1.07,5.96,0.25,11.44,3.34,16.51c0.92,1.5,3.53,1.66,4.57,0.23c0.76-1.05,3.36-1.21,4.09-0.15c0.28,0.41,0.45,1.24,0.24,1.61
		c-0.29,0.5-0.97,0.99-1.51,1.04c-1.57,0.14-3.17,0.05-4.68,0.05c0.36,0.85,1.06,1.71,0.88,2.22c-1.13,3.12-2.84,5.6-6.3,6.4
		c-2.88,0.67-5.68,1.78-8.46,2.87c-0.69,0.27-1.48,1.12-1.65,1.85c-0.37,1.6-0.38,3.3-0.55,5.05H54.87z M45.19,32.73
		c-1.17,3.15-2.73,6.07-5.19,8.37c-0.19,0.17-0.23,0.75-0.1,1.02c0.94,2.02,2.2,3.54,4.5,4.12c3.01,0.76,5.95,1.87,8.88,2.97
		c1.87,0.7,2.77,2.3,2.89,4.38c0.08,1.44,0.19,2.88,0.31,4.31c0.11,1.23-0.38,1.67-1.55,1.66c-4.21-0.05-8.42-0.02-12.63-0.02
		c-9.6,0-19.21,0.01-28.81,0.01c-1.92,0-1.93-0.01-1.92-1.97c0.01-1.04,0.1-2.08,0.12-3.13c0.07-3.1,1.64-5,4.35-5.9
		c2.61-0.86,5.23-1.7,7.88-2.39c2.23-0.58,3.4-2.22,4.3-4.19c0.32-0.71-1.45-2.54-2.55-2.67c-0.42-0.05-0.85,0.02-1.27,0.03
		c-2.59,0.06-4-1.04-4.55-3.69c-0.18-0.85-0.46-1.21-1.34-1.34c-2.32-0.34-3.68-2-3.75-4.48c-0.05-1.99-0.04-3.98,0-5.97
		c0.03-1.83,0.77-3.22,2.31-4.17c0.42-0.26,0.9-0.8,0.98-1.27c0.84-5.23,3.81-8.67,8.22-10.83c7.45-3.64,16.51-1.62,21.16,4.62
		c1.34,1.8,2.21,3.79,2.56,6.06c0.08,0.49,0.47,1.08,0.88,1.33c1.64,1,2.42,2.46,2.43,4.41c0.01,1.89,0.04,3.78-0.01,5.67
		c-0.12,3.97-3.11,5.37-6.41,4.45C46.27,33.93,45.79,33.23,45.19,32.73z"/>
</g>
</svg>
