<?xml version="1.0" encoding="utf-8"?>
<!-- Generator: Adobe Illustrator 24.0.0, SVG Export Plug-In . SVG Version: 6.00 Build 0)  -->
<svg version="1.1" id="Livello_1" xmlns="http://www.w3.org/2000/svg" xmlns:xlink="http://www.w3.org/1999/xlink" x="0px" y="0px"
	 viewBox="0 0 167.53 129.5" style="enable-background:new 0 0 167.53 129.5;" xml:space="preserve">
<style type="text/css">
	.st0{clip-path:url(#SVGID_2_);}
	.st1{fill:#FFFFFF;}
</style>
<g>
	<defs>
		<rect id="SVGID_1_" x="-89.64" y="-85.42" width="346.81" height="300.34"/>
	</defs>
	<clipPath id="SVGID_2_">
		<use xlink:href="#SVGID_1_"  style="overflow:visible;"/>
	</clipPath>
	<g class="st0">
		<defs>
			<rect id="SVGID_3_" x="-89.64" y="-85.42" width="346.81" height="300.34"/>
		</defs>
		<clipPath id="SVGID_4_">
			<use xlink:href="#SVGID_3_"  style="overflow:visible;"/>
		</clipPath>
	</g>
</g>
<g>
	<path class="st1" d="M13.12,55.42c0.56-2.74,0.93-5.52,1.7-8.2c2.46-8.55,7.42-15.53,14-21.39c9.84-8.76,21.45-13.85,34.32-16.19
		c15.31-2.79,30.31-1.58,44.84,4.08c10.14,3.95,18.99,9.85,25.87,18.41c5.11,6.35,8.45,13.53,9.44,21.69c0.04,0.31,0,0.63,0,0.9
		c-3.31-1.11-6.61-2.18-9.88-3.33c-0.34-0.12-0.64-0.63-0.76-1.02c-2.58-8.4-7.94-14.71-14.91-19.79
		c-9.45-6.88-20.13-10.46-31.68-11.61c-11.61-1.16-22.93,0.09-33.83,4.37c-9.1,3.57-16.97,8.88-22.99,16.74
		C21.47,50.2,20.8,63.64,27.6,74.42c5.23,8.29,12.74,13.87,21.5,17.92c5.92,2.73,12.14,4.44,18.6,5.36c0.49,0.07,1.17,0.48,1.32,0.9
		c1.31,3.47,3.15,6.63,5.4,9.56c0.08,0.1,0.1,0.23,0.29,0.69c-3.41-0.39-6.63-0.68-9.82-1.16c-5.83-0.88-11.49-2.45-16.94-4.72
		c-0.78-0.33-1.35-0.18-2.02,0.23c-9.62,5.75-19.25,11.48-28.89,17.21c-0.42,0.25-0.85,0.49-1.57,0.91
		c0.26-0.73,0.39-1.15,0.55-1.55c3.84-9.39,7.66-18.79,11.55-28.16c0.36-0.88,0.24-1.37-0.41-2c-5.01-4.87-9.06-10.43-11.35-17.06
		c-1.14-3.31-1.66-6.84-2.45-10.27c-0.1-0.44-0.16-0.89-0.24-1.34V55.42z"/>
	<path class="st1" d="M114.84,108.94c1.59-0.18,4.49-0.35,7.33-0.86c7.83-1.42,14.76-4.64,20.34-10.49
		c6.2-6.5,7.53-15.18,3.36-22.71c-2.99-5.39-7.62-9.02-13.06-11.66c-8.09-3.94-16.67-5.02-25.52-3.83
		c-8.7,1.17-16.51,4.39-22.61,10.93c-4.63,4.96-6.78,10.8-5.27,17.59c1.27,5.7,4.81,9.94,9.41,13.33
		C96.16,106.67,104.55,108.74,114.84,108.94 M148.07,119.07c-4.58-2.33-8.89-4.48-13.14-6.73c-1.19-0.63-2.18-0.68-3.47-0.22
		c-13.58,4.84-26.97,4.44-40.01-1.85c-7.04-3.4-12.78-8.37-16.11-15.62c-4.29-9.33-3.11-18.23,2.95-26.35
		c6.18-8.29,14.86-12.7,24.79-14.72c11.28-2.29,22.24-1.17,32.63,3.96c7.06,3.49,12.82,8.44,16.19,15.72
		c3.86,8.32,3.18,16.43-1.56,24.2c-1.16,1.9-2.66,3.63-4.19,5.27c-0.82,0.88-1.05,1.64-0.81,2.79
		C146.28,109.92,147.13,114.33,148.07,119.07"/>
	<path class="st1" d="M94.73,83.96c-0.02,2.48,1.95,4.51,4.4,4.52c2.42,0.01,4.48-2.05,4.48-4.48c0-2.4-1.95-4.37-4.36-4.42
		C96.75,79.53,94.75,81.47,94.73,83.96 M118.02,84.08c0.03-2.52-1.89-4.48-4.39-4.5c-2.47-0.02-4.49,1.99-4.48,4.44
		c0.01,2.38,1.97,4.39,4.35,4.46C115.94,88.55,117.99,86.55,118.02,84.08 M132.54,84c-0.01-2.44-2.06-4.45-4.52-4.42
		c-2.43,0.03-4.36,1.96-4.39,4.39c-0.03,2.45,1.99,4.51,4.43,4.52C130.47,88.5,132.55,86.42,132.54,84"/>
	<path class="st1" d="M132.54,84c0.01,2.42-2.07,4.5-4.48,4.49c-2.43-0.01-4.45-2.07-4.43-4.52c0.03-2.43,1.96-4.36,4.39-4.39
		C130.48,79.55,132.53,81.56,132.54,84"/>
	<path class="st1" d="M118.02,84.08c-0.03,2.47-2.09,4.47-4.52,4.4c-2.39-0.07-4.35-2.08-4.36-4.46c-0.01-2.46,2.02-4.46,4.48-4.44
		C116.14,79.6,118.05,81.56,118.02,84.08"/>
	<path class="st1" d="M94.73,83.96c0.02-2.49,2.02-4.43,4.52-4.38c2.42,0.05,4.36,2.02,4.36,4.42c0,2.43-2.06,4.49-4.48,4.48
		C96.68,88.47,94.7,86.44,94.73,83.96"/>
</g>
</svg>
