<?xml version="1.0" encoding="utf-8"?>
<!-- Generator: Adobe Illustrator 24.0.0, SVG Export Plug-In . SVG Version: 6.00 Build 0)  -->
<svg version="1.1" id="Livello_1" xmlns="http://www.w3.org/2000/svg" xmlns:xlink="http://www.w3.org/1999/xlink" x="0px" y="0px"
	 viewBox="0 0 68.09 65.32" style="enable-background:new 0 0 68.09 65.32;" xml:space="preserve">
<style type="text/css">
	.st0{fill:#FFFFFF;}
</style>
<g>
	<path class="st0" d="M31.08,38.54c-2.92-2.28-5.72-4.51-8.58-6.67c-0.69-0.52-1.54-0.98-2.37-1.13c-2.01-0.37-3.76,0.69-4.57,2.56
		c-0.92,2.1-0.38,4.47,1.45,5.93c4.1,3.25,8.21,6.48,12.35,9.68c2.2,1.7,4.75,1.25,6.34-1.09c6.02-8.91,12.03-17.84,18.01-26.78
		c1.59-2.37,1.07-5.48-1.06-6.92c-2.21-1.49-4.55-0.83-6.33,1.8c-3.34,4.95-6.67,9.92-10,14.88C34.6,33.35,32.87,35.89,31.08,38.54
		 M52.85,25.34c-0.95,1.38-1.94,2.69-2.76,4.09c-0.34,0.58-0.43,1.37-0.42,2.06c0.04,2.17,0.46,4.36,0.23,6.49
		C48.77,48.35,39.13,55.6,28.79,54.19c-10.08-1.37-17.45-11.19-15.92-21.16C14.7,21.07,27,13.79,38.19,18.19
		c1.24,0.49,2.81,1.62,3.66,1.23c1.11-0.51,1.66-2.24,2.45-3.45c0.05-0.08,0.04-0.19,0.06-0.29c-7.79-5.73-21.04-5.76-29.81,2.95
		c-9.04,8.97-9.52,23.48-1.11,32.89c8.62,9.64,22.97,10.88,33.02,2.81C56.17,46.52,57.39,33.34,52.85,25.34"/>
</g>
</svg>
