<?xml version="1.0" encoding="UTF-8" standalone="no"?>
<!-- Created with Inkscape (http://www.inkscape.org/) -->

<svg
   xmlns:dc="http://purl.org/dc/elements/1.1/"
   xmlns:cc="http://creativecommons.org/ns#"
   xmlns:rdf="http://www.w3.org/1999/02/22-rdf-syntax-ns#"
   xmlns:svg="http://www.w3.org/2000/svg"
   xmlns="http://www.w3.org/2000/svg"
   xmlns:sodipodi="http://sodipodi.sourceforge.net/DTD/sodipodi-0.dtd"
   xmlns:inkscape="http://www.inkscape.org/namespaces/inkscape"
   width="210mm"
   height="297mm"
   viewBox="0 0 210 297"
   version="1.1"
   id="svg8"
   inkscape:version="0.92.4 (5da689c313, 2019-01-14)"
   sodipodi:docname="impostazioni-full_hover2.svg">
  <defs
     id="defs2" />
  <sodipodi:namedview
     id="base"
     pagecolor="#ffffff"
     bordercolor="#666666"
     borderopacity="1.0"
     inkscape:pageopacity="0.0"
     inkscape:pageshadow="2"
     inkscape:zoom="1.6009339"
     inkscape:cx="342.45023"
     inkscape:cy="482.15856"
     inkscape:document-units="mm"
     inkscape:current-layer="layer1"
     showgrid="false"
     inkscape:window-width="1920"
     inkscape:window-height="1001"
     inkscape:window-x="-9"
     inkscape:window-y="1341"
     inkscape:window-maximized="1" />
  <metadata
     id="metadata5">
    <rdf:RDF>
      <cc:Work
         rdf:about="">
        <dc:format>image/svg+xml</dc:format>
        <dc:type
           rdf:resource="http://purl.org/dc/dcmitype/StillImage" />
        <dc:title></dc:title>
      </cc:Work>
    </rdf:RDF>
  </metadata>
  <g
     inkscape:label="Layer 1"
     inkscape:groupmode="layer"
     id="layer1">
    <g
       style="clip-rule:evenodd;fill-rule:evenodd;stroke-linejoin:round;stroke-miterlimit:2"
       id="g829"
       transform="matrix(0.26458333,0,0,0.26458333,29.499874,111.8326)">
      <path
         id="path815"
         style="fill:#969cba;fill-rule:nonzero"
         d="m 326.107,137.628 -23.822,-4.107 c -2.45,-7.89 -5.641,-15.528 -9.528,-22.816 l 14.069,-19.849 c 5.892,-8.444 4.933,-20.03 -2.27,-27.378 L 283.228,42.26 c -3.92,-3.855 -9.262,-5.92 -14.745,-5.701 -4.383,-0.005 -8.662,1.347 -12.251,3.877 L 236.495,54.58 c -7.667,-4.14 -15.72,-7.502 -24.05,-10.037 L 208.59,21.726 C 206.825,11.58 197.961,4.117 187.719,4.16 H 157.772 C 147.58,4.133 138.786,11.618 137.125,21.726 l -4.083,22.587 c -7.89,2.453 -15.491,5.738 -22.689,9.812 L 90.844,39.982 C 87.038,37.605 82.617,36.412 78.141,36.559 72.522,36.45 67.099,38.679 63.167,42.72 L 41.84,63.937 c -7.204,7.349 -8.162,18.93 -2.271,27.379 l 14.293,20.073 c -3.806,7.326 -6.997,14.954 -9.529,22.817 l -22.683,4.107 c -10.057,1.67 -17.494,10.513 -17.473,20.763 v 30.116 c -0.038,10.3 7.384,19.214 17.473,20.988 l 24.273,4.107 c 2.516,7.901 5.783,15.545 9.758,22.816 l -14.07,19.39 c -5.891,8.448 -4.933,20.029 2.271,27.378 l 21.327,21.217 c 3.844,4.025 9.197,6.259 14.745,6.161 4.394,0.082 8.695,-1.276 12.251,-3.877 l 19.966,-14.144 c 7.258,3.751 14.854,6.812 22.684,9.123 l 3.86,24.185 c 1.759,10.147 10.629,17.61 20.871,17.566 h 29.946 c 10.193,0.028 18.987,-7.458 20.648,-17.566 l 4.083,-24.185 c 7.846,-2.464 15.442,-5.673 22.684,-9.583 l 19.737,14.149 c 3.627,2.453 7.885,3.8 12.251,3.877 5.614,0.082 11.026,-2.146 14.974,-6.16 l 21.099,-21.218 c 7.203,-7.348 8.167,-18.935 2.27,-27.378 l -14.064,-19.849 c 3.899,-7.277 7.089,-14.921 9.529,-22.817 l 24.044,-4.107 c 10.057,-1.67 17.495,-10.513 17.473,-20.758 v -30.115 c 0.076,-10.503 -7.786,-19.494 -18.153,-20.764 z m -1.585,50.879 c 0.006,0.92 -0.68,1.709 -1.59,1.824 l -29.718,5.93 c -3.735,0.608 -6.773,3.389 -7.715,7.074 -2.679,10.524 -6.888,20.594 -12.48,29.886 -2.069,3.182 -2.069,7.316 0,10.497 l 17.473,24.87 c 0.659,0.696 0.659,1.807 0,2.508 l -21.099,21.218 c -0.425,0.246 -0.942,0.246 -1.361,0 L 243.53,274.748 c -3.186,-2.026 -7.259,-2.026 -10.438,0 -9.322,5.624 -19.411,9.851 -29.947,12.545 -3.665,0.947 -6.431,4.002 -7.035,7.759 l -4.988,29.886 c -0.114,0.914 -0.903,1.604 -1.818,1.598 h -30.851 c -0.915,0.006 -1.704,-0.684 -1.819,-1.598 l -5.896,-31.025 c -0.599,-3.756 -3.371,-6.812 -7.035,-7.759 -10.22,-2.782 -20.054,-6.845 -29.267,-12.09 -1.426,-0.904 -3.076,-1.38 -4.764,-1.369 -1.955,0.044 -3.849,0.679 -5.445,1.823 l -24.954,17.796 c -0.435,0.175 -0.925,0.175 -1.361,0 L 56.813,271.096 c -0.566,-0.739 -0.566,-1.774 0,-2.508 l 17.467,-24.64 c 2.015,-3.203 2.015,-7.299 0,-10.497 -5.499,-9.341 -9.697,-19.4 -12.474,-29.886 -1.018,-3.685 -3.996,-6.505 -7.715,-7.304 l -30.176,-5.246 c 0,0 -1.361,0 -1.361,-1.823 v -30.116 c -0.027,-0.854 0.544,-1.615 1.361,-1.829 l 29.724,-5.015 c 3.73,-0.608 6.768,-3.39 7.71,-7.075 2.7,-10.551 6.822,-20.687 12.251,-30.116 1.911,-3.23 1.911,-7.266 0,-10.496 L 55.452,79.68 c -0.659,-0.701 -0.659,-1.813 0,-2.513 L 76.551,55.949 h 1.361 l 24.502,17.571 c 3.18,2.02 7.253,2.02 10.438,0 9.627,-5.777 20.124,-9.938 31.079,-12.32 3.491,-1.167 6.093,-4.134 6.807,-7.759 l 5.216,-30.346 c 0.114,-0.914 0.904,-1.604 1.818,-1.593 h 29.947 c 0.915,-0.011 1.699,0.679 1.813,1.593 l 4.993,29.891 c 0.654,3.729 3.398,6.757 7.03,7.754 10.753,2.688 21.066,6.915 30.627,12.55 3.147,2.141 7.296,2.141 10.438,0 l 24.502,-17.566 c 0.419,-0.246 0.942,-0.246 1.361,0 l 21.328,21.218 c 0.566,0.734 0.566,1.769 0,2.508 l -16.335,25.555 c -1.911,3.225 -1.911,7.266 0,10.491 5.592,9.374 9.796,19.52 12.475,30.116 0.996,3.652 4.007,6.417 7.715,7.074 l 29.718,5.021 c 0.91,0.115 1.596,0.904 1.59,1.824 v 30.115 z"
         inkscape:connector-curvature="0" />
      <path
         id="path817"
         style="fill:#969cba;fill-rule:nonzero"
         d="m 173.426,99.529 c -40.324,0 -73.506,33.368 -73.506,73.921 0,40.552 33.182,73.92 73.506,73.92 40.325,0 73.507,-33.368 73.507,-73.92 -0.126,-40.509 -33.231,-73.801 -73.507,-73.921 z m 0,128.447 c -29.745,0 -54.225,-24.613 -54.225,-54.526 0,-29.914 24.48,-54.532 54.225,-54.532 29.746,0 54.221,24.618 54.221,54.532 0,29.913 -24.475,54.526 -54.221,54.526 z"
         inkscape:connector-curvature="0" />
    </g>
    <path
       style="opacity:1;fill:#ef7f1a;fill-opacity:0.97282606;fill-rule:nonzero;stroke:#ff3d3d;stroke-width:2.36082673;stroke-linejoin:round;stroke-miterlimit:4;stroke-dasharray:1.18041337, 1.18041336999999991;stroke-dashoffset:0;stroke-opacity:1"
       d="m 268.55849,748.02727 c -0.15309,-0.43507 -1.68051,-8.16654 -3.39429,-17.18106 -1.71377,-9.01452 -3.38271,-16.88492 -3.70876,-17.48979 -1.3734,-2.54786 -3.98572,-3.97271 -12.26328,-6.6888 -4.80969,-1.57819 -12.70744,-4.83121 -17.55055,-7.22893 -4.84311,-2.39773 -9.41978,-4.3595 -10.17038,-4.3595 -2.65931,0 -6.05185,2.00145 -18.67938,11.02004 l -12.77279,9.12234 -10.88919,-10.85199 c -8.14666,-8.11883 -10.82915,-11.16662 -10.6508,-12.10125 0.1311,-0.6871 4.09896,-6.67104 8.81745,-13.29764 8.62915,-12.1187 10.36906,-15.10403 10.36906,-17.7912 0,-0.80233 -2.09016,-5.61866 -4.6448,-10.70295 -2.72558,-5.42449 -5.8407,-12.89559 -7.53904,-18.08113 -2.90254,-8.86235 -4.13574,-10.9952 -7.31324,-12.6484 -0.93224,-0.48503 -8.24047,-2.0115 -16.24052,-3.39216 -8.00005,-1.38066 -15.17799,-2.64898 -15.95098,-2.81849 l -1.40543,-0.30821 v -16.19176 c 0,-9.46468 0.24464,-16.34295 0.58885,-16.55568 0.32386,-0.20016 7.28074,-1.47835 15.45972,-2.84044 17.09882,-2.84754 19.66447,-3.77671 21.44655,-7.76706 0.62192,-1.39258 2.1536,-5.76445 3.40372,-9.71527 1.25012,-3.95081 4.26785,-11.25717 6.70606,-16.23633 4.88787,-9.98172 5.39002,-12.63053 3.12288,-16.47304 -0.67626,-1.14617 -5.00592,-7.25567 -9.62148,-13.57668 -4.61556,-6.32099 -8.61504,-11.86589 -8.88774,-12.32199 -0.34442,-0.57607 2.80737,-4.15205 10.32263,-11.71191 5.95014,-5.98546 11.18148,-10.88265 11.62521,-10.88265 0.44373,0 5.89376,3.67565 12.11117,8.16812 6.21742,4.49246 12.18931,8.70769 13.27087,9.36719 3.70938,2.26184 6.53146,1.68453 16.91451,-3.46019 6.23267,-3.08824 12.23238,-5.5062 17.75859,-7.15696 4.59022,-1.37116 9.04362,-2.95021 9.89644,-3.509 2.55447,-1.67375 3.68754,-5.46994 6.41709,-21.49952 1.431,-8.40372 2.7388,-15.50114 2.90622,-15.77204 0.46869,-0.75834 31.93798,-0.61451 32.40932,0.14813 0.21777,0.35237 1.50791,7.30924 2.86696,15.45972 1.35906,8.15048 2.74993,15.68622 3.09084,16.74609 1.15585,3.59349 3.46799,5.0151 13.46813,8.28081 5.90955,1.92986 12.67914,4.73904 18.12974,7.5233 8.9727,4.5834 11.80204,5.29628 14.78869,3.72614 0.7504,-0.3945 6.705,-4.55599 13.23244,-9.24776 6.52744,-4.69177 12.25077,-8.76178 12.71851,-9.04448 0.60669,-0.36667 3.96354,2.59529 11.71192,10.33418 5.97381,5.96649 10.86147,11.25155 10.86147,11.74456 0,0.49302 -3.78008,6.8341 -8.40018,14.0913 -4.62011,7.25718 -8.71821,14.02452 -9.10691,15.0385 -1.11242,2.90199 -0.31847,5.59651 4.38313,14.87543 2.75038,5.42807 5.4501,12.00194 7.23479,17.61687 2.45141,7.71251 3.14836,9.22196 5.01452,10.86047 1.19207,1.04664 2.22788,1.9032 2.30182,1.90345 1.14337,0.004 32.4471,5.6365 32.90783,5.92126 0.41383,0.25575 0.64458,5.72457 0.64458,15.27627 0,12.50177 -0.15052,15.00283 -0.94251,15.66012 -0.51838,0.43022 -8.29198,2.26984 -17.27465,4.08804 -20.20759,4.09028 -19.0875,3.31053 -23.28257,16.20799 -1.70118,5.23016 -4.75417,12.55083 -7.59607,18.21431 -4.29616,8.56163 -4.71136,9.70793 -4.33128,11.95765 0.30653,1.81435 2.94614,6.0938 9.74626,15.80106 5.12923,7.32205 9.32588,13.74973 9.32588,14.28373 0,0.534 -4.87713,5.84206 -10.83806,11.79569 l -10.83806,10.82479 -12.24383,-8.77005 c -6.7341,-4.82354 -13.08645,-9.2058 -14.11634,-9.73838 -3.43652,-1.77709 -5.64219,-1.24572 -15.26989,3.67871 -5.72159,2.92651 -12.16182,5.62523 -17.39484,7.28915 -8.91763,2.83549 -11.75367,4.4324 -12.93446,7.28309 -0.41133,0.99303 -1.93865,8.95082 -3.39404,17.68398 l -2.64618,15.87845 -16.7015,0.16639 c -13.03343,0.12985 -16.76263,-0.007 -16.97983,-0.62463 z m 28.76438,-78.89381 c 14.92564,-2.60281 28.33255,-9.62044 39.33563,-20.58961 14.19029,-14.14655 21.68925,-31.99835 21.77826,-51.84474 0.041,-9.15569 -0.83048,-14.97938 -3.44262,-23.00362 -8.81768,-27.08709 -32.34261,-46.93387 -60.51474,-51.05318 -7.59859,-1.11106 -19.45343,-0.44373 -27.05612,1.52304 -13.75014,3.55709 -23.67376,9.30382 -34.14067,19.77072 -10.44613,10.44613 -16.15757,20.29628 -19.79589,34.14068 -2.21592,8.43193 -2.71755,21.84726 -1.14532,30.62962 5.46449,30.52408 29.68272,54.98741 59.85634,60.4621 6.24532,1.13315 18.52454,1.11604 25.12513,-0.035 z"
       id="path831"
       inkscape:connector-curvature="0"
       transform="scale(0.26458333)" />
    <path
       style="opacity:1;fill:#ef7f1a;fill-opacity:0.97282607;fill-rule:nonzero;stroke:#ff3d3d;stroke-width:2.36082673;stroke-linejoin:round;stroke-miterlimit:4;stroke-dasharray:1.18041337, 1.18041337;stroke-dashoffset:0;stroke-opacity:1"
       d="m 264.4222,765.42526 c -5.4151,-1.93509 -10.32328,-6.42849 -12.45562,-11.40305 -0.65907,-1.53755 -2.04346,-8.19076 -3.07641,-14.78492 -1.03296,-6.59416 -2.00931,-12.55155 -2.16968,-13.23865 -0.22074,-0.94575 -1.77702,-1.75396 -6.40558,-3.32655 -3.3627,-1.14249 -8.465,-3.17715 -11.33845,-4.52145 -2.87345,-1.3443 -5.54377,-2.24938 -5.93404,-2.01128 -0.39026,0.2381 -5.56581,3.86968 -11.5012,8.07017 -5.9354,4.2005 -11.83821,8.00179 -13.11735,8.44732 -1.27914,0.44554 -4.43386,0.81438 -7.01048,0.81964 -7.9394,0.0162 -9.99556,-1.3147 -24.79836,-16.05179 -14.43768,-14.37359 -16.40426,-17.18988 -16.90666,-24.21144 -0.49726,-6.94988 0.68829,-9.69049 9.53915,-22.05155 4.2928,-5.99529 7.80509,-11.2242 7.80509,-11.61982 0,-0.3956 -1.16925,-3.03201 -2.59833,-5.85866 -1.42908,-2.82666 -3.505,-7.66252 -4.61315,-10.74635 -1.10815,-3.08384 -2.39841,-5.81587 -2.86723,-6.07118 -0.46883,-0.25532 -6.69343,-1.45518 -13.83244,-2.66637 -7.91932,-1.34357 -13.94006,-2.69193 -15.44236,-3.45834 -5.49464,-2.80315 -9.1729,-7.29349 -10.93242,-13.34604 -0.862,-2.96516 -0.9875,-6.3471 -0.81983,-22.09264 l 0.19798,-18.59153 1.65401,-3.52791 c 1.93192,-4.1207 5.62775,-8.03999 9.39288,-9.96081 1.65941,-0.84657 7.59327,-2.2597 15.71456,-3.74239 7.17663,-1.31022 13.1085,-2.46659 13.18193,-2.56972 0.0734,-0.10312 0.90747,-2.43619 1.85342,-5.18458 0.94594,-2.7484 3.0728,-7.85364 4.72636,-11.34498 l 3.00646,-6.34788 -7.41467,-10.35363 c -10.26608,-14.33526 -10.25865,-14.31939 -10.25807,-21.92434 7.1e-4,-9.1774 0.6923,-10.2759 16.17772,-25.69605 14.5772,-14.51576 16.59071,-15.87658 24.16386,-16.33108 8.30652,-0.49851 9.92044,0.24598 26.33252,12.147 l 7.0324,5.09946 5.37628,-2.63352 c 2.95695,-1.44845 7.73541,-3.53957 10.6188,-4.64695 2.88338,-1.10737 5.66299,-2.24694 6.17689,-2.53238 0.64448,-0.35795 1.6478,-4.4293 3.23383,-13.12247 1.32985,-7.28908 2.86188,-13.76533 3.63328,-15.35885 1.83221,-3.78484 5.89511,-7.69971 10.00063,-9.63627 l 3.43549,-1.62051 h 20.30065 20.30065 l 3.12318,1.54164 c 3.97492,1.96208 8.39513,6.37068 10.15265,10.12598 0.83068,1.77493 2.11245,7.41683 3.2639,14.36661 1.04282,6.29414 2.02239,12.00607 2.17683,12.69317 0.20981,0.9335 1.63873,1.71011 5.65323,3.07251 2.95485,1.00278 8.40117,3.28392 12.10292,5.06919 l 6.73047,3.24596 9.9425,-7.1374 c 13.15527,-9.44374 14.91544,-10.32971 21.18593,-10.6638 4.08953,-0.21788 5.67775,-0.0122 8.7449,1.13252 3.36936,1.25752 4.99951,2.6355 16.1436,13.64637 13.59518,13.43268 15.41117,15.65259 16.89671,20.65495 2.53006,8.51962 1.22186,12.51881 -8.68059,26.53664 -4.29378,6.07826 -7.80688,11.2621 -7.80688,11.51966 0,0.25756 1.37002,3.54127 3.0445,7.29714 1.67448,3.75587 3.68756,8.65592 4.47352,10.88899 0.78596,2.23307 1.61749,4.28003 1.84784,4.54879 0.23035,0.26877 6.61488,1.58038 14.18785,2.91469 8.71536,1.5356 14.72409,2.91326 16.37117,3.75354 3.70499,1.89015 7.40803,5.83105 9.32889,9.92816 l 1.65401,3.52792 v 19.98833 19.98833 l -1.62474,3.464 c -4.11719,8.77794 -8.22489,10.9608 -26.47801,14.07062 -7.21133,1.2286 -13.13669,2.2833 -13.16746,2.34377 -0.0308,0.0605 -0.82992,2.35863 -1.77586,5.10703 -0.94594,2.74839 -3.09483,7.89973 -4.7753,11.44742 l -3.05541,6.45034 7.51279,10.56541 c 9.29972,13.07843 10.16884,14.91459 10.18027,21.50766 0.0145,8.40445 -1.12095,10.1736 -16.35439,25.48025 -15.36743,15.44127 -16.79223,16.37032 -25.10582,16.37032 -6.86179,0 -9.05979,-1.03592 -22.14486,-10.4369 l -9.96446,-7.15899 -6.27606,2.95191 c -3.45183,1.62355 -8.52473,3.73302 -11.27313,4.6877 -2.7484,0.95468 -5.10648,1.82088 -5.24018,1.92489 -0.1337,0.10401 -1.28652,6.33617 -2.56183,13.84925 -2.60287,15.33405 -3.75218,18.34748 -8.63789,22.64806 -5.30988,4.67394 -6.95301,4.95575 -28.71344,4.92466 -14.04396,-0.0201 -19.78958,-0.24378 -21.44386,-0.83495 z m 38.54579,-16.13465 c 0.375,-0.24429 0.63101,-1.29836 0.5689,-2.34238 -0.0621,-1.04402 0.15575,-1.89821 0.48414,-1.89821 0.32839,0 0.45013,-0.56189 0.27054,-1.24865 -0.17959,-0.68676 -0.0581,-1.4145 0.2698,-1.6172 0.36256,-0.22407 0.30959,-0.71404 -0.13513,-1.24989 -0.56221,-0.67742 -0.55376,-0.88134 0.0365,-0.88134 0.42237,0 0.60961,-0.41263 0.41608,-0.91695 -0.19352,-0.50432 -0.0956,-1.07532 0.21758,-1.26889 0.3132,-0.19356 0.49266,-1.32691 0.39882,-2.51854 -0.0939,-1.19164 0.092,-2.16661 0.41308,-2.16661 0.32104,0 0.44022,-0.54869 0.26485,-1.21932 -0.17538,-0.67063 0.002,-1.35194 0.39562,-1.51404 0.48435,-0.19978 0.41268,-0.50815 -0.22247,-0.95734 -0.73627,-0.5207 -0.75411,-0.66467 -0.0833,-0.67219 0.54466,-0.006 0.7354,-0.46173 0.52695,-1.25883 -0.17968,-0.6871 -0.0392,-1.24927 0.31232,-1.24927 0.35146,0 0.492,-0.56217 0.31232,-1.24927 -0.17969,-0.6871 -0.0838,-1.24927 0.2131,-1.24927 0.29688,0 0.46231,-0.9838 0.36761,-2.18623 -0.0947,-1.20242 0.0905,-2.18622 0.41154,-2.18622 0.32104,0 0.4367,-0.56217 0.25702,-1.24927 -0.17969,-0.6871 -0.0419,-1.24927 0.30629,-1.24927 0.34814,0 0.4712,-0.42163 0.27344,-0.93696 -0.19774,-0.51532 -0.0572,-0.93695 0.31232,-0.93695 0.36953,0 0.50574,-0.43292 0.30269,-0.96204 -0.22079,-0.57539 -0.0593,-0.89929 0.40165,-0.8059 1.20866,0.24483 3.66219,-1.34425 3.20863,-2.07813 -0.26467,-0.42826 0.0583,-0.51219 0.91946,-0.23889 0.77045,0.24453 1.32749,0.14979 1.32749,-0.22579 0,-0.35592 0.3932,-0.49624 0.87377,-0.31183 0.48058,0.18442 1.06217,0.0305 1.29244,-0.34211 0.23026,-0.37257 0.6609,-0.52769 0.95697,-0.34471 0.29607,0.18298 0.71487,0.047 0.93066,-0.30213 0.21578,-0.34915 0.93792,-0.63482 1.60475,-0.63482 0.66682,0 1.2124,-0.27227 1.2124,-0.60504 0,-0.33276 0.42163,-0.44323 0.93696,-0.24549 0.51532,0.19776 0.93695,0.0572 0.93695,-0.31231 0,-0.36952 0.39319,-0.52098 0.87377,-0.33656 0.48058,0.18441 1.06217,0.0305 1.29243,-0.34212 0.23026,-0.37257 0.66091,-0.52769 0.95698,-0.34471 0.29607,0.18298 0.71487,0.047 0.93065,-0.30213 0.21579,-0.34915 0.93793,-0.63482 1.60475,-0.63482 0.66683,0 1.21241,-0.28109 1.21241,-0.62464 0,-0.34354 0.21081,-0.57402 0.46847,-0.51215 0.72337,0.17368 5.77788,-2.22221 5.77788,-2.73877 0,-0.25172 0.41926,-0.29679 0.93169,-0.10016 0.52342,0.20086 1.09351,-0.0642 1.30097,-0.60479 0.2031,-0.52928 0.76764,-0.80946 1.25453,-0.62262 0.53309,0.20457 0.88526,-0.0518 0.88526,-0.64448 0,-0.61819 0.34842,-0.85047 0.93695,-0.62463 0.51533,0.19775 0.93696,0.0572 0.93696,-0.31232 0,-0.36952 0.41926,-0.51097 0.93168,-0.31433 0.52342,0.20085 1.09351,-0.0642 1.30097,-0.6048 0.2031,-0.52928 0.76764,-0.80945 1.25454,-0.62262 0.48689,0.18684 0.88525,0.0482 0.88525,-0.30816 0,-0.42936 0.66196,-0.45801 1.96284,-0.0849 1.07956,0.30961 2.20391,0.41394 2.49854,0.23185 0.29464,-0.18209 0.53571,-0.003 0.53571,0.39724 0,0.40058 0.42163,0.56654 0.93695,0.36879 0.58853,-0.22584 0.93695,0.006 0.93695,0.62463 0,0.61821 0.34842,0.85048 0.93696,0.62464 0.58853,-0.22584 0.93695,0.006 0.93695,0.62463 0,0.61821 0.34842,0.85048 0.93695,0.62464 0.57074,-0.21901 0.93696,-0.001 0.93696,0.55781 0,0.50454 0.39155,0.91735 0.87012,0.91735 0.47857,0 1.03875,0.43944 1.24486,0.97654 0.2061,0.5371 0.62835,0.8198 0.93833,0.62823 0.30998,-0.19158 0.72295,0.067 0.91772,0.57451 0.20596,0.53674 0.76671,0.76451 1.34027,0.54442 0.54237,-0.20813 0.90437,-0.13313 0.80443,0.16669 -0.0999,0.2998 -0.0226,0.5451 0.17188,0.5451 0.19447,0 1.06996,0.77299 1.94554,1.71775 0.87557,0.94476 2.06821,1.71775 2.6503,1.71775 0.58209,0 0.88463,0.28108 0.6723,0.62463 -0.21233,0.34355 0.2093,0.62464 0.93695,0.62464 0.72765,0 1.16828,0.25034 0.97918,0.55631 -0.44597,0.7216 2.61538,2.73531 3.41092,2.24364 0.33384,-0.20632 0.60699,0.0931 0.60699,0.66551 0,0.66839 0.33516,0.91203 0.93695,0.6811 0.54804,-0.2103 0.93695,-0.009 0.93695,0.48472 0,0.56249 0.67751,0.80126 2.03007,0.71543 1.17635,-0.0747 1.96439,-0.43793 1.8739,-0.86386 -0.0859,-0.40427 0.26549,-0.73504 0.78082,-0.73504 0.51532,0 0.93695,-0.42163 0.93695,-0.93695 0,-0.51533 0.21081,-0.87171 0.46848,-0.79195 0.72703,0.22502 3.25482,-2.17787 2.89815,-2.75497 -0.17445,-0.28227 0.12103,-0.51321 0.65663,-0.51321 0.5356,0 0.97382,-0.42163 0.97382,-0.93696 0,-0.51532 0.21082,-0.8717 0.46848,-0.79195 0.72704,0.22503 3.25482,-2.17786 2.89816,-2.75496 -0.17446,-0.28227 0.12103,-0.51322 0.65663,-0.51322 0.5356,0 0.97382,-0.42162 0.97382,-0.93695 0,-0.51532 0.21081,-0.8717 0.46847,-0.79195 0.72704,0.22503 3.25483,-2.17787 2.89816,-2.75497 -0.17445,-0.28226 0.12103,-0.51321 0.65663,-0.51321 0.5356,0 0.97382,-0.42163 0.97382,-0.93695 0,-0.51533 0.35136,-0.94043 0.78079,-0.94469 0.42944,-0.004 1.42834,-1.00715 2.2198,-2.22867 1.28636,-1.98537 1.35301,-2.41519 0.62831,-4.05239 -0.44588,-1.00731 -1.15488,-1.83147 -1.57556,-1.83147 -0.42325,0 -0.60428,-0.41846 -0.40532,-0.93695 0.22584,-0.58853 -0.006,-0.93695 -0.62464,-0.93695 -0.61819,0 -0.85047,-0.34842 -0.62463,-0.93695 0.22584,-0.58854 -0.006,-0.93696 -0.62464,-0.93696 -0.61819,0 -0.85047,-0.34842 -0.62463,-0.93695 0.22084,-0.57551 -6.3e-4,-0.93695 -0.57484,-0.93695 -0.5139,0 -0.89534,-0.4919 -0.84762,-1.09312 0.0477,-0.60121 -0.27794,-1.01839 -0.72369,-0.92707 -0.46996,0.0963 -0.73239,-0.29735 -0.62464,-0.93695 0.10439,-0.61968 -0.15631,-1.03457 -0.59498,-0.94684 -0.42944,0.0859 -0.78079,-0.40601 -0.78079,-1.09311 0,-0.6871 -0.28109,-1.24927 -0.62464,-1.24927 -0.34355,0 -0.62463,-0.42163 -0.62463,-0.93695 0,-0.51533 -0.28109,-0.93695 -0.62464,-0.93695 -0.34355,0 -0.62464,-0.42163 -0.62464,-0.93696 0,-0.51532 -0.4128,-0.93695 -0.91735,-0.93695 -0.55879,0 -0.77681,-0.36622 -0.5578,-0.93695 0.22584,-0.58853 -0.006,-0.93696 -0.62464,-0.93696 -0.61819,0 -0.85047,-0.34842 -0.62463,-0.93695 0.22584,-0.58853 -0.006,-0.93695 -0.62464,-0.93695 -0.61819,0 -0.85047,-0.34842 -0.62463,-0.93696 0.23093,-0.60179 -0.0127,-0.93695 -0.68111,-0.93695 -0.57235,0 -0.89132,-0.2416 -0.70882,-0.53689 0.38769,-0.62731 -0.98395,-3.82352 -1.64392,-3.83068 -0.24688,-0.003 -0.28708,-0.42651 -0.0893,-0.94183 0.2101,-0.54751 0.007,-0.94093 -0.48808,-0.94652 -0.65495,-0.007 -0.63465,-0.14937 0.0893,-0.62463 0.83284,-0.54673 0.83284,-0.68341 0,-1.23015 -0.83285,-0.54672 -0.83285,-0.61667 0,-0.6295 1.02344,-0.0158 2.66652,-2.97537 2.132,-3.84025 -0.1825,-0.29529 -0.004,-0.53689 0.39651,-0.53689 0.40057,0 0.56653,-0.42163 0.36878,-0.93695 -0.211,-0.54985 -0.008,-0.93696 0.4901,-0.93696 0.70553,0 1.95764,-2.86493 1.60744,-3.67798 -0.0575,-0.13336 0.13037,-0.41444 0.41738,-0.62463 0.97297,-0.71254 2.12772,-3.24062 1.75539,-3.84306 -0.20368,-0.32957 -0.10545,-0.59922 0.21831,-0.59922 0.5395,0 1.43961,-1.92861 1.60341,-3.4355 0.0374,-0.34355 0.20844,-0.76518 0.38021,-0.93695 0.90784,-0.90784 1.86815,-3.25178 1.54589,-3.77322 -0.20369,-0.32957 -0.0399,-0.59923 0.364,-0.59923 0.42683,0 0.59755,-0.52316 0.40766,-1.24927 -0.17968,-0.6871 -0.0419,-1.24927 0.3063,-1.24927 0.34814,0 0.47119,-0.42163 0.27344,-0.93695 -0.19775,-0.51533 -0.0667,-0.93696 0.29129,-0.93696 0.35796,0 0.54972,-0.4919 0.42614,-1.09311 -0.12358,-0.60121 0.20716,-1.43553 0.73499,-1.85404 0.65413,-0.51865 0.71109,-0.76725 0.1789,-0.7808 -0.42944,-0.0109 -0.7808,-0.31754 -0.7808,-0.68136 0,-0.36383 0.29581,-0.47868 0.65735,-0.25523 0.36768,0.22723 0.98018,-0.44903 1.38996,-1.53465 0.41348,-1.09542 1.48762,-2.2751 2.46583,-2.7081 0.95327,-0.42196 1.73322,-0.97085 1.73322,-1.21975 0,-0.2489 0.42163,-0.29076 0.93695,-0.093 0.61815,0.23721 0.95373,-0.0352 0.98627,-0.8004 0.0279,-0.65752 0.18577,-0.82174 0.36437,-0.37914 0.47488,1.17689 2.08349,0.93702 2.09442,-0.31232 0.008,-0.93581 0.0981,-0.95828 0.62463,-0.15616 0.48822,0.74372 0.72199,0.77156 1.13349,0.135 0.2853,-0.44133 0.98751,-0.62194 1.56159,-0.40164 0.57375,0.22016 1.04317,0.11545 1.04317,-0.23269 0,-0.34814 0.56217,-0.48598 1.24927,-0.30629 0.7971,0.20844 1.25273,0.0177 1.25884,-0.52696 0.007,-0.66796 0.14594,-0.64984 0.63651,0.0833 0.54647,0.8167 0.73756,0.79242 1.48893,-0.18926 0.65458,-0.85523 0.95232,-0.93038 1.2374,-0.31232 0.26694,0.57873 0.4743,0.60746 0.71768,0.0994 0.18824,-0.39296 0.89096,-0.57099 1.56158,-0.39562 0.67063,0.17537 1.21932,0.0138 1.21932,-0.35902 0,-0.37284 0.45,-0.50521 0.99999,-0.29416 0.55,0.21106 1.24841,-0.009 1.55203,-0.48807 0.46103,-0.7281 0.55361,-0.7305 0.5616,-0.0146 0.007,0.65591 0.21106,0.69006 0.86734,0.14539 0.47178,-0.39154 1.31504,-0.53643 1.87391,-0.32197 0.55886,0.21445 1.01612,0.10507 1.01612,-0.24307 0,-0.34814 0.56217,-0.48597 1.24927,-0.30629 0.6871,0.17968 1.24927,0.0216 1.24927,-0.35119 0,-0.37284 0.42163,-0.51609 0.93696,-0.31835 0.51575,0.19792 0.93695,0.0187 0.93695,-0.39874 0,-0.42244 0.42127,-0.59664 0.95112,-0.39332 0.53948,0.20702 1.55326,-0.23712 2.34238,-1.02622 1.35476,-1.3547 1.39246,-1.76689 1.43687,-15.71145 0.0474,-14.87981 -0.32257,-17.5123 -2.38799,-16.99177 -0.60121,0.15152 -1.09311,-0.0121 -1.09311,-0.36352 0,-0.35146 -0.56189,-0.49207 -1.24865,-0.31248 -0.68676,0.17959 -1.37853,0.11637 -1.53728,-0.14049 -0.15875,-0.25687 -1.14283,-0.41621 -2.18685,-0.3541 -1.04401,0.0621 -1.89821,-0.15576 -1.89821,-0.48415 0,-0.32838 -0.56189,-0.45012 -1.24864,-0.27053 -0.68677,0.17959 -1.4145,0.0582 -1.6172,-0.2698 -0.22408,-0.36256 -0.71405,-0.30959 -1.2499,0.13513 -0.67742,0.56221 -0.88134,0.55376 -0.88134,-0.0365 0,-0.42237 -0.41263,-0.60961 -0.91695,-0.41608 -0.50432,0.19352 -1.09493,0.0639 -1.31246,-0.28808 -0.21752,-0.35196 -0.77969,-0.49251 -1.24927,-0.31232 -0.46957,0.1802 -1.02833,0.0452 -1.24169,-0.30006 -0.25223,-0.40812 -0.69624,-0.37181 -1.26928,0.10376 -0.67805,0.56274 -0.88134,0.55293 -0.88134,-0.0425 0,-0.46011 -0.49446,-0.64466 -1.21932,-0.45511 -0.67063,0.17537 -1.37334,-0.003 -1.56159,-0.39563 -0.24338,-0.50804 -0.45074,-0.47931 -0.71767,0.0994 -0.28508,0.61806 -0.58283,0.54291 -1.23741,-0.31232 -0.75136,-0.98168 -0.94245,-1.00597 -1.48893,-0.18926 -0.49057,0.73314 -0.62902,0.75127 -0.63651,0.0833 -0.006,-0.54466 -0.46173,-0.7354 -1.25883,-0.52695 -0.6871,0.17968 -1.24927,0.10706 -1.24927,-0.16139 0,-0.26844 -0.64596,-0.48807 -1.43546,-0.48807 -1.59623,0 -5.31037,-3.3425 -4.94203,-4.44753 0.12939,-0.38814 -0.24423,-0.70571 -0.83025,-0.70571 -0.87251,0 -0.92576,-0.16836 -0.29402,-0.92956 0.61722,-0.74371 0.60129,-0.99519 -0.0797,-1.25779 -0.46813,-0.18052 -0.884,-1.22545 -0.92415,-2.32206 -0.0402,-1.09661 -0.36167,-2.09005 -0.71449,-2.20766 -0.3528,-0.1176 -0.49798,-0.76251 -0.32261,-1.43314 0.17538,-0.67063 0.0138,-1.21932 -0.35902,-1.21932 -0.37284,0 -0.51609,-0.42163 -0.31834,-0.93695 0.19775,-0.51533 0.0484,-0.93696 -0.33192,-0.93696 -0.38031,0 -0.69147,-0.56217 -0.69147,-1.24927 0,-0.6871 -0.27226,-1.24927 -0.60503,-1.24927 -0.33276,0 -0.44324,-0.42163 -0.24549,-0.93695 0.19791,-0.51576 0.0187,-0.93696 -0.39875,-0.93696 -0.42571,0 -0.59662,-0.42131 -0.38968,-0.96059 0.20579,-0.53629 -0.0232,-1.11095 -0.51836,-1.30097 -0.48784,-0.1872 -0.73411,-0.73873 -0.54728,-1.22562 0.18684,-0.4869 -0.002,-0.88526 -0.41859,-0.88526 -0.4257,0 -0.59662,-0.42132 -0.38967,-0.9606 0.20579,-0.53629 -0.0232,-1.11094 -0.51837,-1.30096 -0.48784,-0.18721 -0.73411,-0.73874 -0.54727,-1.22563 0.18684,-0.48689 0.0285,-0.88526 -0.35176,-0.88526 -0.38031,0 -0.69147,-0.56217 -0.69147,-1.24927 0,-0.6871 -0.29767,-1.24927 -0.6615,-1.24927 -0.36382,0 -0.48655,-0.28307 -0.27272,-0.62905 0.21382,-0.34598 -0.0329,-0.79087 -0.54834,-0.98865 -0.5154,-0.19777 -0.78423,-0.75797 -0.59739,-1.24486 0.20092,-0.52359 -0.0465,-0.88525 -0.6056,-0.88525 -0.63778,0 -0.83902,-0.40642 -0.61861,-1.24928 0.18988,-0.7261 0.0192,-1.24927 -0.40766,-1.24927 -0.40389,0 -0.54121,-0.31251 -0.30514,-0.69447 0.23606,-0.38196 0.0419,-0.93982 -0.43162,-1.2397 -0.71491,-0.45282 -0.71715,-0.54686 -0.0132,-0.5548 0.4662,-0.005 0.69925,-0.39622 0.51791,-0.8688 -0.18135,-0.47258 0.0682,-1.62618 0.55449,-2.56356 0.48631,-0.93737 0.74677,-1.92669 0.5788,-2.19848 -0.16799,-0.2718 0.13241,-0.66219 0.66754,-0.86753 0.53512,-0.20535 0.81621,-0.62698 0.62463,-0.93696 -0.19158,-0.30998 0.0895,-0.73161 0.62464,-0.93695 0.53512,-0.20535 0.81621,-0.62698 0.62464,-0.93695 -0.19159,-0.30998 0.0669,-0.72296 0.5745,-0.91772 0.57076,-0.21902 0.76721,-0.75972 0.5149,-1.41719 -0.25674,-0.66907 -0.16241,-0.91133 0.25453,-0.65365 0.76004,0.46973 2.89611,-2.46134 2.39024,-3.27985 -0.18408,-0.29785 0.10314,-0.70956 0.63827,-0.9149 0.53513,-0.20535 0.81621,-0.62698 0.62464,-0.93695 -0.19158,-0.30998 0.0895,-0.73161 0.62463,-0.93696 0.53513,-0.20534 0.81621,-0.62697 0.62464,-0.93695 -0.19158,-0.30998 0.0669,-0.72295 0.57451,-0.91772 0.53674,-0.20597 0.76451,-0.76671 0.54442,-1.34027 -0.24419,-0.63635 -0.0743,-0.92169 0.479,-0.80443 0.47157,0.0999 0.85741,-0.23993 0.85741,-0.75526 0,-0.51532 0.35727,-1.16504 0.79393,-1.44382 0.43666,-0.27877 0.64909,-0.74122 0.47207,-1.02766 -0.17703,-0.28643 0.11596,-0.6888 0.65109,-0.89415 0.53512,-0.20535 0.81621,-0.62697 0.62463,-0.93695 -0.19158,-0.30998 0.0895,-0.73161 0.62464,-0.93695 0.53512,-0.20535 0.798,-0.65643 0.58418,-1.00241 -0.21382,-0.34597 -0.0911,-0.62905 0.27272,-0.62905 0.36383,0 0.66151,-0.85314 0.66151,-1.89588 0,-2.10231 -1.69747,-5.15788 -2.56687,-4.62056 -0.30597,0.1891 -0.55631,-0.0944 -0.55631,-0.63 0,-0.5356 -0.43822,-0.97382 -0.97382,-0.97382 -0.5356,0 -0.79863,-0.28346 -0.5845,-0.62992 0.21412,-0.34645 -0.26119,-0.87055 -1.05625,-1.16466 -0.79506,-0.29411 -1.37529,-0.71336 -1.2894,-0.93167 0.0859,-0.21831 -0.0199,-0.37921 -0.2351,-0.35757 -0.21519,0.0217 -0.71263,-0.60525 -1.10542,-1.39312 -0.3928,-0.78786 -1.35878,-1.75384 -2.14664,-2.14664 -0.78787,-0.39279 -1.41477,-0.89023 -1.39312,-1.10542 0.0216,-0.21519 -0.13671,-0.37355 -0.35191,-0.3519 -0.21518,0.0216 -0.71262,-0.60526 -1.10541,-1.39312 -0.3928,-0.78786 -1.41135,-1.78523 -2.26345,-2.21637 -0.8521,-0.43114 -1.28546,-0.78804 -0.96302,-0.79311 0.32244,-0.005 -0.0172,-0.57138 -0.75468,-1.25847 -0.73751,-0.6871 -1.63377,-1.24928 -1.99168,-1.24928 -0.35791,0 -0.65076,-0.24875 -0.65076,-0.55279 0,-0.30404 -0.74957,-1.04393 -1.66571,-1.64421 -1.53529,-1.00597 -1.72408,-1.01159 -2.41124,-0.0718 -0.41005,0.56076 -1.06591,1.01957 -1.45747,1.01957 -0.39156,0 -0.71193,0.28109 -0.71193,0.62464 0,0.34355 -0.42163,0.62463 -0.93695,0.62463 -0.51533,0 -0.93696,0.43822 -0.93696,0.97382 0,0.5356 -0.27124,0.80618 -0.60275,0.60129 -0.7874,-0.48663 -5.72623,2.78294 -5.28417,3.4982 0.18641,0.30163 -0.23983,0.54841 -0.9472,0.54841 -0.70737,0 -1.28614,0.28109 -1.28614,0.62464 0,0.34355 -0.42163,0.62463 -0.93695,0.62463 -0.51532,0 -0.93695,0.28109 -0.93695,0.62464 0,0.34355 -0.42163,0.62463 -0.93696,0.62463 -0.51532,0 -0.93695,0.42163 -0.93695,0.93696 0,0.51532 -0.35136,0.86668 -0.78079,0.78079 -0.42944,-0.0859 -0.69903,0.22969 -0.5991,0.70127 0.11726,0.55329 -0.16808,0.72319 -0.80443,0.47901 -0.57356,-0.2201 -1.1343,0.008 -1.34027,0.54441 -0.19477,0.50756 -0.62468,0.75563 -0.95535,0.55126 -0.33068,-0.20437 -0.75055,0.19943 -0.93305,0.89732 -0.20048,0.76663 -0.67833,1.13592 -1.20723,0.93297 -0.52252,-0.20051 -0.8754,0.0608 -0.8754,0.64826 0,0.61819 -0.34843,0.85047 -0.93696,0.62463 -0.51532,-0.19775 -0.93695,-0.0572 -0.93695,0.31232 0,0.36952 -0.42163,0.51006 -0.93695,0.31232 -0.51533,-0.19776 -0.93696,-0.0553 -0.93696,0.31646 0,0.4746 -0.49733,0.48692 -1.6693,0.0414 -0.91812,-0.34908 -2.04247,-0.49148 -2.49854,-0.31647 -0.45608,0.175 -0.82924,0.0787 -0.82924,-0.21398 0,-0.49346 -1.99091,-1.38993 -3.43549,-1.54694 -0.34355,-0.0374 -0.85273,-0.42517 -1.13151,-0.86183 -0.27877,-0.43666 -0.77067,-0.63089 -1.09311,-0.43162 -0.32243,0.19928 -0.58624,0.0974 -0.58624,-0.22632 0,-0.5395 -1.92861,-1.43962 -3.4355,-1.60341 -0.34355,-0.0374 -0.96705,-0.48953 -1.38556,-1.00485 -0.41851,-0.51532 -0.76987,-0.69172 -0.7808,-0.392 -0.0109,0.29974 -0.42918,0.20527 -0.92946,-0.20993 -0.50027,-0.41519 -1.17353,-0.59176 -1.49613,-0.39238 -0.3226,0.19937 -0.75456,-0.0753 -0.9599,-0.61046 -0.20535,-0.53512 -0.63701,-0.81001 -0.95925,-0.61085 -0.32223,0.19915 -0.77428,0.0573 -1.00454,-0.31532 -0.23027,-0.37257 -0.81186,-0.52652 -1.29243,-0.34211 -0.48058,0.18442 -0.87597,0.13331 -0.87865,-0.11357 -0.007,-0.65998 -3.20337,-2.03161 -3.83068,-1.64392 -0.29529,0.1825 -0.53689,0.001 -0.53689,-0.40253 0,-0.42683 -0.52317,-0.59754 -1.24927,-0.40766 -0.6871,0.17968 -1.24928,0.0418 -1.24928,-0.30629 0,-0.34815 -0.42162,-0.4712 -0.93695,-0.27345 -0.51532,0.19775 -0.93695,0.0545 -0.93695,-0.31834 0,-0.37284 -0.54402,-0.53562 -1.20893,-0.36174 -0.71594,0.18722 -1.35095,-0.0539 -1.55718,-0.59137 -0.19153,-0.49914 -0.63131,-0.73257 -0.97729,-0.51875 -0.34598,0.21383 -0.62905,0.0911 -0.62905,-0.27273 0,-0.36382 -0.296,-0.66149 -0.65777,-0.66149 -0.36178,0 -1.69191,-0.70272 -2.95586,-1.56159 -1.26395,-0.85888 -2.03608,-1.56159 -1.71584,-1.56159 0.32023,0 0.26691,-0.31534 -0.11851,-0.70075 -0.38541,-0.38541 -0.5521,-1.08813 -0.37042,-1.56159 0.18169,-0.47346 0.0455,-0.86084 -0.30265,-0.86084 -0.34814,0 -0.48597,-0.56217 -0.30629,-1.24927 0.17968,-0.6871 0.0392,-1.24927 -0.31232,-1.24927 -0.35146,0 -0.4805,-0.60613 -0.28678,-1.34695 0.24135,-0.92287 0.1246,-1.20625 -0.37079,-0.90009 -0.39766,0.24578 -0.72303,0.17261 -0.72303,-0.16259 0,-0.33519 0.35136,-0.77341 0.78079,-0.97381 0.5647,-0.26353 0.58306,-0.4591 0.0663,-0.70664 -0.39297,-0.18825 -0.571,-0.89096 -0.39563,-1.56159 0.17537,-0.67062 0.0313,-1.21932 -0.32015,-1.21932 -0.35146,0 -0.492,-0.56217 -0.31232,-1.24927 0.20845,-0.7971 0.0177,-1.25273 -0.52695,-1.25884 -0.66694,-0.007 -0.64872,-0.14409 0.0833,-0.62463 0.74372,-0.48822 0.77156,-0.72199 0.135,-1.13349 -0.44133,-0.28529 -0.62195,-0.9875 -0.40165,-1.56159 0.24017,-0.62587 0.0931,-1.04317 -0.36765,-1.04317 -0.59026,0 -0.5987,-0.20392 -0.0365,-0.88134 0.44472,-0.53585 0.49769,-1.02582 0.13513,-1.24989 -0.32798,-0.20271 -0.44939,-0.93045 -0.2698,-1.6172 0.17957,-0.68676 0.0215,-1.24865 -0.35137,-1.24865 -0.37284,0 -0.51609,-0.42163 -0.31834,-0.93696 0.19944,-0.51974 0.0176,-0.93695 -0.40841,-0.93695 -0.59026,0 -0.5987,-0.20392 -0.0365,-0.88134 0.44472,-0.53585 0.49769,-1.02582 0.13513,-1.24989 -0.32798,-0.20271 -0.44939,-0.93045 -0.2698,-1.6172 0.17957,-0.68676 0.039,-1.24865 -0.3125,-1.24865 -0.35145,0 -0.50212,-0.52346 -0.33481,-1.16325 0.21287,-0.81401 -0.13288,-1.30948 -1.15159,-1.6503 -2.19576,-0.73462 -32.54729,-0.88073 -33.45604,-0.16105 -0.44937,0.35587 -0.65577,1.48891 -0.49706,2.72855 0.1599,1.24893 -6.2e-4,2.11995 -0.39146,2.11995 -0.36458,0 -0.50109,0.42163 -0.30333,0.93696 0.19775,0.51532 0.0878,0.93695 -0.24433,0.93695 -0.33212,0 -0.51492,1.12434 -0.40622,2.49854 0.10871,1.3742 -0.0625,2.49854 -0.38031,2.49854 -0.31788,0 -0.41962,0.41263 -0.22609,0.91695 0.19352,0.50433 0.0956,1.07532 -0.21758,1.26889 -0.3132,0.19356 -0.49266,1.32691 -0.39882,2.51854 0.0939,1.19164 -0.0893,2.16661 -0.40705,2.16661 -0.31773,0 -0.39755,0.46943 -0.17739,1.04318 0.2203,0.57408 0.0397,1.27629 -0.40164,1.56158 -0.63656,0.41151 -0.60872,0.64527 0.135,1.13349 0.73202,0.48054 0.75024,0.61716 0.0833,0.62464 -0.54467,0.006 -0.7354,0.46173 -0.52696,1.25883 0.17968,0.6871 0.0392,1.24927 -0.31232,1.24927 -0.35145,0 -0.49552,0.5487 -0.32015,1.21932 0.17538,0.67063 -0.002,1.37335 -0.39562,1.56159 -0.50804,0.24337 -0.47932,0.45074 0.0994,0.71768 0.61805,0.28507 0.5429,0.58282 -0.31232,1.2374 -0.98169,0.75136 -1.00597,0.94245 -0.18927,1.48893 0.79375,0.53112 0.75967,0.6284 -0.22299,0.63651 -0.77263,0.006 -1.03988,0.32242 -0.80039,0.94652 0.19775,0.51532 0.12006,0.93695 -0.17264,0.93695 -0.2927,0 -0.68465,0.58303 -0.871,1.29563 -0.18634,0.71259 -0.92184,1.44809 -1.63443,1.63444 -0.7126,0.18634 -1.29993,0.79793 -1.30519,1.35907 -0.008,0.87211 -0.094,0.88675 -0.59104,0.10081 -0.50369,-0.79647 -0.63313,-0.78481 -0.96773,0.0871 -0.24045,0.62661 -0.84261,0.88724 -1.59519,0.69044 -0.66491,-0.17388 -1.20957,-0.0725 -1.21035,0.22519 -6.3e-4,0.29773 -0.90184,0.57418 -2.00235,0.61433 -1.10051,0.0402 -2.09715,0.36168 -2.21475,0.71449 -0.1176,0.35281 -0.76252,0.49799 -1.43315,0.32261 -0.67062,-0.17537 -1.21932,-0.0138 -1.21932,0.35903 0,0.37283 -0.42163,0.51609 -0.93695,0.31834 -0.51532,-0.19775 -0.93695,-0.0484 -0.93695,0.33192 0,0.3803 -0.56217,0.69146 -1.24927,0.69146 -0.6871,0 -1.24927,0.27227 -1.24927,0.60503 0,0.33277 -0.42163,0.44324 -0.93696,0.24549 -0.51575,-0.19791 -0.93695,-0.0187 -0.93695,0.39875 0,0.42571 -0.42132,0.59662 -0.9606,0.38968 -0.53628,-0.20579 -1.11094,0.0232 -1.30096,0.51837 -0.18721,0.48784 -0.73874,0.73411 -1.22563,0.54727 -0.48689,-0.18684 -0.88526,-0.0285 -0.88526,0.35176 0,0.38031 -0.56217,0.69147 -1.24927,0.69147 -0.6871,0 -1.24927,0.27226 -1.24927,0.60503 0,0.33276 -0.42163,0.44324 -0.93695,0.24549 -0.51533,-0.19776 -0.93696,-0.0484 -0.93696,0.33192 0,0.38031 -0.56217,0.69146 -1.24927,0.69146 -0.6871,0 -1.24927,0.29768 -1.24927,0.6615 0,0.36383 -0.28307,0.48655 -0.62904,0.27273 -0.34598,-0.21382 -0.79087,0.0329 -0.98865,0.54833 -0.19778,0.51541 -0.75797,0.78423 -1.24486,0.5974 -0.55362,-0.21245 -0.88526,0.065 -0.88526,0.74056 0,0.8621 -0.17903,0.93167 -0.88653,0.3445 -0.70029,-0.58118 -1.02436,-0.49883 -1.5426,0.392 -0.36083,0.62026 -0.66461,0.77639 -0.67505,0.34695 -0.0297,-1.21873 -1.26708,-0.91629 -1.27783,0.31232 -0.008,0.86078 -0.12494,0.91098 -0.5524,0.23619 -0.29855,-0.47131 -0.92063,-0.731 -1.38238,-0.57708 -0.46177,0.15392 -1.39793,-0.24034 -2.08038,-0.87614 -0.68245,-0.63579 -1.60204,-1.01738 -2.04354,-0.84796 -0.44457,0.1706 -0.80273,-0.13108 -0.80273,-0.67614 0,-0.6182 -0.34842,-0.85048 -0.93695,-0.62464 -0.58853,0.22584 -0.93695,-0.006 -0.93695,-0.62463 0,-0.6182 -0.34842,-0.85048 -0.93696,-0.62464 -0.58853,0.22584 -0.93695,-0.006 -0.93695,-0.62463 0,-0.58745 -0.35289,-0.84877 -0.8754,-0.64826 -0.5289,0.20296 -1.00675,-0.16634 -1.20723,-0.93297 -0.1825,-0.69789 -0.60238,-1.10169 -0.93305,-0.89732 -0.33067,0.20437 -0.76058,-0.0437 -0.95535,-0.55126 -0.20597,-0.53674 -0.76671,-0.76451 -1.34027,-0.54441 -0.54238,0.20813 -0.90438,0.13312 -0.80444,-0.16669 0.0999,-0.29981 -0.0363,-0.60869 -0.30282,-0.6864 -0.26648,-0.0777 -1.14198,-0.85069 -1.94553,-1.71774 -0.80356,-0.86706 -1.78014,-1.57646 -2.17018,-1.57646 -0.39004,0 -0.70917,-0.28109 -0.70917,-0.62464 0,-0.34355 -0.60902,-0.62463 -1.35338,-0.62463 -0.74435,0 -1.17551,-0.17786 -0.95813,-0.39525 0.57916,-0.57915 -2.56119,-2.87853 -3.30417,-2.41934 -0.34687,0.21437 -0.63067,-0.0785 -0.63067,-0.65087 0,-0.6684 -0.33516,-0.91204 -0.93695,-0.68111 -0.51533,0.19775 -0.93696,0.0873 -0.93696,-0.24549 0,-0.97062 -1.87808,-0.69632 -2.27265,0.33193 -0.19775,0.51532 -0.7511,0.93695 -1.22967,0.93695 -0.47857,0 -0.87012,0.42163 -0.87012,0.93695 0,0.51533 -0.25298,0.86668 -0.56218,0.7808 -0.30919,-0.0859 -0.57257,0.0902 -0.58528,0.39125 -0.0127,0.30108 -0.66772,0.86879 -1.45558,1.26158 -0.78786,0.39279 -1.75385,1.35878 -2.14664,2.14664 -0.39279,0.78786 -0.89023,1.41477 -1.10542,1.39312 -0.21519,-0.0216 -0.37355,0.13671 -0.35191,0.3519 0.0217,0.21519 -0.60525,0.71264 -1.39311,1.10543 -0.78786,0.39279 -1.75385,1.35878 -2.14664,2.14664 -0.39279,0.78786 -0.96051,1.47768 -1.26158,1.53294 -1.0035,0.18417 -2.67409,1.91038 -2.35246,2.43079 0.17445,0.28226 -0.12104,0.51321 -0.65664,0.51321 -0.5356,0 -0.97381,0.43822 -0.97381,0.97382 0,0.5356 -0.26227,0.81172 -0.58282,0.61361 -0.32054,-0.19811 -1.08386,0.48802 -1.69626,1.52473 -0.6124,1.0367 -1.30386,1.88492 -1.53658,1.88492 -0.23272,0 -0.59058,0.43636 -0.79524,0.96969 -0.44903,1.17017 1.37827,4.16877 2.22246,3.64703 0.32894,-0.2033 0.50901,0.15047 0.40015,0.78616 -0.12293,0.7178 0.12698,1.08694 0.65949,0.97409 0.55329,-0.11725 0.7232,0.16809 0.479,0.80444 -0.22045,0.57449 0.008,1.13454 0.54801,1.34164 0.50953,0.19553 0.92642,0.64456 0.92642,0.99784 0,0.35329 0.68537,1.27751 1.52304,2.05384 0.83767,0.77633 1.35961,1.57493 1.15987,1.77467 -0.19975,0.19975 0.0971,0.53979 0.6596,0.75565 0.56252,0.21585 0.86602,0.64608 0.67444,0.95607 -0.19157,0.30997 0.0911,0.73222 0.62823,0.93832 0.5371,0.20611 0.97654,0.76629 0.97654,1.24486 0,0.47857 0.41281,0.87013 0.91735,0.87013 0.55879,0 0.77682,0.36622 0.55781,0.93695 -0.22585,0.58853 0.006,0.93695 0.62463,0.93695 0.6182,0 0.85048,0.34843 0.62464,0.93696 -0.22584,0.58853 0.006,0.93695 0.62463,0.93695 0.6182,0 0.85048,0.34842 0.62464,0.93695 -0.23093,0.6018 0.0127,0.93696 0.6811,0.93696 0.57236,0 0.8776,0.2638 0.67832,0.58624 -0.19927,0.32244 0.0904,0.83961 0.64375,1.14926 0.55332,0.30966 0.9106,0.70027 0.79393,0.86803 -0.29429,0.42312 2.1634,5.15153 2.82557,5.43618 0.29654,0.12748 0.15599,0.47883 -0.31232,0.78079 -0.7085,0.45684 -0.69415,0.6523 0.0855,1.1641 0.79527,0.52206 0.76529,0.61651 -0.19825,0.62463 -0.87196,0.007 -1.0375,0.3174 -0.71387,1.33706 0.31036,0.97787 0.21327,1.19891 -0.36862,0.83928 -0.57176,-0.35336 -0.69557,-0.12731 -0.44827,0.81839 0.21341,0.81608 0.001,1.43734 -0.56583,1.65485 -0.49913,0.19154 -0.73257,0.63132 -0.51875,0.9773 0.21383,0.34597 0.0911,0.62904 -0.27272,0.62904 -0.36382,0 -0.6615,0.56217 -0.6615,1.24927 0,0.6871 -0.31116,1.24927 -0.69147,1.24927 -0.3803,0 -0.52967,0.42163 -0.33192,0.93696 0.19775,0.51532 0.0873,0.93695 -0.24548,0.93695 -0.33277,0 -0.60504,0.56217 -0.60504,1.24927 0,0.6871 -0.31115,1.24927 -0.69146,1.24927 -0.38031,0 -0.5386,0.39837 -0.35176,0.88526 0.18684,0.48689 -0.0595,1.03842 -0.54727,1.22563 -0.49519,0.19002 -0.72416,0.76468 -0.51837,1.30096 0.20694,0.53928 0.036,0.9606 -0.38968,0.9606 -0.41741,0 -0.59666,0.4212 -0.39875,0.93695 0.19775,0.51533 0.0873,0.93695 -0.24549,0.93695 -0.33277,0 -0.60503,0.56218 -0.60503,1.24928 0,0.68709 -0.31116,1.24927 -0.69146,1.24927 -0.38031,0 -0.52967,0.42163 -0.33193,0.93695 0.19775,0.51532 0.0545,0.93695 -0.31834,0.93695 -0.37283,0 -0.53087,0.56217 -0.35119,1.24927 0.17968,0.6871 0.0419,1.24927 -0.30629,1.24927 -0.34815,0 -0.47816,0.40347 -0.28893,0.8966 0.18923,0.49313 0.0635,0.99013 -0.27951,1.10445 -0.34295,0.11432 -0.69381,0.68652 -0.77967,1.27155 -0.0859,0.58503 -0.33228,1.23985 -0.54759,1.45516 -0.2153,0.2153 -0.24021,0.78561 -0.0554,1.26735 0.18486,0.48173 -0.005,0.87588 -0.42219,0.87588 -0.41741,0 -0.59666,0.4212 -0.39875,0.93696 0.19775,0.51532 0.0873,0.93695 -0.24549,0.93695 -0.33276,0 -0.60503,0.42163 -0.60503,0.93695 0,0.51533 -0.31116,0.93696 -0.69146,0.93696 -0.38031,0 -0.52262,0.44001 -0.31625,0.97779 0.28804,0.75062 0.0859,0.88597 -0.87012,0.58255 -0.93064,-0.29538 -1.24776,-0.10839 -1.25491,0.73994 -0.008,0.94342 -0.1078,0.97987 -0.59103,0.21577 -0.49692,-0.78576 -0.64238,-0.76074 -1.00034,0.1721 -0.32417,0.84478 -0.61252,0.93083 -1.27548,0.38062 -0.66169,-0.54916 -0.94914,-0.4698 -1.26325,0.34874 -0.32061,0.83549 -0.51489,0.88452 -0.91833,0.23174 -0.38907,-0.62954 -0.68587,-0.65378 -1.23846,-0.10119 -0.39972,0.39972 -1.11414,0.57811 -1.5876,0.39643 -0.47346,-0.18169 -0.86084,-0.0455 -0.86084,0.30265 0,0.34814 -0.56217,0.48597 -1.24927,0.30629 -0.7971,-0.20845 -1.25273,-0.0177 -1.25884,0.52696 -0.007,0.66814 -0.13757,0.65117 -0.59862,-0.0781 -0.44789,-0.70844 -0.76323,-0.75756 -1.31582,-0.20497 -0.39972,0.39972 -1.11414,0.57811 -1.5876,0.39643 -0.47346,-0.18169 -0.86084,-0.0455 -0.86084,0.30265 0,0.34814 -0.56217,0.48598 -1.24927,0.30629 -0.7971,-0.20844 -1.25273,-0.0177 -1.25884,0.52696 -0.007,0.66814 -0.13757,0.65117 -0.59862,-0.0781 -0.44789,-0.70844 -0.76323,-0.75756 -1.31582,-0.20497 -0.39972,0.39972 -1.11414,0.57811 -1.5876,0.39643 -0.47346,-0.18169 -0.86084,-0.0348 -0.86084,0.32638 0,0.39995 -0.97692,0.53898 -2.49854,0.35556 -1.3742,-0.16563 -2.49854,-0.0358 -2.49854,0.28859 0,0.32436 -0.56217,0.44273 -1.24927,0.26305 -0.72611,-0.18988 -1.24927,-0.0192 -1.24927,0.40766 0,0.40389 -0.2806,0.56094 -0.62354,0.34898 -0.34295,-0.21195 -1.25648,0.0579 -2.03007,0.59973 -1.39342,0.97592 -1.40705,1.1327 -1.46258,16.83059 -0.0512,14.45964 0.044,15.9746 1.08852,17.32168 0.9736,1.25567 1.23713,1.33621 1.76423,0.53922 0.48443,-0.73246 0.62176,-0.75064 0.62924,-0.0833 0.006,0.54467 0.46173,0.7354 1.25883,0.52695 0.6871,-0.17968 1.24927,-0.0419 1.24927,0.3063 0,0.34814 0.38738,0.48433 0.86084,0.30265 0.47346,-0.18169 1.18788,-0.003 1.5876,0.39643 0.55259,0.55259 0.86793,0.50346 1.31582,-0.20498 0.46105,-0.72925 0.59114,-0.74622 0.59863,-0.0781 0.006,0.54467 0.46173,0.7354 1.25883,0.52695 0.6871,-0.17968 1.24927,-0.0392 1.24927,0.31232 0,0.35146 0.5487,0.49552 1.21932,0.32015 0.67063,-0.17537 1.35195,0.003 1.51404,0.39562 0.19978,0.48435 0.50815,0.41268 0.95733,-0.22247 0.52071,-0.73627 0.66468,-0.75411 0.67219,-0.0833 0.006,0.54467 0.46174,0.7354 1.25884,0.52695 0.6871,-0.17968 1.24927,-0.0392 1.24927,0.31232 0,0.35146 0.56217,0.492 1.24927,0.31232 0.6871,-0.17969 1.24927,-0.0838 1.24927,0.2131 0,0.29688 0.9838,0.46231 2.18623,0.36761 1.20242,-0.0947 2.18622,0.0905 2.18622,0.41154 0,0.32104 0.54869,0.44022 1.21932,0.26485 0.67063,-0.17537 1.32763,0.002 1.46001,0.39563 0.17063,0.50651 0.54298,0.46494 1.27922,-0.1428 0.89381,-0.73781 1.03853,-0.71605 1.03853,0.15616 0,1.17483 1.23982,1.40225 1.26827,0.23264 0.0104,-0.42943 0.30881,-0.28298 0.66302,0.32546 0.35422,0.60844 0.86548,0.96939 1.13614,0.80211 0.27066,-0.16727 0.86305,0.38899 1.31643,1.23613 0.45338,0.84715 1.17214,1.54027 1.59725,1.54027 0.48408,0 0.6413,0.50336 0.42069,1.34695 -0.26421,1.01035 -0.14502,1.21888 0.47695,0.83449 0.60014,-0.37091 0.72075,-0.22992 0.43665,0.51044 -0.23951,0.62417 0.0235,1.26541 0.67465,1.64505 0.58694,0.3422 0.72463,0.63072 0.30598,0.64116 -0.41866,0.0104 -0.60002,0.43901 -0.40303,0.95236 0.19699,0.51336 0.63991,0.75924 0.98427,0.54642 0.38786,-0.23971 0.46578,0.11818 0.20477,0.94054 -0.2327,0.73318 -0.14902,1.32749 0.18692,1.32749 0.33454,0 0.46124,0.56217 0.28156,1.24927 -0.17968,0.6871 -0.0216,1.24927 0.35119,1.24927 0.37284,0 0.51609,0.42163 0.31834,0.93695 -0.19774,0.51533 -0.0484,0.93696 0.33193,0.93696 0.3803,0 0.69146,0.56217 0.69146,1.24927 0,0.6871 0.27226,1.24927 0.60503,1.24927 0.33277,0 0.44324,0.42163 0.24549,0.93695 -0.19775,0.51533 -0.0484,0.93695 0.33192,0.93695 0.38031,0 0.69147,0.56218 0.69147,1.24928 0,0.68709 0.27226,1.24927 0.60503,1.24927 0.33276,0 0.44324,0.42163 0.24549,0.93695 -0.19775,0.51532 -0.0484,0.93695 0.33192,0.93695 0.38031,0 0.69146,0.56217 0.69146,1.24927 0,0.6871 0.27227,1.24927 0.60504,1.24927 0.33276,0 0.44323,0.42163 0.24548,0.93696 -0.22198,0.57848 0.002,0.93695 0.58576,0.93695 0.63778,0 0.83903,0.40641 0.61862,1.24927 -0.18989,0.72611 -0.0192,1.24927 0.40766,1.24927 0.40389,0 0.5594,0.28307 0.34557,0.62905 -0.21382,0.34598 0.0329,0.79087 0.54834,0.98865 0.5154,0.19777 0.78423,0.75797 0.59739,1.24486 -0.20092,0.52359 0.0465,0.88525 0.6056,0.88525 0.63778,0 0.83902,0.40642 0.61861,1.24928 -0.17968,0.68709 -0.0216,1.24927 0.35119,1.24927 0.37284,0 0.5161,0.42162 0.31835,0.93695 -0.19776,0.51532 -0.0796,0.93695 0.26251,0.93695 0.87752,0 0.61039,2.0829 -0.34538,2.69309 -0.43666,0.27878 -0.63088,0.77068 -0.43161,1.09311 0.19927,0.32244 0.0647,0.58625 -0.29918,0.58625 -0.36382,0 -0.6615,0.42163 -0.6615,0.93695 0,0.51533 -0.31387,0.93696 -0.69749,0.93696 -0.38996,0 -0.55344,0.55081 -0.37079,1.24927 0.22041,0.84285 0.0192,1.24927 -0.61862,1.24927 -0.5541,0 -0.80628,0.36227 -0.60938,0.8754 0.20296,0.5289 -0.16634,1.00675 -0.93297,1.20723 -0.69789,0.1825 -1.10168,0.60238 -0.89732,0.93305 0.20437,0.33067 -0.0662,0.76924 -0.60138,0.97458 -0.53512,0.20535 -0.81621,0.62698 -0.62463,0.93696 0.19158,0.30998 -0.0895,0.73161 -0.62464,0.93695 -0.53512,0.20535 -0.798,0.65643 -0.58418,1.00241 0.21382,0.34597 -0.0795,0.62904 -0.65187,0.62904 -0.66839,0 -0.91203,0.33516 -0.68111,0.93696 0.21902,0.57073 10e-4,0.93695 -0.5578,0.93695 -0.50454,0 -0.91735,0.42163 -0.91735,0.93695 0,0.51533 -0.28109,0.93695 -0.62464,0.93695 -0.34355,0 -0.62463,0.42163 -0.62463,0.93696 0,0.51532 -0.28109,0.93695 -0.62464,0.93695 -0.34355,0 -0.62463,0.56217 -0.62463,1.24927 0,0.6871 -0.35136,1.179 -0.7808,1.09311 -0.43866,-0.0877 -0.69937,0.32716 -0.59498,0.94684 0.10775,0.6396 -0.15468,1.03324 -0.62464,0.93695 -0.44574,-0.0913 -0.81044,0.25559 -0.81044,0.77091 0,0.51533 -0.42163,1.27938 -0.93695,1.69789 -0.51533,0.4185 -0.67242,0.76986 -0.34909,0.78079 0.32332,0.0109 0.0959,0.37958 -0.50533,0.81922 -0.89272,0.65277 -0.97472,1.11097 -0.44717,2.49855 0.35532,0.93455 0.93407,1.69918 1.28613,1.69918 0.35205,0 0.64009,0.42163 0.64009,0.93695 0,0.51533 0.43822,0.93695 0.97382,0.93695 0.5356,0 0.83108,0.23095 0.65663,0.51322 -0.30817,0.49863 2.19419,3.03238 2.66478,2.6982 0.1293,-0.0918 0.55647,0.47766 0.94926,1.26553 0.39279,0.78786 1.35878,1.75384 2.14664,2.14664 0.78787,0.39279 1.41477,0.89023 1.39312,1.10542 -0.0216,0.21519 0.13671,0.37355 0.35191,0.3519 0.21518,-0.0217 0.71262,0.60526 1.10541,1.39312 0.3928,0.78786 1.35878,1.75385 2.14664,2.14664 0.78787,0.39279 1.41477,0.89023 1.39312,1.10542 -0.0216,0.21519 0.13672,0.37355 0.35191,0.35191 0.21519,-0.0217 0.71263,0.60525 1.10542,1.39311 0.39279,0.78786 1.35878,1.75385 2.14664,2.14664 0.78786,0.39279 1.48504,0.96051 1.54927,1.26158 0.0643,0.30108 0.35721,0.46728 0.65104,0.36934 0.29382,-0.0979 0.94049,0.1591 1.43704,0.5712 0.73198,0.60749 0.96758,0.50161 1.24507,-0.55949 0.2087,-0.79806 0.68386,-1.17768 1.21766,-0.97285 0.52251,0.20051 0.8754,-0.0608 0.8754,-0.64826 0,-0.61819 0.34842,-0.85047 0.93695,-0.62463 0.58854,0.22584 0.93696,-0.006 0.93696,-0.62464 0,-0.61819 0.34842,-0.85047 0.93695,-0.62463 0.60179,0.23093 0.93695,-0.0128 0.93695,-0.68111 0,-0.57235 0.28381,-0.86524 0.63067,-0.65087 0.74299,0.45919 3.88333,-1.84019 3.30417,-2.41935 -0.21738,-0.21738 0.21379,-0.39523 0.95814,-0.39523 0.74436,0 1.35338,-0.22049 1.35338,-0.48996 0,-0.26948 0.84821,-0.99102 1.88492,-1.60342 1.03671,-0.61239 1.71122,-1.39451 1.4989,-1.73804 -0.21674,-0.35069 0.12083,-0.53779 0.76978,-0.42665 0.71781,0.12293 1.08694,-0.12699 0.9741,-0.65949 -0.11726,-0.55329 0.16808,-0.72319 0.80443,-0.47901 0.57356,0.2201 1.13431,-0.008 1.34027,-0.54442 0.19477,-0.50755 0.60774,-0.76609 0.91772,-0.5745 0.30998,0.19157 0.73161,-0.0895 0.93696,-0.62464 0.20534,-0.53513 0.62736,-0.81597 0.93782,-0.6241 0.31045,0.19187 0.82536,-0.30164 1.14422,-1.0967 0.33257,-0.8292 0.60511,-1.04606 0.63922,-0.5086 0.0488,0.76877 0.20713,0.74249 0.88215,-0.14646 0.45248,-0.59587 0.98701,-0.91908 1.18785,-0.71824 0.20083,0.20083 0.73522,0.13046 1.18751,-0.15639 1.09736,-0.69596 4.88248,-0.74181 4.88248,-0.0592 0,0.29688 0.56923,0.35911 1.26496,0.1383 0.86839,-0.27562 1.21109,-0.14194 1.09311,0.42638 -0.0955,0.45993 0.31398,0.78931 0.92127,0.74111 0.60121,-0.0477 1.09311,0.19318 1.09311,0.53531 0,0.34213 0.42163,0.46027 0.93695,0.26251 0.58481,-0.22441 0.93695,0.005 0.93695,0.60987 0,0.53317 0.34885,0.85312 0.77522,0.71099 0.42637,-0.14212 1.15175,0.11812 1.61195,0.57832 0.4602,0.46021 1.09515,0.67702 1.411,0.48181 0.31586,-0.19521 0.57428,-0.0272 0.57428,0.37341 0,0.40057 0.39837,0.57546 0.88526,0.38862 0.48689,-0.18684 1.05144,0.0933 1.25454,0.62262 0.20746,0.54062 0.77754,0.80565 1.30096,0.60479 0.51243,-0.19663 0.93169,-0.0552 0.93169,0.31434 0,0.36953 0.39837,0.519 0.88526,0.33215 0.48689,-0.18683 1.05143,0.0933 1.25453,0.62262 0.20746,0.54063 0.77755,0.80566 1.30097,0.6048 0.51243,-0.19664 0.93169,-0.0663 0.93169,0.2896 0,0.37558 0.55704,0.47032 1.32749,0.22579 0.89332,-0.28352 1.1877,-0.19514 0.90009,0.27023 -0.25809,0.4176 0.0675,0.69155 0.82187,0.69155 0.6871,0 1.4154,0.26882 1.61845,0.59736 0.20305,0.32855 0.78182,0.43901 1.28614,0.24549 0.50432,-0.19352 0.91695,-0.0106 0.91695,0.40643 0,0.41741 0.42119,0.59667 0.93695,0.39875 0.51532,-0.19775 0.93695,-0.0545 0.93695,0.31835 0,0.37283 0.56217,0.53087 1.24927,0.35118 0.6871,-0.17968 1.24927,-0.0419 1.24927,0.3063 0,0.34814 0.42163,0.47119 0.93696,0.27344 0.58223,-0.22342 0.93695,0.004 0.93695,0.5999 0,0.69403 0.36722,0.84289 1.32749,0.53811 0.84039,-0.26672 1.18201,-0.18593 0.931,0.22021 -0.21807,0.35284 0.24674,1.15594 1.03291,1.78467 0.82809,0.66225 1.33086,1.63409 1.19518,2.31022 -0.14587,0.72683 0.024,1.00746 0.45046,0.74392 0.37657,-0.23273 0.68468,-0.12548 0.68468,0.23835 0,0.36382 -0.35136,0.67044 -0.7808,0.68136 -0.43981,0.0112 -0.25128,0.42037 0.43171,0.93695 0.66687,0.5044 0.87769,0.91709 0.46848,0.91709 -0.40922,0 -0.74403,0.42163 -0.74403,0.93696 0,0.51532 0.25477,0.93695 0.56616,0.93695 0.31139,0 0.41915,0.56217 0.23947,1.24927 -0.17969,0.6871 -0.0216,1.24927 0.35119,1.24927 0.37283,0 0.51609,0.42163 0.31834,0.93695 -0.19945,0.51974 -0.0176,0.93696 0.40841,0.93696 0.59026,0 0.5987,0.20392 0.0365,0.88134 -0.44472,0.53585 -0.49769,1.02582 -0.13513,1.24989 0.32798,0.2027 0.44939,0.93044 0.2698,1.6172 -0.17959,0.68676 -0.0215,1.24865 0.35135,1.24865 0.37284,0 0.51609,0.42163 0.31834,0.93695 -0.19775,0.51533 -0.0747,0.93696 0.27344,0.93696 0.34814,0 0.48598,0.56217 0.3063,1.24927 -0.20845,0.79709 -0.0177,1.25273 0.52695,1.25883 0.71646,0.008 0.7153,0.0972 -0.007,0.5548 -0.54362,0.34433 -0.66445,0.85868 -0.3279,1.39587 0.2931,0.46784 0.45199,1.34253 0.35307,1.94374 -0.0989,0.60121 0.11011,1.09311 0.46447,1.09311 0.35436,0 0.4825,0.42163 0.28475,0.93695 -0.19944,0.51974 -0.0176,0.93696 0.40841,0.93696 0.59026,0 0.59871,0.20392 0.0365,0.88134 -0.47558,0.57304 -0.51189,1.01705 -0.10377,1.26928 0.34523,0.21336 0.48026,0.77212 0.30006,1.24169 -0.18018,0.46958 -0.0397,1.03175 0.31232,1.24927 0.35197,0.21753 0.46601,0.84878 0.25342,1.40278 -0.83722,2.18175 1.10854,2.43774 18.33858,2.41264 9.22337,-0.0134 17.07659,-0.2243 17.45159,-0.4686 z"
       id="path833"
       inkscape:connector-curvature="0"
       transform="scale(0.26458333)" />
    <path
       style="opacity:1;fill:#ef7f1a;fill-opacity:0.97282607;fill-rule:nonzero;stroke:#ff3d3d;stroke-width:2.36082673;stroke-linejoin:round;stroke-miterlimit:4;stroke-dasharray:1.18041337, 1.18041337;stroke-dashoffset:0;stroke-opacity:1"
       d="m 277.03775,668.98595 c -0.033,-0.53283 -0.77121,-0.71596 -2.23554,-0.55459 -1.20242,0.13251 -2.18622,-0.0342 -2.18622,-0.37046 0,-0.33625 -0.56217,-0.46436 -1.24927,-0.28468 -0.6871,0.17968 -1.24927,0.053 -1.24927,-0.28156 0,-0.33454 -0.56217,-0.42983 -1.24927,-0.21175 -0.76518,0.24286 -1.24927,0.11225 -1.24927,-0.33705 0,-0.40346 -0.41263,-0.57522 -0.91695,-0.38169 -0.50432,0.19353 -1.09493,0.0639 -1.31246,-0.28807 -0.21752,-0.35197 -0.7887,-0.48906 -1.26927,-0.30465 -0.48057,0.18442 -0.87377,0.033 -0.87377,-0.33656 0,-0.36952 -0.42163,-0.51007 -0.93695,-0.31231 -0.51533,0.19774 -0.93696,0.0545 -0.93696,-0.31835 0,-0.37283 -0.54402,-0.53562 -1.20893,-0.36174 -0.75257,0.19681 -1.35474,-0.0638 -1.59519,-0.69043 -0.30355,-0.79105 -0.4942,-0.83193 -0.89037,-0.19092 -0.39257,0.6352 -0.59359,0.58245 -0.90861,-0.23848 -0.22263,-0.58017 -0.80018,-0.9023 -1.2845,-0.71645 -0.484,0.18573 -1.05892,-0.12858 -1.27761,-0.69848 -0.34273,-0.89314 -0.47787,-0.90925 -0.97908,-0.11671 -0.48796,0.77158 -0.58301,0.74365 -0.59104,-0.17367 -0.005,-0.60121 -0.31753,-1.09311 -0.69393,-1.09311 -0.3764,0 -1.49883,-0.57995 -2.49428,-1.28876 -0.99545,-0.70883 -2.09291,-1.11387 -2.43881,-0.9001 -0.34589,0.21378 -0.6289,-0.0796 -0.6289,-0.65196 0,-0.66839 -0.33516,-0.91204 -0.93695,-0.6811 -0.58853,0.22583 -0.93695,-0.006 -0.93695,-0.62464 0,-0.6182 -0.34842,-0.85048 -0.93696,-0.62463 -0.58853,0.22583 -0.93695,-0.006 -0.93695,-0.62464 0,-0.58744 -0.35288,-0.84877 -0.8754,-0.64826 -0.5289,0.20296 -1.00675,-0.16634 -1.20723,-0.93297 -0.1825,-0.69789 -0.63183,-1.08348 -0.9985,-0.85687 -0.36668,0.22662 -0.66668,0.009 -0.66668,-0.48376 0,-0.49269 -0.86222,-1.31339 -1.91604,-1.82377 -1.05383,-0.51038 -1.95753,-1.17793 -2.00823,-1.48345 -0.16666,-1.00425 -3.13568,-3.99097 -3.96732,-3.99097 -0.50455,0 -0.66156,-0.3975 -0.41294,-1.0454 0.31111,-0.81074 0.1509,-0.94936 -0.71379,-0.61755 -0.83891,0.32192 -1.02301,0.18827 -0.74361,-0.53984 0.21272,-0.55433 -0.0244,-1.11954 -0.55509,-1.32318 -0.50953,-0.19553 -0.92642,-0.74706 -0.92642,-1.22563 0,-0.47856 -0.28108,-0.87012 -0.62463,-0.87012 -0.34355,0 -0.62464,-0.4517 -0.62464,-1.00378 0,-0.65427 -0.34047,-0.87313 -0.9778,-0.62857 -0.76679,0.29425 -0.88603,0.0861 -0.55255,-0.96461 0.34315,-1.08116 0.22255,-1.26205 -0.62463,-0.93695 -0.82982,0.31842 -0.96703,0.14183 -0.65463,-0.84247 0.27774,-0.87507 0.10999,-1.24534 -0.56419,-1.24534 -0.59621,0 -0.82332,-0.35472 -0.5999,-0.93695 0.22199,-0.57849 -0.002,-0.93696 -0.58576,-0.93696 -0.63777,0 -0.83902,-0.40641 -0.61861,-1.24927 0.18988,-0.7261 0.0192,-1.24927 -0.40766,-1.24927 -0.40389,0 -0.5594,-0.28307 -0.34558,-0.62904 0.21383,-0.34598 -0.0329,-0.79087 -0.54833,-0.98865 -0.5154,-0.19778 -0.78423,-0.75797 -0.5974,-1.24486 0.20093,-0.5236 -0.0465,-0.88526 -0.60559,-0.88526 -0.63778,0 -0.83903,-0.40641 -0.61862,-1.24927 0.17968,-0.6871 0.0216,-1.24927 -0.35119,-1.24927 -0.37283,0 -0.51609,-0.42163 -0.31834,-0.93695 0.23949,-0.6241 -0.0278,-0.94015 -0.8004,-0.94652 -0.90278,-0.007 -0.9691,-0.13044 -0.29912,-0.5548 0.47345,-0.29988 0.66484,-0.86234 0.42532,-1.2499 -0.23953,-0.38756 -0.72728,-0.52433 -1.0839,-0.30393 -0.41426,0.25603 -0.49625,-0.0786 -0.22706,-0.92676 0.2327,-0.73319 0.14902,-1.3275 -0.18692,-1.3275 -0.33454,0 -0.46124,-0.56217 -0.28156,-1.24927 0.17968,-0.68709 0.067,-1.24927 -0.25044,-1.24927 -0.31742,0 -0.51863,-0.84489 -0.44714,-1.87754 0.0825,-1.19115 -0.24698,-2.09764 -0.90115,-2.47955 -0.61071,-0.35654 -0.71278,-0.60975 -0.25035,-0.62099 0.84557,-0.0206 1.11257,-1.89291 0.26994,-1.89291 -0.28097,0 -0.43338,-0.9838 -0.33869,-2.18622 0.0989,-1.25557 -0.11506,-2.18622 -0.50258,-2.18622 -0.45645,0 -0.43811,-0.28513 0.0567,-0.88135 0.44471,-0.53585 0.49768,-1.02582 0.13512,-1.24989 -0.32797,-0.2027 -0.44938,-0.93044 -0.26979,-1.6172 0.20829,-0.79649 0.0174,-1.25211 -0.52712,-1.25821 -0.66694,-0.007 -0.64872,-0.1441 0.0833,-0.62464 0.77689,-0.50999 0.79217,-0.70844 0.0895,-1.16162 -0.62962,-0.40605 -0.65882,-0.66316 -0.11358,-1.00014 0.40365,-0.24947 0.58648,-0.83777 0.40629,-1.30735 -0.18019,-0.46957 -0.0452,-1.02833 0.30006,-1.24169 0.40812,-0.25223 0.37182,-0.69624 -0.10376,-1.26928 -0.52588,-0.63364 -0.5344,-0.88134 -0.0303,-0.88134 0.38561,0 0.70112,-0.42163 0.70112,-0.93695 0,-0.51533 -0.35136,-0.94126 -0.7808,-0.94652 -0.52935,-0.006 -0.47906,-0.22296 0.15616,-0.67219 0.7051,-0.49865 0.74374,-0.74102 0.15616,-0.97944 -0.42944,-0.17426 -0.78079,-0.59107 -0.78079,-0.92627 0,-0.33519 0.25163,-0.45392 0.55918,-0.26385 0.30755,0.19008 0.72036,-0.0744 0.91735,-0.58777 0.19699,-0.51335 0.0156,-0.93767 -0.40302,-0.94293 -0.5177,-0.007 -0.48232,-0.18615 0.11062,-0.56159 0.4795,-0.30362 0.69913,-1.00203 0.48808,-1.55203 -0.21105,-0.55 -0.0814,-0.99999 0.28813,-0.99999 0.36952,0 0.52321,-0.38738 0.34152,-0.86084 -0.18168,-0.47346 -0.003,-1.18788 0.39643,-1.5876 0.55259,-0.55259 0.52834,-0.84939 -0.10119,-1.23846 -0.65278,-0.40344 -0.60375,-0.59773 0.23173,-0.91833 0.86098,-0.33039 0.91502,-0.58094 0.28821,-1.3362 -0.62911,-0.75803 -0.58446,-0.92956 0.24197,-0.92956 1.19494,0 1.35541,-1.00718 0.23264,-1.46022 -0.44057,-0.17778 -0.27274,-0.33655 0.38517,-0.36437 0.8498,-0.0359 1.07738,-0.38808 0.83927,-1.29859 -0.17968,-0.6871 -0.0419,-1.24927 0.3063,-1.24927 0.34814,0 0.48012,-0.39837 0.29328,-0.88526 -0.18684,-0.48689 0.0594,-1.03842 0.54727,-1.22562 0.49519,-0.19002 0.72416,-0.76469 0.51837,-1.30097 -0.20694,-0.53928 -0.036,-0.9606 0.38968,-0.9606 0.41706,0 0.60542,-0.39836 0.41858,-0.88526 -0.18683,-0.48689 0.0594,-1.03842 0.54728,-1.22562 0.5072,-0.19463 0.72495,-0.76261 0.50856,-1.32651 -0.24419,-0.63635 -0.0743,-0.92169 0.47901,-0.80444 0.5325,0.11285 0.78242,-0.25629 0.65949,-0.97409 -0.11881,-0.69378 0.0685,-0.99116 0.46848,-0.74393 0.38519,0.23806 0.66641,-0.10267 0.66641,-0.80744 0,-0.67062 0.48402,-1.40505 1.07561,-1.63206 0.8348,-0.32034 0.8929,-0.52566 0.25951,-0.91712 -0.59898,-0.37019 -0.45297,-0.59933 0.54883,-0.86131 0.75071,-0.19631 1.19771,-0.62748 0.99334,-0.95816 -0.20436,-0.33067 0.0663,-0.76924 0.60138,-0.97458 0.53513,-0.20535 0.79801,-0.65643 0.58419,-1.00241 -0.21383,-0.34597 0.0795,-0.62905 0.65187,-0.62905 0.66839,0 0.91203,-0.33516 0.6811,-0.93695 -0.20625,-0.53749 -0.0125,-0.93695 0.45456,-0.93695 1.08461,0 4.48847,-3.85313 4.26766,-4.83095 -0.11124,-0.49262 0.21229,-0.62256 0.89642,-0.36004 0.82543,0.31675 0.97645,0.16574 0.6597,-0.6597 -0.26253,-0.68413 -0.13258,-1.00766 0.36004,-0.89642 0.97781,0.22081 4.83094,-3.18304 4.83094,-4.26766 0,-0.46701 0.39946,-0.66081 0.93696,-0.45455 0.60179,0.23093 0.93695,-0.0127 0.93695,-0.68111 0,-0.57235 0.28307,-0.8657 0.62905,-0.65187 0.34597,0.21382 0.79706,-0.0491 1.0024,-0.58418 0.20535,-0.53513 0.64391,-0.80575 0.97459,-0.60138 0.33067,0.20437 0.76184,-0.24264 0.95816,-0.99335 0.27047,-1.03426 0.48727,-1.16298 0.89492,-0.53132 0.40977,0.63492 0.62527,0.51593 0.90417,-0.49927 0.26917,-0.97975 0.70875,-1.24327 1.65925,-0.99471 0.9142,0.23907 1.15458,0.11405 0.8204,-0.42666 -0.31895,-0.51608 -0.0968,-0.70044 0.68311,-0.56688 0.71781,0.12293 1.08694,-0.12698 0.9741,-0.65949 -0.11725,-0.55329 0.16808,-0.72319 0.80444,-0.479 0.5639,0.21639 1.13187,-0.001 1.3265,-0.50857 0.18721,-0.48784 0.73874,-0.73411 1.22563,-0.54727 0.48689,0.18684 0.88526,-0.002 0.88526,-0.41859 0,-0.42571 0.42132,-0.59662 0.9606,-0.38968 0.53628,0.20579 1.11094,-0.0232 1.30096,-0.51836 0.1872,-0.48784 0.73874,-0.73412 1.22563,-0.54728 0.48689,0.18684 0.88526,0.0549 0.88526,-0.29328 0,-0.34814 0.56217,-0.48597 1.24927,-0.30629 0.91796,0.24005 1.25181,0.0175 1.25883,-0.83928 0.008,-0.9838 0.10566,-1.01958 0.62464,-0.22901 0.51594,0.78596 0.70448,0.79823 1.16987,0.0761 0.30514,-0.47345 0.8693,-0.66645 1.25368,-0.42889 0.38439,0.23756 0.87656,-0.0311 1.09372,-0.59698 0.31307,-0.81585 0.50079,-0.85746 0.90653,-0.20097 0.38907,0.62952 0.68587,0.65377 1.23846,0.10118 0.39972,-0.39972 1.11413,-0.57811 1.5876,-0.39642 0.47346,0.18168 0.86083,0.0455 0.86083,-0.30266 0,-0.34814 0.56218,-0.48597 1.24928,-0.30629 0.79709,0.20845 1.25273,0.0177 1.25883,-0.52696 0.007,-0.66795 0.14594,-0.64983 0.63651,0.0833 0.54647,0.81671 0.73756,0.79242 1.48893,-0.18926 0.64577,-0.84373 0.94423,-0.92207 1.18985,-0.31232 0.25754,0.63935 0.46996,0.61296 0.99048,-0.12305 0.44923,-0.63522 0.6657,-0.68551 0.67219,-0.15616 0.005,0.42943 0.43119,0.78079 0.94651,0.78079 0.51533,0 0.94126,-0.35136 0.94652,-0.78079 0.007,-0.56541 0.15997,-0.54334 0.5548,0.08 0.33653,0.53133 0.866,0.66258 1.38327,0.34289 1.15825,-0.71584 7.63882,-0.71155 8.15508,0.005 0.24889,0.34563 0.82321,0.25056 1.40543,-0.23264 0.7522,-0.62428 0.98456,-0.63588 0.98456,-0.0492 0,0.42237 0.38738,0.6193 0.86084,0.43762 0.47346,-0.18169 1.18788,-0.003 1.5876,0.39642 0.55259,0.55259 0.86793,0.50347 1.31582,-0.20497 0.46105,-0.72926 0.59114,-0.74622 0.59863,-0.0781 0.006,0.54468 0.46173,0.73541 1.25883,0.52696 0.6871,-0.17968 1.24927,-0.0419 1.24927,0.30629 0,0.34815 0.42163,0.4712 0.93696,0.27345 0.51532,-0.19775 0.93695,-0.0545 0.93695,0.31834 0,0.37283 0.56217,0.53087 1.24927,0.35119 0.6871,-0.17968 1.24927,-0.053 1.24927,0.28156 0,0.33454 0.56217,0.42982 1.24927,0.21175 0.76517,-0.24286 1.24927,-0.11225 1.24927,0.33705 0,0.40346 0.42163,0.57176 0.93695,0.37401 0.51533,-0.19774 0.93696,-0.0545 0.93696,0.31834 0,0.37284 0.56217,0.53088 1.24927,0.3512 0.81194,-0.21233 1.24927,-0.0192 1.24927,0.55178 0,1.08849 1.03255,1.15756 1.46022,0.0977 0.21584,-0.5349 0.33213,-0.48572 0.36924,0.15616 0.0596,1.0309 3.02507,2.66037 3.88,2.132 0.29529,-0.1825 0.53689,-0.0341 0.53689,0.32968 0,0.36382 0.42163,0.6615 0.93696,0.6615 0.51532,0 0.93695,0.28108 0.93695,0.62463 0,0.34355 0.30796,0.62464 0.68437,0.62464 0.3764,0 1.49882,0.57994 2.49428,1.28877 0.99545,0.70882 2.09291,1.11386 2.43881,0.90009 0.34589,-0.21378 0.62889,0.0796 0.62889,0.65196 0,0.66839 0.33516,0.91203 0.93696,0.68111 0.58853,-0.22585 0.93695,0.006 0.93695,0.62463 0,0.58744 0.35289,0.84876 0.8754,0.64825 0.5289,-0.20295 1.00675,0.16635 1.20723,0.93298 0.1825,0.69789 0.63183,1.08348 0.9985,0.85686 0.36668,-0.22661 0.66668,-0.0943 0.66668,0.29409 0,1.02649 1.62623,2.49079 2.76624,2.49079 0.53987,0 0.9134,0.21081 0.83008,0.46847 -0.23354,0.72223 3.37671,4.52861 4.29527,4.52861 0.50455,0 0.66156,0.3975 0.41295,1.0454 -0.31112,0.81075 -0.1509,0.94936 0.71378,0.61755 0.83891,-0.32192 1.02301,-0.18827 0.74361,0.53984 -0.21272,0.55433 0.0244,1.11953 0.55509,1.32318 0.50953,0.19553 0.92642,0.6033 0.92642,0.90617 0,0.94518 2.06823,3.01712 2.65174,2.65649 0.30525,-0.18866 0.46592,0.1771 0.35705,0.81279 -0.12293,0.7178 0.12699,1.08694 0.65949,0.97409 0.55329,-0.11725 0.7232,0.16809 0.47901,0.80444 -0.21639,0.5639 10e-4,1.13188 0.50857,1.32651 0.48784,0.1872 0.7341,0.73873 0.54727,1.22563 -0.20937,0.54561 0.0595,0.88525 0.70094,0.88525 0.57235,0 0.89132,0.24161 0.70882,0.5369 -0.40638,0.65755 0.99912,3.82392 1.70039,3.83068 0.27794,0.003 0.33039,0.28794 0.11657,0.63392 -0.21382,0.34597 0.0196,0.78576 0.51874,0.97729 0.53744,0.20624 0.7786,0.84125 0.59138,1.55718 -0.18023,0.68922 -4.5e-4,1.20893 0.41821,1.20893 0.40389,0 0.5594,0.28307 0.34557,0.62905 -0.21382,0.34597 0.0196,0.78576 0.51875,0.97729 0.56682,0.21751 0.77925,0.83877 0.56583,1.65485 -0.2473,0.9457 -0.12349,1.17176 0.44827,0.81839 0.58189,-0.35963 0.67898,-0.13859 0.36862,0.83928 -0.23271,0.73318 -0.14903,1.32749 0.18691,1.32749 0.33455,0 0.46125,0.56218 0.28156,1.24927 -0.17968,0.6871 -0.0216,1.24928 0.35119,1.24928 0.37284,0 0.5161,0.42162 0.31835,0.93695 -0.19775,0.51532 -0.0747,0.93695 0.27344,0.93695 0.34814,0 0.48598,0.56217 0.3063,1.24927 -0.17969,0.6871 -0.0392,1.24927 0.31231,1.24927 0.35146,0 0.492,0.56217 0.31232,1.24927 -0.20845,0.7971 -0.0177,1.25273 0.52696,1.25884 0.6708,0.007 0.65296,0.15148 -0.0833,0.67219 -0.57611,0.40743 -0.68039,0.76993 -0.27076,0.94124 0.3664,0.15324 0.57774,1.39672 0.46964,2.76331 -0.13217,1.67081 0.0588,2.48782 0.58308,2.49425 0.53977,0.007 0.50373,0.18415 -0.11716,0.57703 -0.71652,0.45339 -0.74267,0.75317 -0.13009,1.49128 0.60848,0.73318 0.60019,0.99099 -0.0402,1.24932 -0.62834,0.25349 -0.59956,0.47212 0.13008,0.98813 0.63523,0.44924 0.68552,0.66571 0.15616,0.67219 -0.42943,0.005 -0.78079,0.40777 -0.78079,0.89447 0,0.48669 0.35136,1.02667 0.78079,1.19995 0.62464,0.25205 0.62464,0.32492 0,0.36437 -0.42943,0.0271 -0.78079,0.47095 -0.78079,0.98627 0,0.51533 0.35136,0.94126 0.78079,0.94652 0.56541,0.007 0.54334,0.15997 -0.08,0.5548 -0.48289,0.30586 -0.65343,0.88078 -0.38844,1.30954 0.26473,0.42834 0.094,1.00818 -0.38845,1.31911 -0.72209,0.46539 -0.70983,0.65392 0.0761,1.16987 0.73202,0.48054 0.75024,0.61716 0.0833,0.62463 -0.53763,0.006 -0.73561,0.46097 -0.53479,1.22889 0.17537,0.67062 -0.002,1.32763 -0.39563,1.46001 -0.50651,0.17063 -0.46494,0.54298 0.14279,1.27922 0.63819,0.77312 0.66102,1.03853 0.0893,1.03853 -0.426,0 -0.60785,0.41721 -0.40841,0.93695 0.19775,0.51533 0.0545,0.93696 -0.31834,0.93696 -0.37283,0 -0.53087,0.56217 -0.35119,1.24927 0.17968,0.6871 0.053,1.24927 -0.28156,1.24927 -0.33454,0 -0.42982,0.56217 -0.21175,1.24927 0.24286,0.76517 0.11225,1.24927 -0.33705,1.24927 -0.40346,0 -0.57177,0.42163 -0.37401,0.93695 0.19775,0.51533 0.15754,0.93915 -0.0893,0.94183 -0.65998,0.007 -2.03162,3.20337 -1.64392,3.83068 0.1825,0.29529 0.0646,0.53689 -0.26196,0.53689 -0.57099,0 -1.66737,2.93906 -1.45632,3.90398 0.0563,0.25766 -0.20869,0.46847 -0.589,0.46847 -0.3803,0 -0.52967,0.42163 -0.33192,0.93695 0.19775,0.51533 0.12463,0.93696 -0.16249,0.93696 -0.82633,0 -3.89869,4.97483 -3.48537,5.6436 0.20489,0.33151 -0.0958,0.60275 -0.66812,0.60275 -0.66839,0 -0.91204,0.33516 -0.6811,0.93695 0.22583,0.58854 -0.006,0.93696 -0.62464,0.93696 -0.6182,0 -0.85048,0.34842 -0.62463,0.93695 0.22583,0.58853 -0.006,0.93695 -0.62464,0.93695 -0.6182,0 -0.85048,0.34843 -0.62463,0.93696 0.20625,0.53749 0.0124,0.93695 -0.45456,0.93695 -1.08461,0 -4.48847,3.85313 -4.26766,4.83095 0.10477,0.46397 -0.20891,0.62386 -0.78798,0.40165 -0.62034,-0.23805 -0.96205,-0.0126 -0.96205,0.63461 0,0.55208 -0.27787,1.00378 -0.61749,1.00378 -0.9598,0 -3.10405,2.0357 -2.74914,2.60996 0.17445,0.28227 -0.25275,0.51322 -0.94935,0.51322 -0.8734,0 -1.15408,0.29303 -0.90426,0.94403 0.25922,0.67551 0.076,0.83418 -0.64424,0.55781 -0.66314,-0.25447 -1.0065,-0.0505 -1.0065,0.59795 0,0.6182 -0.34843,0.85047 -0.93696,0.62464 -0.60179,-0.23094 -0.93695,0.0127 -0.93695,0.6811 0,0.57235 -0.26381,0.8776 -0.58625,0.67832 -0.32243,-0.19927 -0.81433,0.0453 -1.09311,0.5434 -0.49357,0.88198 -0.73171,0.99447 -2.10532,0.99447 -0.36382,0 -0.45826,0.32885 -0.20985,0.73078 0.3057,0.49463 0.10812,0.59896 -0.61141,0.32285 -0.65748,-0.2523 -1.19818,-0.0558 -1.41719,0.5149 -0.19477,0.50755 -0.60774,0.76609 -0.91773,0.57451 -0.30997,-0.19158 -0.72541,0.0734 -0.92319,0.58879 -0.19778,0.5154 -0.75797,0.78423 -1.24486,0.59739 -0.52359,-0.20092 -0.88526,0.0465 -0.88526,0.6056 0,0.63777 -0.40641,0.83902 -1.24927,0.61861 -0.72611,-0.18988 -1.24927,-0.0192 -1.24927,0.40766 0,0.40389 -0.28307,0.5594 -0.62904,0.34558 -0.34598,-0.21382 -0.78576,0.0196 -0.9773,0.51874 -0.21751,0.56682 -0.83877,0.77925 -1.65485,0.56584 -0.9457,-0.24731 -1.17175,-0.12349 -0.81839,0.44826 0.35963,0.5819 0.13859,0.67898 -0.83928,0.36862 -0.77045,-0.24453 -1.32749,-0.14979 -1.32749,0.22579 0,0.35592 -0.3932,0.49625 -0.87377,0.31183 -0.48058,-0.18441 -1.06217,-0.0305 -1.29244,0.34211 -0.23026,0.37258 -0.6823,0.51446 -1.00454,0.31531 -0.32224,-0.19915 -0.76356,0.10092 -0.98072,0.66682 -0.31686,0.82571 -0.50337,0.86437 -0.94441,0.19575 -0.44102,-0.66858 -0.71986,-0.6107 -1.41157,0.29305 -0.65458,0.85523 -0.95233,0.93038 -1.23741,0.31232 -0.25517,-0.55322 -0.48241,-0.5929 -0.70951,-0.12389 -0.18376,0.3795 -1.02702,0.55755 -1.87391,0.39565 -0.84689,-0.16189 -1.53979,-0.007 -1.53979,0.34463 0,0.35144 -0.56218,0.49197 -1.24928,0.31228 -0.79709,-0.20844 -1.25273,-0.0177 -1.25883,0.52696 -0.007,0.67081 -0.15149,0.65297 -0.67219,-0.0833 -0.51602,-0.72964 -0.73464,-0.75842 -0.98813,-0.13008 -0.25833,0.64035 -0.51615,0.64864 -1.24932,0.0402 -0.73284,-0.6082 -1.02697,-0.5998 -1.42277,0.0406 -0.35709,0.57779 -0.62222,0.60787 -0.93251,0.10581 -0.23845,-0.38583 -0.75876,-0.50053 -1.15623,-0.25488 -1.07437,0.664 -5.00271,0.62345 -5.95345,-0.0615 -0.56362,-0.40604 -1.00976,-0.31015 -1.39586,0.3 -0.39402,0.6227 -0.57038,0.65815 -0.57703,0.116 -0.005,-0.42944 -0.40777,-0.7808 -0.89446,-0.7808 -0.48669,0 -1.02668,0.35136 -1.19996,0.7808 -0.24806,0.61476 -0.32554,0.61164 -0.36437,-0.0147 z m 22.32575,-20.08398 c 18.65579,-5.40153 33.17356,-20.2911 38.35718,-39.3395 1.88647,-6.93223 1.90314,-19.71789 0.0347,-26.60533 -7.05038,-25.98902 -29.93701,-42.89584 -55.96466,-41.34225 -24.30845,1.45097 -44.42372,18.6902 -50.06152,42.90383 -1.39843,6.00607 -1.25723,17.79094 0.29051,24.24703 5.00847,20.89178 22.55384,37.54687 43.56777,41.35706 5.23134,0.94854 18.66598,0.2587 23.77599,-1.22084 z"
       id="path835"
       inkscape:connector-curvature="0"
       transform="scale(0.26458333)" />
  </g>
</svg>
