<?xml version="1.0" encoding="utf-8"?>
<!-- Generator: Adobe Illustrator 24.0.0, SVG Export Plug-In . SVG Version: 6.00 Build 0)  -->
<svg version="1.1" id="Livello_1" xmlns="http://www.w3.org/2000/svg" xmlns:xlink="http://www.w3.org/1999/xlink" x="0px" y="0px"
	 viewBox="0 0 79.85 82.84" style="enable-background:new 0 0 79.85 82.84;" xml:space="preserve">
<style type="text/css">
	.st0{fill:#656B6E;}
</style>
<g>
	<path class="st0" d="M22.81,27.71c2.79-0.06,5.4-2.3,5.3-5.4c-0.1-3.22-2.31-5.41-5.4-5.39c-3.18,0.03-5.31,2.2-5.32,5.4
		C17.36,25.94,20.44,27.68,22.81,27.71 M18.17,32.07V62.1h9.08c0.06-0.13,0.11-0.19,0.11-0.25c0.01-9.65,0.01-19.31,0.01-28.96
		c0-0.2-0.04-0.4-0.07-0.6c0-0.03-0.03-0.06-0.05-0.09c-0.02-0.03-0.05-0.05-0.15-0.14H18.17z M33.48,32.07v1.44
		c0,6.55,0,13.09,0,19.64c0,2.62,0,5.25,0,7.88c0,0.36,0.04,0.71,0.06,1.05c1.64,0.2,8.26,0.14,9.06-0.1V60.9
		c0-3.82-0.04-7.63,0.02-11.45c0.03-1.84,0.14-3.69,0.39-5.51c0.25-1.81,1.1-3.34,2.91-4.08c1.28-0.52,2.63-0.56,3.98-0.26
		c1.22,0.27,2.08,1.02,2.67,2.14c0.65,1.24,0.78,2.58,0.79,3.92c0.03,5.07,0.01,10.13,0.02,15.2c0,0.39,0.05,0.78,0.07,1.15
		c1.17,0.26,8.42,0.22,9.19-0.05c0-0.28,0-0.58,0-0.89c0-5.61,0-11.21,0-16.82c0-2.1-0.27-4.17-0.84-6.19
		c-0.6-2.14-1.71-3.99-3.66-5.16c-2.49-1.5-5.22-1.87-8.08-1.55c-3.02,0.34-5.4,1.76-7.19,4.21c-0.07,0.1-0.18,0.17-0.39,0.37
		c-0.25-1.35,0.05-2.6-0.22-3.85H33.48z M3.04,43.47C3.16,20.53,19.53,4.06,39.86,4.05c10.08-0.01,18.83,3.6,26.01,10.76
		c7.28,7.25,10.95,16.13,10.92,26.33C76.77,51,73.22,59.64,66.3,66.76c-7.36,7.57-16.45,11.29-26.94,11.19
		c-9.93-0.1-18.55-3.86-25.55-10.88C6.6,59.84,3.08,50.97,3.04,43.47"/>
</g>
</svg>
