<?xml version="1.0" encoding="utf-8"?>
<!-- Generator: Adobe Illustrator 24.0.0, SVG Export Plug-In . SVG Version: 6.00 Build 0)  -->
<svg version="1.1" id="Livello_1" xmlns="http://www.w3.org/2000/svg" xmlns:xlink="http://www.w3.org/1999/xlink" x="0px" y="0px"
	 viewBox="0 0 442.02 107.31" style="enable-background:new 0 0 442.02 107.31;" xml:space="preserve">
<style type="text/css">
	.st0{fill:#FFFFFF;}
	.st1{fill:#F3DA4C;}
	.st2{font-family:'Gotham-Bold';}
	.st3{font-size:28.2534px;}
	.st4{fill:#5A5A59;}
	.st5{font-family:'Gotham-Medium';}
	.st6{font-size:18.6078px;}
</style>
<g>
	<g>
		<path class="st0" d="M20.88,9.42c-9.17,0-16.61,7.44-16.61,16.61v73.06h429.86V26.03c0-9.17-7.44-16.61-16.61-16.61H20.88z"/>
		<path class="st1" d="M38.69,49.07c0.06-0.28,0.13-0.52,0.17-0.76c1.27-6.29,3.96-11.84,8.58-16.36c7.92-7.75,19.36-8.89,28.31-2.8
			c5.26,3.58,8.7,8.56,10.77,14.51c0.59,1.69,0.99,3.44,1.49,5.23c0.38-0.15,0.75-0.29,1.18-0.46c-0.15-1.06-0.22-2.07-0.46-3.05
			c-0.37-1.5-0.74-3.01-1.32-4.44c-5.56-13.7-21.52-20.05-34.92-13.77c-8.52,4-13.48,10.78-14.85,20.13
			C37.52,48.1,37.41,48.94,38.69,49.07 M85.9,55.04c-5.96-0.14-11.51-1.38-16.79-3.76c-5.29-2.39-9.9-5.69-13.83-10.49
			c-0.22,0.36-0.35,0.69-0.58,0.94c-3.85,4.27-8.44,7.5-13.67,9.85c-0.59,0.26-0.79,0.55-0.77,1.19c0.05,1.58,0.04,3.16,0.01,4.74
			c-0.05,2.32-1.76,3.98-4.07,3.97c-2.26-0.01-3.98-1.75-4-4.06c-0.02-1.68-0.02-3.35,0-5.03c0.02-1.52,0.71-2.73,2.05-3.38
			c0.75-0.37,0.88-0.87,0.95-1.55c0.57-5.96,2.87-11.19,6.88-15.59c6.02-6.6,13.56-9.76,22.49-9.4c12.88,0.51,23.46,9.3,26.39,21.85
			c0.27,1.16,0.39,2.37,0.52,3.56c0.06,0.57,0.22,0.97,0.74,1.31c1.16,0.77,1.72,1.91,1.72,3.31c0,1.65,0,3.29,0,4.93
			c0,1.47-0.66,2.59-1.85,3.45c-0.28,0.21-0.56,0.59-0.61,0.93c-1.13,9.04-5.54,16-13.25,20.84c-0.56,0.35-0.81,0.7-0.88,1.38
			c-0.22,2.37-2.09,4.02-4.46,4.08c-2.29,0.05-4.26-1.59-4.6-3.84c-0.33-2.13,1.02-4.27,3.17-4.89c1.66-0.49,3.21-0.18,4.49,1.04
			c0.44,0.43,0.75,0.4,1.22,0.1c6.6-4.24,10.51-10.25,11.76-17.99c0.11-0.67,0.07-1.13-0.74-1.45c-1.47-0.6-2.25-1.8-2.31-3.4
			C85.88,56.84,85.9,55.99,85.9,55.04"/>
		<path class="st1" d="M56.45,61.17c-1.44,0-2.56-1.08-2.58-2.47c-0.02-1.39,1.2-2.59,2.61-2.57c1.38,0.02,2.55,1.19,2.54,2.55
			C59,60.06,57.86,61.17,56.45,61.17"/>
		<path class="st1" d="M70.36,61.16c-1.4,0.02-2.56-1.08-2.59-2.46c-0.03-1.35,1.12-2.53,2.5-2.57c1.41-0.04,2.62,1.13,2.62,2.53
			C72.89,60.06,71.79,61.15,70.36,61.16"/>
	</g>
	<text transform="matrix(1 0 0 1 110.7769 58.3466)"><tspan x="0" y="0" class="st1 st2 st3">Li</tspan><tspan x="26.02" y="0" class="st1 st2 st3">v</tspan><tspan x="42.15" y="0" class="st1 st2 st3">e Ch</tspan><tspan x="106.4" y="0" class="st1 st2 st3">a</tspan><tspan x="122.98" y="0" class="st1 st2 st3">t</tspan></text>
	<text transform="matrix(1 0 0 1 110.1294 81.4413)"><tspan x="0" y="0" class="st4 st5 st6">siamo online e p</tspan><tspan x="153.08" y="0" class="st4 st5 st6">r</tspan><tspan x="160.43" y="0" class="st4 st5 st6">onti </tspan></text>
	<text transform="matrix(1 0 0 1 312.8609 81.4413)" class="st4 st5 st6">ad aiutarti.</text>
</g>
</svg>
